<svg width="108" height="26" viewBox="0 0 108 26" fill="none" xmlns="http://www.w3.org/2000/svg">
<path d="M66.5972 2.4H70.4612L73.4572 14.132H73.5132V2.4H76.2572V22H73.0932L69.3972 7.692H69.3412V22H66.5972V2.4ZM78.5464 2.4H81.6264V22H78.5464V2.4ZM83.9332 2.4H87.0132V10.66L90.9332 2.4H94.0132L90.3452 9.596L94.0692 22H90.8492L88.2452 13.264L87.0132 15.756V22H83.9332V2.4ZM95.5269 2.4H103.927V5.2H98.6069V10.38H102.835V13.18H98.6069V19.2H103.927V22H95.5269V2.4Z" fill="#D9D9D9"/>
<g clip-path="url(#clip0_1_12)">
<path fill-rule="evenodd" clip-rule="evenodd" d="M8.60746 3.01608C5.51447 6.50825 1.22905 10.4143 0.203484 15.2929C-1.41627 22.9765 8.04991 22.7716 12.6446 20.8949C26.1683 15.3733 39.5496 9.50613 53 3.81176C39.9199 7.25169 26.8887 10.8725 13.7597 14.1316C4.37088 16.4664 6.19819 8.18803 8.60746 3.01608Z" fill="#D9D9D9"/>
</g>
<defs>
<clipPath id="clip0_1_12">
<rect width="53" height="19" fill="white" transform="translate(0 3)"/>
</clipPath>
</defs>
</svg>
