<svg width="140" height="29" viewBox="0 0 140 29" fill="none" xmlns="http://www.w3.org/2000/svg">
<path d="M22.68 0.919999V6.4H15.24V29H8.4V6.4H0.96V0.919999H22.68ZM40.4328 29L34.5928 18.4H32.9528V29H26.1128V0.919999H37.5928C39.8061 0.919999 41.6861 1.30667 43.2328 2.08C44.8061 2.85333 45.9795 3.92 46.7528 5.28C47.5261 6.61333 47.9128 8.10667 47.9128 9.76C47.9128 11.6267 47.3795 13.2933 46.3128 14.76C45.2728 16.2267 43.7261 17.2667 41.6728 17.88L48.1528 29H40.4328ZM32.9528 13.56H37.1928C38.4461 13.56 39.3795 13.2533 39.9928 12.64C40.6328 12.0267 40.9528 11.16 40.9528 10.04C40.9528 8.97333 40.6328 8.13333 39.9928 7.52C39.3795 6.90667 38.4461 6.6 37.1928 6.6H32.9528V13.56ZM59.0466 6.4V12.08H68.2066V17.36H59.0466V23.52H69.4066V29H52.2066V0.919999H69.4066V6.4H59.0466ZM98.9672 29H92.1272L80.6872 11.68V29H73.8472V0.919999H80.6872L92.1272 18.32V0.919999H98.9672V29ZM114.445 0.919999C117.405 0.919999 119.992 1.50667 122.205 2.68C124.419 3.85333 126.125 5.50667 127.325 7.64C128.552 9.74667 129.165 12.1867 129.165 14.96C129.165 17.7067 128.552 20.1467 127.325 22.28C126.125 24.4133 124.405 26.0667 122.165 27.24C119.952 28.4133 117.379 29 114.445 29H103.925V0.919999H114.445ZM114.005 23.08C116.592 23.08 118.605 22.3733 120.045 20.96C121.485 19.5467 122.205 17.5467 122.205 14.96C122.205 12.3733 121.485 10.36 120.045 8.92C118.605 7.48 116.592 6.76 114.005 6.76H110.765V23.08H114.005ZM139.828 0.919999V29H132.988V0.919999H139.828Z" fill="black"/>
</svg>
