<?xml version="1.0" encoding="UTF-8"?>
<svg width="532px" height="534px" viewBox="0 0 532 534" version="1.1" xmlns="http://www.w3.org/2000/svg" xmlns:xlink="http://www.w3.org/1999/xlink">
    <title>Grupo</title>
    <defs>
        <polygon id="path-1" points="0 0 532 0 532 530 0 530"></polygon>
    </defs>
    <g id="Página-1" stroke="none" stroke-width="1" fill="none" fill-rule="evenodd">
        <g id="icon" transform="translate(-246, -229)">
            <g id="Grupo" transform="translate(246, 229)">
                <g>
                    <mask id="mask-2" fill="white">
                        <use xlink:href="#path-1"></use>
                    </mask>
                    <g id="Clip-2"></g>
                    <path d="M500.94939,525.441818 C519.419447,537.665374 540.607249,523.537982 528.383386,503.976188 C516.159522,484.416105 280.374245,143.092228 266.250183,124.616631 C252.122701,106.142744 238.270586,101.796249 220.067343,105.056548 C201.86923,108.316846 172.25796,114.023225 160.035807,140.918125 C147.806812,167.814736 133.958117,198.241912 130.424536,203.94658 C126.892666,209.651248 119.832346,204.764221 109.506969,199.057842 C99.1901448,193.351464 46.7559787,171.075035 28.0139756,159.934255 C9.27197239,148.795185 -7.57154352,165.642344 3.56453813,181.126198 C14.7057508,196.611763 94.8390172,274.314984 105.98023,285.448922 C117.112891,296.589702 144.278362,302.025814 161.121878,281.918357 C170.068713,271.237713 177.941449,262.168403 183.356414,256.013862 C185.448171,253.634494 188.097501,252.337901 191.253095,252.139477 C194.41553,251.941054 197.203399,252.898959 199.573942,254.997798 C290.7954,335.692763 409.726221,444.741722 500.94939,525.441818 M139.444916,0 C110.938531,-0.00171054509 87.8334281,23.1111747 87.8334281,51.615698 C87.8334281,80.1253529 110.938531,103.238238 139.444916,103.238238 C167.94617,103.234817 191.056405,80.1270635 191.056405,51.615698 C191.056405,23.1094641 167.949591,0 139.444916,0 M183.541132,290.585689 C169.418781,305.975463 154.754249,322.071692 148.352413,329.462957 C134.224932,345.766163 132.054499,362.606479 149.438485,378.907974 C166.824181,395.204337 237.993509,445.196727 266.245052,463.668904 C294.496595,482.144501 316.772179,468.559352 301.018156,450.087176 C285.262422,431.614999 255.924807,396.292243 243.971179,381.622609 C238.657125,375.107142 245.151319,366.116518 255.811924,356.951417 C258.495461,354.645602 259.903079,351.607674 259.927023,348.071977 C259.950968,344.53457 258.589531,341.477826 255.941911,339.130958 L200.083626,289.725285 C195.262153,285.455764 187.890549,285.837216 183.541132,290.585689 M317.098856,120.403558 C322.720773,122.192788 328.582138,124.141099 334.701767,126.250201 C383.600642,143.095649 449.876661,169.17633 472.152245,178.952095 C494.427829,188.732992 484.651475,216.443822 461.832,212.099038 C450.504359,209.943751 396.212754,200.821414 344.397735,192.186583 C341.065975,191.628945 338.399541,189.911558 336.518157,187.104553 C324.345604,168.931722 313.170185,152.294961 303.715376,138.282175 C300.848831,134.034892 300.980528,128.684307 304.052315,124.58242 C307.122391,120.478822 312.219231,118.850383 317.098856,120.403558" id="Fill-1" fill="#FFFFFF" mask="url(#mask-2)"></path>
                </g>
                <path d="M110.999142,534 C82.8350014,534 60,511.161951 60,483 C60,454.834617 82.8350014,432 110.999142,432 C139.16843,432 162,454.834617 162,483 C162,511.161951 139.16843,534 110.999142,534" id="Fill-3" fill="#FFFFFF"></path>
            </g>
        </g>
    </g>
</svg>