<?xml version="1.0" encoding="UTF-8"?>
<svg width="22px" height="26px" viewBox="0 0 22 26" version="1.1" xmlns="http://www.w3.org/2000/svg" xmlns:xlink="http://www.w3.org/1999/xlink">
    <title>icon-filled-link</title>
    <g id="Página-1" stroke="none" stroke-width="1" fill="none" fill-rule="evenodd">
        <g id="Desktop" transform="translate(-1723, -20)" fill-rule="nonzero" stroke="#080808">
            <g id="HEADER" transform="translate(0, 19)">
                <g id="nav_primary" transform="translate(24, 0)">
                    <g id="icon-filled" transform="translate(1700, 2)">
                        <path d="M15.2726579,5.45452066 C15.2726579,8.46694333 12.8305599,10.9090413 9.81813719,10.9090413 C6.80571452,10.9090413 4.36361653,8.46694333 4.36361653,5.45452066 C4.36361653,2.44209799 6.80571452,0 9.81813719,0 C12.8305599,0 15.2726579,2.44209799 15.2726579,5.45452066 M9.81813719,13.0908496 C11.6452925,13.0908496 13.3224485,12.4491798 14.6367698,11.3788937 L18.5063159,13.5081204 C19.2033111,13.8916556 19.6362744,14.6241607 19.6362744,15.4197117 L19.6362744,20.7272876 C19.6362744,22.5348067 18.171081,24 16.363562,24 L3.2727124,24 C1.46519334,24 0,22.5348067 0,20.7272876 L0,15.4197117 C0,14.6241607 0.43296333,13.8916556 1.1299585,13.5081204 L4.99939546,11.3788937 C6.31393494,12.4491798 7.99109095,13.0908496 9.81813719,13.0908496" id="Forma"></path>
                    </g>
                </g>
            </g>
        </g>
    </g>
</svg>