<?xml version="1.0" encoding="UTF-8"?>
<svg width="24px" height="24px" viewBox="0 0 24 24" version="1.1" xmlns="http://www.w3.org/2000/svg" xmlns:xlink="http://www.w3.org/1999/xlink">
    <title>icon</title>
    <g id="Página-1" stroke="none" stroke-width="1" fill="none" fill-rule="evenodd" fill-opacity="0.960784314">
        <g id="Desktop" transform="translate(-1872, -21)" fill="#000000" fill-rule="nonzero">
            <g id="HEADER" transform="translate(0, 19)">
                <g id="nav_primary" transform="translate(24, 0)">
                    <g id="market" transform="translate(1700, 2)">
                        <g id="icon" transform="translate(148, 0)">
                            <path d="M10.1980097,0 C15.8301905,0 20.3960194,4.56582891 20.3960194,10.1980097 C20.3960194,12.7793059 19.4370466,15.1364859 17.8558752,16.9328953 L23.8221907,22.9738363 C23.9756064,23.1257475 24.0355555,23.3483814 23.9791635,23.556788 C23.9227715,23.7651947 23.7587382,23.9272219 23.5496535,23.9810454 C23.3405688,24.0348689 23.1186894,23.972185 22.9686773,23.8169118 L17.0118399,17.7856889 C15.2058324,19.4086121 12.8172185,20.3960194 10.1980097,20.3960194 C4.56582891,20.3960194 0,15.8301905 0,10.1980097 C0,4.56582891 4.56582891,0 10.1980097,0 Z M10.1980097,1.19976585 C5.22857956,1.19976585 1.19976585,5.22845959 1.19976585,10.1980097 C1.19976585,15.1675598 5.22833961,19.1962536 10.1980097,19.1962536 C15.1676798,19.1962536 19.1962536,15.1675598 19.1962536,10.1980097 C19.1962536,5.22845959 15.1674398,1.19976585 10.1980097,1.19976585 Z" id="Forma"></path>
                        </g>
                    </g>
                </g>
            </g>
        </g>
    </g>
</svg>