<svg id="Capa_1" data-name="Capa 1" xmlns="http://www.w3.org/2000/svg" viewBox="0 0 387.23 126.75"><defs><style>.cls-1{fill:#FFF;}</style></defs><title>galicia</title><rect class="cls-1" x="215" width="9.54" height="77.41"/><rect class="cls-1" x="242.52" y="24.71" width="9.54" height="52.7"/><path class="cls-1" d="M303,67.12l.76,8.28a43.89,43.89,0,0,1-15.3,2.77c-12.6,0-23.09-5.94-23.09-25.35,0-17,8.7-29,26.29-29a44.48,44.48,0,0,1,12,1.69l-1.05,8.38a32.52,32.52,0,0,0-11.35-2.21c-10.6,0-15.78,7.86-15.78,19.81,0,10.29,3.36,18.44,15,18.44A27.83,27.83,0,0,0,303,67.12"/><rect class="cls-1" x="316.2" y="24.71" width="9.52" height="52.7"/><path class="cls-1" d="M178.53,24.14h-4c-7.42,0-11-3.2-11-8.28V15.3s-8.35,7-8.51,7.52c2.18,5.94,8,9.28,16.85,9.28h9.77c6.36,0,9,1.15,9,4.13,0,1.7-1.07,3.41-3.42,4.36a41.38,41.38,0,0,0-6.67-.64c-15.05,0-22.88,8.26-22.88,19.6,0,4.45,1.69,8.17,4.42,10.29h-8.89v7.54h17.92a34.41,34.41,0,0,0,8.27.93c14.75,0,23.11-9.22,23.11-20.34,0-6.68-2.54-12.09-7.76-15.06a9.7,9.7,0,0,0,6-8.8c0-2.85-2.81-7.18-7.55-8.72C189,24,178.53,24.14,178.53,24.14m1.59,22.69h0c8.28,0,13.06,4.24,13.06,12,0,7.13-5,12.34-13.35,12.34-8.07,0-12.73-4.59-12.73-12.34s5.09-12,13-12"/><path class="cls-1" d="M363.29,24.14h-4c-7.42,0-11-3.2-11-8.28a2.58,2.58,0,0,1,0-.57s-8.35,7-8.52,7.52c2.16,5.94,8,9.28,16.87,9.28h9.75c6.36,0,9,1.15,9,4.13,0,1.7-1.09,3.41-3.41,4.36a41.23,41.23,0,0,0-6.68-.64c-15.05,0-22.87,8.26-22.87,19.6,0,4.45,1.69,8.17,4.44,10.29h-8.91v7.54h17.9a34.38,34.38,0,0,0,8.29.93c14.72,0,23.1-9.22,23.1-20.34,0-6.68-2.53-12.09-7.71-15.06a9.72,9.72,0,0,0,5.92-8.8c0-2.85-2.86-7.18-7.56-8.72-4.15-1.34-14.6-1.23-14.6-1.23m1.58,22.69h0c8.26,0,13,4.24,13,12,0,7.13-5,12.34-13.35,12.34-8.09,0-12.73-4.59-12.73-12.34s5.08-12,13-12"/><path class="cls-1" d="M141.25,24.7H123.32a35.32,35.32,0,0,0-8.26-.93C100.32,23.77,92,33,92,44.12c0,6.67,2.53,12.08,7.73,15.05A9.74,9.74,0,0,0,93.76,68a8.14,8.14,0,0,0,3.47,6.75,29.79,29.79,0,0,0,4.08,2,129.28,129.28,0,0,1-16.14,21.4v.15A89.39,89.39,0,0,1,76.53,106c-.67.54-1.33,1-2,1.53l-.15.14a67.66,67.66,0,0,1-7.76,4.85l-.62.29-1.12.57a44.34,44.34,0,0,1-20.38,4.69v0c-18.7-.14-33.2-5-44.47-12.8v11.27c11.77,6.23,26.08,10,43.66,10.15h0c18.44.56,41.47-10.58,63.53-44,2.12-2.89,4.13-4.8,8.72-4.8h4C127.37,78,131,81.1,131,86.2a3.81,3.81,0,0,1,0,.57s8.33-6.94,8.5-7.53c-2.18-6-8-9.27-16.87-9.27h-9.77c-6.36,0-9-1.18-9-4.12,0-1.71,1.05-3.41,3.38-4.38a39.91,39.91,0,0,0,6.69.66c15,0,22.89-8.26,22.89-19.61,0-4.47-1.69-8.16-4.46-10.28h8.91ZM114.33,55.25h0c-8.31,0-13.05-4.23-13.05-12.11,0-7.09,5-12.27,13.36-12.27,8.06,0,12.73,4.54,12.73,12.27s-5.09,12.11-13,12.11"/></svg>