<svg width="195" height="43" viewBox="0 0 195 43" fill="none" xmlns="http://www.w3.org/2000/svg">
<path d="M77.6911 13.7513L79.7213 14.3953C79.4102 15.5272 78.8924 16.3678 78.1684 16.9172C77.4444 17.4669 76.526 17.7413 75.4129 17.7413C74.0358 17.7413 72.9039 17.271 72.0172 16.3303C71.1305 15.3892 70.6871 14.1029 70.6871 12.471C70.6871 10.7448 71.1329 9.4041 72.0243 8.44919C72.9157 7.49406 74.0877 7.01638 75.5404 7.01638C76.8091 7.01638 77.8396 7.39152 78.6318 8.14136C79.1034 8.58494 79.457 9.22154 79.693 10.0516L77.62 10.5467C77.4974 10.0091 77.2418 9.58465 76.8526 9.27326C76.4636 8.96209 75.9906 8.8065 75.4343 8.8065C74.6653 8.8065 74.0418 9.08223 73.563 9.63413C73.0842 10.1858 72.8448 11.0799 72.8448 12.3154C72.8448 13.6267 73.0806 14.5605 73.5523 15.1168C74.0237 15.6734 74.6369 15.9516 75.3917 15.9516C75.948 15.9516 76.4271 15.7748 76.8278 15.4209C77.2286 15.0673 77.5164 14.5108 77.6911 13.7513" fill="#003399"/>
<path fill-rule="evenodd" clip-rule="evenodd" d="M81.5326 11.7849C81.2069 12.4025 81.0444 13.0416 81.0444 13.7021C81.0444 14.5649 81.2069 15.2974 81.5326 15.8985C81.8578 16.4999 82.333 16.9562 82.958 17.2676C83.5828 17.5788 84.2397 17.7343 84.9283 17.7343C86.0414 17.7343 86.9645 17.3608 87.6978 16.6132C88.4312 15.8658 88.7981 14.9236 88.7981 13.7868C88.7981 12.6598 88.4347 11.7269 87.7085 10.9889C86.9821 10.2509 86.0508 9.88176 84.914 9.88176C84.1782 9.88176 83.5122 10.0443 82.9155 10.3699C82.3188 10.6951 81.8578 11.167 81.5326 11.7849ZM83.6123 15.5203C83.2587 15.1239 83.0818 14.5533 83.0818 13.8079C83.0818 13.0628 83.2587 12.4924 83.6123 12.0961C83.9662 11.7 84.4022 11.5018 84.9211 11.5018C85.4398 11.5018 85.8749 11.7 86.2264 12.0961C86.5777 12.4924 86.7534 13.0583 86.7534 13.7939C86.7534 14.5484 86.5777 15.1239 86.2264 15.5203C85.8749 15.9164 85.4398 16.1145 84.9211 16.1145C84.4022 16.1145 83.9662 15.9164 83.6123 15.5203Z" fill="#003399"/>
<path fill-rule="evenodd" clip-rule="evenodd" d="M90.6375 10.0516H89.5339V11.6151H90.6375V17.5645H92.6254V11.6151H94.111V10.0516H92.6254V9.52112C92.6254 9.13885 92.6878 8.88073 92.8126 8.74632C92.9376 8.61191 93.144 8.54459 93.4318 8.54459C93.724 8.54459 94.0285 8.58249 94.3446 8.65783L94.6132 7.27116C94.0709 7.10131 93.5167 7.01638 92.9508 7.01638C92.3989 7.01638 91.9426 7.11446 91.5817 7.31017C91.2211 7.5061 90.9734 7.75931 90.839 8.07071C90.7044 8.38188 90.6375 8.85353 90.6375 9.48568V10.0516ZM95.1156 17.5645V10.0516H97.1032V17.5645H95.1156ZM95.1156 9.03275V7.19337L97.1032 7.19337V9.03275L95.1156 9.03275Z" fill="#003399"/>
<path d="M106.038 17.5645H104.05V13.7304C104.05 12.9193 104.008 12.3943 103.923 12.1563C103.838 11.918 103.7 11.733 103.509 11.6008C103.318 11.4688 103.088 11.4026 102.819 11.4026C102.475 11.4026 102.166 11.4971 101.893 11.6855C101.619 11.8743 101.431 12.1244 101.33 12.4358C101.229 12.747 101.178 13.3223 101.178 14.1619V17.5645H99.1902V10.0516H101.037V11.1552C101.692 10.3062 102.518 9.88178 103.513 9.88178C103.951 9.88178 104.352 9.96068 104.715 10.1187C105.079 10.2768 105.353 10.4783 105.54 10.7235C105.726 10.9689 105.856 11.2473 105.929 11.5584C106.002 11.8698 106.038 12.3154 106.038 12.8954V17.5645" fill="#003399"/>
<path fill-rule="evenodd" clip-rule="evenodd" d="M107.736 12.0183L109.54 12.3437C109.663 11.9946 109.823 11.7508 110.021 11.6115C110.219 11.4722 110.495 11.4026 110.849 11.4026C111.373 11.4026 111.729 11.484 111.917 11.6469C112.106 11.8094 112.2 12.0818 112.2 12.4641V12.662C111.842 12.8129 111.198 12.9758 110.269 13.1502C109.58 13.2823 109.053 13.4366 108.688 13.6136C108.322 13.7903 108.038 14.0451 107.835 14.3777C107.633 14.71 107.531 15.0885 107.531 15.5131C107.531 16.1544 107.754 16.6849 108.2 17.1049C108.645 17.5246 109.255 17.7343 110.029 17.7343C110.467 17.7343 110.88 17.6519 111.267 17.4867C111.653 17.3218 112.017 17.0741 112.356 16.744C112.37 16.7819 112.394 16.8597 112.427 16.9774C112.502 17.2368 112.566 17.4328 112.618 17.5645H114.584C114.41 17.2063 114.291 16.8702 114.227 16.5565C114.164 16.2429 114.132 15.7559 114.132 15.0956L114.153 12.7752C114.153 11.9119 114.064 11.319 113.888 10.996C113.711 10.6731 113.405 10.4065 112.971 10.1965C112.537 9.98674 111.877 9.88176 110.991 9.88176C110.014 9.88176 109.279 10.0563 108.783 10.4051C108.288 10.7544 107.939 11.2921 107.736 12.0183ZM110.991 14.2607C111.542 14.143 111.945 14.0415 112.2 13.9566V14.3529C112.2 14.8293 112.174 15.1523 112.122 15.3221C112.047 15.5813 111.889 15.8009 111.649 15.9799C111.323 16.2159 110.981 16.3336 110.623 16.3336C110.302 16.3336 110.038 16.2322 109.83 16.0296C109.623 15.8268 109.519 15.5862 109.519 15.3076C109.519 15.0248 109.649 14.7914 109.908 14.6075C110.078 14.4943 110.439 14.3788 110.991 14.2607Z" fill="#003399"/>
<path d="M122.947 17.5645H120.959V13.7304C120.959 12.9193 120.916 12.3943 120.831 12.1563C120.747 11.918 120.609 11.733 120.418 11.6008C120.227 11.4688 119.997 11.4026 119.728 11.4026C119.384 11.4026 119.075 11.4971 118.801 11.6855C118.528 11.8743 118.34 12.1244 118.239 12.4358C118.137 12.747 118.086 13.3223 118.086 14.1619V17.5645H116.098V10.0516H117.945V11.1552C118.6 10.3062 119.426 9.88178 120.421 9.88178C120.86 9.88178 121.26 9.96068 121.624 10.1187C121.987 10.2768 122.262 10.4783 122.448 10.7235C122.634 10.9689 122.764 11.2473 122.837 11.5584C122.91 11.8698 122.947 12.3154 122.947 12.8954V17.5645" fill="#003399"/>
<path d="M131.514 12.2728L129.554 12.6266C129.488 12.2354 129.338 11.9403 129.105 11.7421C128.872 11.5442 128.568 11.4452 128.196 11.4452C127.701 11.4452 127.306 11.6162 127.011 11.9581C126.716 12.3002 126.569 12.872 126.569 13.6738C126.569 14.5649 126.719 15.1946 127.018 15.5624C127.317 15.9302 127.719 16.1145 128.224 16.1145C128.601 16.1145 128.91 16.0071 129.151 15.7924C129.391 15.578 129.561 15.2089 129.66 14.6853L131.613 15.0178C131.41 15.9139 131.021 16.5906 130.445 17.0483C129.87 17.5056 129.099 17.7343 128.132 17.7343C127.033 17.7343 126.157 17.388 125.504 16.6943C124.851 16.0013 124.524 15.0415 124.524 13.8151C124.524 12.5749 124.852 11.6092 125.507 10.918C126.163 10.2273 127.05 9.88176 128.168 9.88176C129.082 9.88176 129.81 10.0788 130.35 10.4724C130.89 10.8663 131.278 11.4664 131.514 12.2728" fill="#003399"/>
<path fill-rule="evenodd" clip-rule="evenodd" d="M133.021 10.0516V17.5645H135.008V10.0516H133.021ZM133.021 7.19337V9.03275H135.008V7.19337H133.021Z" fill="#003399"/>
<path fill-rule="evenodd" clip-rule="evenodd" d="M136.728 12.0183L138.532 12.3437C138.654 11.9946 138.814 11.7508 139.013 11.6115C139.211 11.4722 139.487 11.4026 139.84 11.4026C140.364 11.4026 140.72 11.484 140.909 11.6469C141.097 11.8094 141.191 12.0818 141.191 12.4641V12.662C140.833 12.8129 140.189 12.9758 139.26 13.1502C138.572 13.2823 138.045 13.4366 137.679 13.6136C137.314 13.7903 137.029 14.0451 136.827 14.3777C136.624 14.71 136.522 15.0885 136.522 15.5131C136.522 16.1544 136.745 16.6849 137.191 17.1049C137.637 17.5246 138.246 17.7343 139.02 17.7343C139.458 17.7343 139.871 17.6519 140.258 17.4867C140.644 17.3218 141.008 17.0741 141.347 16.744C141.361 16.7819 141.385 16.8597 141.418 16.9774C141.493 17.2368 141.557 17.4328 141.609 17.5645H143.576C143.401 17.2063 143.282 16.8702 143.219 16.5565C143.155 16.2429 143.123 15.7559 143.123 15.0956L143.144 12.7752C143.144 11.9119 143.056 11.319 142.879 10.996C142.702 10.6731 142.397 10.4065 141.963 10.1965C141.529 9.98674 140.868 9.88176 139.982 9.88176C139.006 9.88176 138.27 10.0563 137.775 10.4051C137.28 10.7544 136.93 11.2921 136.728 12.0183ZM139.982 14.2607C140.534 14.143 140.937 14.0415 141.191 13.9566V14.3529C141.191 14.8293 141.166 15.1523 141.114 15.3221C141.038 15.5813 140.88 15.8009 140.64 15.9799C140.314 16.2159 139.972 16.3336 139.614 16.3336C139.293 16.3336 139.029 16.2322 138.822 16.0296C138.614 15.8268 138.51 15.5862 138.51 15.3076C138.51 15.0248 138.64 14.7914 138.899 14.6075C139.069 14.4943 139.43 14.3788 139.982 14.2607Z" fill="#003399"/>
<path fill-rule="evenodd" clip-rule="evenodd" d="M150.148 17.5645H151.994V7.19335L150.006 7.19335V10.9287C149.393 10.2308 148.667 9.88176 147.827 9.88176C146.912 9.88176 146.155 10.213 145.556 10.8757C144.958 11.5384 144.658 12.5062 144.658 13.7796C144.658 15.0248 144.966 15.9955 145.581 16.6909C146.197 17.3866 146.936 17.7343 147.799 17.7343C148.223 17.7343 148.645 17.6296 149.062 17.4196C149.479 17.2099 149.841 16.8902 150.148 16.4609V17.5645ZM147.021 15.3856C146.799 15.0274 146.689 14.4472 146.689 13.6454C146.689 12.9003 146.848 12.3401 147.166 11.965C147.484 11.5903 147.879 11.4026 148.351 11.4026C148.836 11.4026 149.235 11.5927 149.547 11.9723C149.858 12.3519 150.013 12.9734 150.013 13.8362C150.013 14.6099 149.853 15.191 149.532 15.5802C149.212 15.9692 148.822 16.164 148.365 16.164C147.789 16.164 147.341 15.9045 147.021 15.3856Z" fill="#003399"/>
<path fill-rule="evenodd" clip-rule="evenodd" d="M153.982 11.7849C153.657 12.4025 153.494 13.0416 153.494 13.7021C153.494 14.5649 153.657 15.2974 153.982 15.8985C154.308 16.4999 154.783 16.9562 155.408 17.2676C156.033 17.5788 156.69 17.7343 157.378 17.7343C158.491 17.7343 159.414 17.3608 160.148 16.6132C160.881 15.8658 161.248 14.9236 161.248 13.7868C161.248 12.6598 160.885 11.7269 160.158 10.9889C159.432 10.2509 158.501 9.88176 157.364 9.88176C156.628 9.88176 155.962 10.0443 155.365 10.3699C154.769 10.6951 154.308 11.167 153.982 11.7849ZM156.062 15.5203C155.709 15.1239 155.532 14.5533 155.532 13.8079C155.532 13.0628 155.709 12.4924 156.062 12.0961C156.416 11.7 156.852 11.5018 157.371 11.5018C157.89 11.5018 158.325 11.7 158.676 12.0961C159.028 12.4924 159.203 13.0583 159.203 13.7939C159.203 14.5484 159.028 15.1239 158.676 15.5203C158.325 15.9164 157.89 16.1145 157.371 16.1145C156.852 16.1145 156.416 15.9164 156.062 15.5203Z" fill="#003399"/>
<path fill-rule="evenodd" clip-rule="evenodd" d="M168.627 10.0516H166.773V20.4228H168.761V16.6377C169.133 17.0387 169.489 17.3218 169.826 17.4867C170.163 17.6519 170.539 17.7343 170.954 17.7343C171.827 17.7343 172.57 17.3866 173.182 16.6909C173.796 15.9955 174.102 15.0203 174.102 13.7658C174.102 12.5441 173.798 11.5914 173.19 10.9076C172.581 10.2237 171.841 9.88176 170.968 9.88176C170.468 9.88176 170.013 9.99968 169.603 10.2355C169.193 10.4713 168.867 10.7778 168.627 11.1552V10.0516ZM169.242 15.5519C168.907 15.1487 168.74 14.525 168.74 13.6809C168.74 12.9451 168.9 12.3896 169.221 12.0147C169.542 11.6398 169.945 11.4523 170.431 11.4523C170.898 11.4523 171.289 11.6433 171.605 12.0252C171.921 12.4075 172.079 12.9921 172.079 13.7796C172.079 14.624 171.926 15.2314 171.619 15.6014C171.312 15.9716 170.928 16.1567 170.466 16.1567C169.985 16.1567 169.577 15.9552 169.242 15.5519Z" fill="#003399"/>
<path fill-rule="evenodd" clip-rule="evenodd" d="M175.708 11.7849C175.383 12.4025 175.22 13.0416 175.22 13.7021C175.22 14.5649 175.383 15.2974 175.708 15.8985C176.034 16.4999 176.509 16.9562 177.134 17.2676C177.759 17.5788 178.416 17.7343 179.104 17.7343C180.217 17.7343 181.14 17.3608 181.874 16.6132C182.607 15.8658 182.974 14.9236 182.974 13.7868C182.974 12.6598 182.611 11.7269 181.884 10.9889C181.158 10.2509 180.227 9.88176 179.09 9.88176C178.354 9.88176 177.688 10.0443 177.091 10.3699C176.495 10.6951 176.034 11.167 175.708 11.7849ZM177.788 15.5203C177.435 15.1239 177.258 14.5533 177.258 13.8079C177.258 13.0628 177.435 12.4924 177.788 12.0961C178.142 11.7 178.578 11.5018 179.097 11.5018C179.616 11.5018 180.051 11.7 180.402 12.0961C180.754 12.4924 180.929 13.0583 180.929 13.7939C180.929 14.5484 180.754 15.1239 180.402 15.5203C180.051 15.9164 179.616 16.1145 179.097 16.1145C178.578 16.1145 178.142 15.9164 177.788 15.5203Z" fill="#003399"/>
<path d="M184.445 17.5645V7.19334H186.433V17.5645H184.445" fill="#003399"/>
<path fill-rule="evenodd" clip-rule="evenodd" d="M188.152 12.018L189.956 12.3435C190.079 11.9946 190.239 11.7505 190.437 11.6112C190.635 11.4722 190.911 11.4026 191.265 11.4026C191.788 11.4026 192.144 11.4839 192.333 11.6467C192.522 11.8094 192.616 12.0816 192.616 12.4638V12.662C192.257 12.8129 191.614 12.9756 190.685 13.1499C189.996 13.2821 189.469 13.4366 189.103 13.6136C188.738 13.7901 188.454 14.0448 188.251 14.3775C188.048 14.7098 187.947 15.0885 187.947 15.5129C187.947 16.1544 188.17 16.6849 188.615 17.1049C189.061 17.5244 189.67 17.7343 190.444 17.7343C190.883 17.7343 191.295 17.6518 191.682 17.4867C192.069 17.3215 192.432 17.0741 192.772 16.7438C192.786 16.7816 192.809 16.8594 192.842 16.9771C192.918 17.2366 192.981 17.4325 193.033 17.5645H195C194.826 17.2063 194.706 16.8701 194.643 16.5565C194.579 16.2427 194.547 15.7559 194.547 15.0956L194.569 12.7753C194.569 11.9119 194.48 11.319 194.303 10.9958C194.126 10.6728 193.821 10.4064 193.387 10.1962C192.953 9.98646 192.293 9.88154 191.406 9.88154C190.43 9.88154 189.694 10.0563 189.199 10.4051C188.704 10.7542 188.355 11.2918 188.152 12.018ZM191.406 14.2606C191.958 14.143 192.361 14.0413 192.616 13.9566V14.3527C192.616 14.8293 192.59 15.1522 192.538 15.3221C192.463 15.5813 192.304 15.8006 192.064 15.9799C191.739 16.2157 191.397 16.3336 191.038 16.3336C190.717 16.3336 190.454 16.2322 190.246 16.0294C190.038 15.8265 189.935 15.586 189.935 15.3076C189.935 15.0247 190.065 14.7914 190.324 14.6075C190.493 14.4942 190.855 14.3786 191.406 14.2606Z" fill="#003399"/>
<path d="M71.0411 24.5797H73.1353V30.1968C73.1353 31.0881 73.1609 31.6659 73.2129 31.9298C73.3025 32.3545 73.516 32.6953 73.853 32.9523C74.1903 33.2095 74.6515 33.3379 75.2364 33.3379C75.8306 33.3379 76.2784 33.2164 76.5805 32.9735C76.882 32.7307 77.0639 32.4322 77.1252 32.0786C77.1865 31.7248 77.2171 31.1377 77.2171 30.3169V24.5797H79.3112V30.0269C79.3112 31.272 79.2546 32.1519 79.1414 32.6657C79.0281 33.1799 78.8195 33.6139 78.5152 33.9674C78.211 34.3213 77.8044 34.6031 77.2951 34.8128C76.7857 35.0226 76.1204 35.1276 75.2999 35.1276C74.3093 35.1276 73.5584 35.0133 73.0466 34.7845C72.5348 34.5561 72.1305 34.2589 71.8336 33.8931C71.5362 33.5276 71.3405 33.1446 71.2462 32.7437C71.1093 32.1494 71.0411 31.272 71.0411 30.1119V24.5797" fill="#003399"/>
<path d="M88.3382 34.9508H86.3504V31.1165C86.3504 30.3053 86.3078 29.7806 86.2231 29.5423C86.1381 29.3043 86.0002 29.119 85.8091 28.9868C85.6181 28.8549 85.3881 28.7889 85.1193 28.7889C84.7749 28.7889 84.4662 28.8832 84.1927 29.0718C83.9192 29.2606 83.7315 29.5106 83.6303 29.8218C83.5289 30.1332 83.478 30.7085 83.478 31.548V34.9508H81.49V27.4377H83.3365V28.5413C83.9921 27.6924 84.8175 27.2678 85.8127 27.2678C86.2514 27.2678 86.6519 27.3469 87.0153 27.5049C87.3784 27.6631 87.6532 27.8646 87.8396 28.1097C88.0257 28.3549 88.1554 28.6333 88.2287 28.9448C88.3016 29.2559 88.3382 29.7015 88.3382 30.2816V34.9508" fill="#003399"/>
<path fill-rule="evenodd" clip-rule="evenodd" d="M90.3549 27.4377V34.9508H92.3427V27.4377H90.3549ZM90.3549 24.5796V26.419H92.3427V24.5796H90.3549Z" fill="#003399"/>
<path fill-rule="evenodd" clip-rule="evenodd" d="M94.4083 29.171C94.0827 29.7888 93.9202 30.4279 93.9202 31.0881C93.9202 31.9512 94.0827 32.6834 94.4083 33.2848C94.7335 33.8862 95.2088 34.3425 95.8338 34.6536C96.4586 34.9651 97.1155 35.1206 97.8042 35.1206C98.9172 35.1206 99.8402 34.7468 100.574 33.9995C101.307 33.2518 101.674 32.3096 101.674 31.1731C101.674 30.0459 101.31 29.1132 100.584 28.375C99.8578 27.6372 98.9265 27.2679 97.7897 27.2679C97.0539 27.2679 96.3879 27.4305 95.7912 27.7563C95.1947 28.0815 94.7335 28.5531 94.4083 29.171ZM95.9575 31.1942C95.9575 31.9394 96.1345 32.5102 96.488 32.9063C96.842 33.3027 97.2779 33.5006 97.7969 33.5006C98.3158 33.5006 98.7509 33.3027 99.1022 32.9063C99.4535 32.5102 99.6291 31.9347 99.6291 31.1802C99.6291 30.4444 99.4535 29.8784 99.1022 29.4823C98.7509 29.0863 98.3158 28.8881 97.7969 28.8881C97.2779 28.8881 96.842 29.0863 96.488 29.4823C96.1345 29.8784 95.9575 30.4491 95.9575 31.1942ZM96.7925 26.518L97.7686 24.4026H99.9971L98.0516 26.518H96.7925Z" fill="#003399"/>
<path d="M110.064 34.9508H108.076V31.1165C108.076 30.3053 108.034 29.7806 107.949 29.5423C107.864 29.3043 107.726 29.119 107.535 28.9868C107.344 28.8549 107.114 28.7889 106.845 28.7889C106.501 28.7889 106.192 28.8832 105.919 29.0718C105.645 29.2606 105.457 29.5106 105.356 29.8218C105.255 30.1332 105.204 30.7085 105.204 31.548V34.9508H103.216V27.4377H105.062V28.5413C105.718 27.6924 106.543 27.2678 107.538 27.2678C107.977 27.2678 108.378 27.3469 108.741 27.5049C109.104 27.6631 109.379 27.8646 109.565 28.1097C109.752 28.3549 109.881 28.6333 109.954 28.9448C110.028 29.2559 110.064 29.7015 110.064 30.2816V34.9508" fill="#003399"/>
<path d="M116.12 34.9508V24.5796H123.81V26.3341H118.214V28.6333H123.421V30.3806H118.214V33.2032H124.008V34.9508H116.12" fill="#003399"/>
<path d="M130.714 34.9508V33.8258C130.441 34.2268 130.081 34.5429 129.636 34.7741C129.19 35.005 128.719 35.1206 128.224 35.1206C127.72 35.1206 127.267 35.0099 126.866 34.7881C126.465 34.5665 126.175 34.2551 125.996 33.8542C125.816 33.4534 125.727 32.8992 125.727 32.1917V27.4377H127.715V30.89C127.715 31.9468 127.751 32.5938 127.825 32.8319C127.897 33.0704 128.031 33.2588 128.224 33.3978C128.417 33.5371 128.663 33.6067 128.96 33.6067C129.299 33.6067 129.604 33.5136 129.873 33.3272C130.141 33.1411 130.325 32.9099 130.424 32.634C130.524 32.358 130.573 31.6824 130.573 30.6071V27.4377H132.561V34.9508H130.714" fill="#003399"/>
<path d="M136.523 34.9508H134.535V27.4377H136.381V28.5058C136.697 28.0012 136.981 27.6688 137.234 27.5083C137.486 27.3483 137.772 27.2678 138.093 27.2678C138.546 27.2678 138.982 27.3929 139.402 27.643L138.787 29.376C138.452 29.1594 138.14 29.0506 137.853 29.0506C137.574 29.0506 137.339 29.1272 137.145 29.2806C136.952 29.434 136.8 29.7111 136.689 30.1118C136.578 30.5128 136.523 31.3525 136.523 32.6304V34.9508" fill="#003399"/>
<path fill-rule="evenodd" clip-rule="evenodd" d="M140.286 29.171C139.961 29.7888 139.798 30.4279 139.798 31.0881C139.798 31.9512 139.961 32.6834 140.286 33.2848C140.611 33.8862 141.087 34.3425 141.712 34.6536C142.337 34.9651 142.993 35.1206 143.682 35.1206C144.795 35.1206 145.718 34.7468 146.452 33.9995C147.185 33.2518 147.552 32.3096 147.552 31.1731C147.552 30.0459 147.188 29.1132 146.462 28.375C145.736 27.6372 144.804 27.2679 143.668 27.2679C142.932 27.2679 142.266 27.4305 141.669 27.7563C141.073 28.0815 140.611 28.5531 140.286 29.171ZM142.366 32.9063C142.013 32.5102 141.836 31.9394 141.836 31.1942C141.836 30.4491 142.013 29.8784 142.366 29.4823C142.72 29.0863 143.156 28.8881 143.675 28.8881C144.194 28.8881 144.629 29.0863 144.98 29.4823C145.331 29.8784 145.507 30.4444 145.507 31.1802C145.507 31.9347 145.331 32.5102 144.98 32.9063C144.629 33.3027 144.194 33.5006 143.675 33.5006C143.156 33.5006 142.72 33.3027 142.366 32.9063Z" fill="#003399"/>
<path fill-rule="evenodd" clip-rule="evenodd" d="M150.905 27.4377H149.052V37.8088H151.04V34.024C151.412 34.425 151.767 34.7078 152.104 34.873C152.442 35.0382 152.818 35.1206 153.233 35.1206C154.105 35.1206 154.848 34.7727 155.461 34.0771C156.074 33.3816 156.381 32.4064 156.381 31.1519C156.381 29.9304 156.077 28.9775 155.468 28.2938C154.86 27.61 154.119 27.2679 153.247 27.2679C152.747 27.2679 152.292 27.3859 151.882 27.6216C151.471 27.8576 151.146 28.1641 150.905 28.5413V27.4377ZM151.521 32.9382C151.186 32.5348 151.018 31.9111 151.018 31.0669C151.018 30.3314 151.179 29.7757 151.499 29.401C151.82 29.0258 152.223 28.8384 152.709 28.8384C153.176 28.8384 153.568 29.0297 153.883 29.4115C154.199 29.7935 154.357 30.3782 154.357 31.1659C154.357 32.0103 154.204 32.6175 153.898 32.9877C153.591 33.3579 153.207 33.543 152.744 33.543C152.263 33.543 151.856 33.3412 151.521 32.9382Z" fill="#003399"/>
<path fill-rule="evenodd" clip-rule="evenodd" d="M164.29 32.8921L162.309 32.5598C162.201 32.9371 162.04 33.2106 161.828 33.3802C161.616 33.5501 161.354 33.635 161.043 33.635C160.586 33.635 160.204 33.471 159.897 33.1433C159.59 32.8156 159.43 32.3569 159.416 31.7673H164.396C164.425 30.244 164.116 29.1132 163.47 28.375C162.823 27.6372 161.942 27.2679 160.824 27.2679C159.828 27.2679 159.006 27.6205 158.355 28.3255C157.704 29.0308 157.378 30.0057 157.378 31.2508C157.378 32.2932 157.626 33.1562 158.121 33.8403C158.748 34.6938 159.715 35.1206 161.022 35.1206C161.847 35.1206 162.534 34.9307 163.084 34.5512C163.634 34.1715 164.035 33.6186 164.29 32.8921ZM161.977 29.238C162.26 29.5376 162.409 29.9752 162.423 30.5505H159.451C159.447 30.0082 159.586 29.5791 159.869 29.263C160.152 28.9472 160.51 28.7889 160.944 28.7889C161.35 28.7889 161.694 28.9387 161.977 29.238Z" fill="#003399"/>
<path fill-rule="evenodd" clip-rule="evenodd" d="M165.698 29.4043L167.502 29.7298C167.625 29.3809 167.785 29.1368 167.983 28.9975C168.181 28.8585 168.457 28.7889 168.811 28.7889C169.334 28.7889 169.69 28.8702 169.879 29.033C170.068 29.1957 170.162 29.4679 170.162 29.8501V30.0483C169.803 30.1992 169.16 30.3619 168.231 30.5362C167.542 30.6684 167.015 30.8229 166.649 30.9999C166.284 31.1764 166 31.4312 165.797 31.7638C165.594 32.0961 165.493 32.4748 165.493 32.8992C165.493 33.5407 165.716 34.0712 166.162 34.4912C166.607 34.9107 167.216 35.1206 167.99 35.1206C168.429 35.1206 168.841 35.0382 169.228 34.873C169.615 34.7078 169.978 34.4604 170.318 34.1301C170.332 34.168 170.355 34.2457 170.388 34.3635C170.464 34.6229 170.527 34.8188 170.579 34.9508H172.546C172.372 34.5926 172.253 34.2564 172.189 33.9428C172.125 33.629 172.093 33.1422 172.093 32.4819L172.115 30.1616C172.115 29.2983 172.026 28.7053 171.849 28.3821C171.672 28.0592 171.367 27.7927 170.933 27.5826C170.499 27.3728 169.839 27.2679 168.952 27.2679C167.976 27.2679 167.24 27.4426 166.745 27.7914C166.25 28.1405 165.901 28.6782 165.698 29.4043ZM168.952 31.6469C169.504 31.5293 169.907 31.4276 170.162 31.343V31.739C170.162 32.2156 170.136 32.5385 170.084 32.7084C170.009 32.9676 169.851 33.1869 169.61 33.3662C169.285 33.602 168.943 33.7199 168.584 33.7199C168.263 33.7199 168 33.6186 167.792 33.4157C167.584 33.2128 167.481 32.9723 167.481 32.6939C167.481 32.4111 167.61 32.1777 167.87 31.9938C168.039 31.8805 168.4 31.7649 168.952 31.6469Z" fill="#003399"/>
<path d="M30.2604 9.18241L31.5945 8.209L32.9283 9.18241L32.4208 7.60806L33.7758 6.63465H32.1056L31.5945 5.04135L31.0834 6.63643L29.4143 6.63464L30.7682 7.60805L30.2604 9.1824" fill="#FFCC00"/>
<path d="M23.3576 11.0369L24.6912 10.0635L26.0244 11.0369L25.5175 9.46259L26.8717 8.48896H25.2015L24.6906 6.8941L24.1795 8.49097L22.5104 8.48896L23.864 9.46259L23.3576 11.0369" fill="#FFCC00"/>
<path d="M19.6406 11.9564L19.1295 13.5533L17.4603 13.5513L18.8143 14.5249L18.3066 16.0993L19.6406 15.1256L20.9742 16.0993L20.4669 14.5249L21.8205 13.5513H20.1517L19.6406 11.9564" fill="#FFCC00"/>
<path d="M17.7877 22.0202L19.1209 22.9933L18.614 21.4195L19.968 20.4458H18.2988L17.7877 18.8507L17.2766 20.4494L15.6066 20.4458L16.9614 21.4195L16.4539 22.9933L17.7877 22.0202" fill="#FFCC00"/>
<path d="M20.1517 27.3609L19.6406 25.7658L19.1295 27.3627L17.4603 27.3609L18.8143 28.3341L18.3066 29.9087L19.6406 28.9335L20.9742 29.9087L20.4669 28.3341L21.8205 27.3609H20.1517" fill="#FFCC00"/>
<path d="M25.2122 32.4212L24.7008 30.8281L24.1909 32.4232L22.5209 32.4212L23.8748 33.3948L23.3681 34.9692L24.702 33.9958L26.0347 34.9692L25.5283 33.3948L26.8819 32.4212H25.2122" fill="#FFCC00"/>
<path d="M32.1066 34.2552L31.5955 32.6602L31.0852 34.257L29.415 34.2552L30.7692 35.2286L30.2623 36.803L31.5964 35.8294L32.9291 36.803L32.4217 35.2286L33.7765 34.2552H32.1066" fill="#FFCC00"/>
<path d="M39.0006 32.4212L38.4904 30.8281L37.9784 32.4232L36.3102 32.4212L37.6632 33.3948L37.1568 34.9692L38.4904 33.9958L39.8245 34.9692L39.3158 33.3948L40.6708 32.4212H39.0006" fill="#FFCC00"/>
<path d="M44.0629 27.3609L43.5509 25.7658L43.0391 27.3627L41.3707 27.3609L42.7255 28.3341L42.2171 29.9087L43.5509 28.9335L44.885 29.9087L44.3766 28.3341L45.7313 27.3609H44.0629" fill="#FFCC00"/>
<path d="M47.565 20.4267H45.895L45.383 18.8314L44.8728 20.4284L43.203 20.4267L44.5576 21.4001L44.0509 22.9742L45.383 21.999L46.717 22.9742L46.2102 21.4001L47.565 20.4267" fill="#FFCC00"/>
<path d="M42.2168 16.0781L43.5507 15.1049L44.885 16.0781L44.3765 14.5037L45.7313 13.5321H44.0627L43.5507 11.9373L43.0391 13.5341L41.3705 13.5321L42.7253 14.5037L42.2168 16.0781" fill="#FFCC00"/>
<path d="M38.5096 6.89588L37.9993 8.49274L36.3296 8.48895L37.6824 9.46414L37.176 11.0387L38.5114 10.0635L39.8436 11.0387L39.3368 9.46414L40.6915 8.48895H39.0198L38.5096 6.89587" fill="#FFCC00"/>
<path fill-rule="evenodd" clip-rule="evenodd" d="M0 42.1439V0H63.2153V42.1439H0ZM31.5945 5.04158L31.0834 6.63666L29.4145 6.63488L30.7682 7.60829L30.2609 9.18264L31.5945 8.20923L32.9286 9.18264L32.4208 7.60829L33.776 6.63488H32.1056L31.5945 5.04158ZM39.337 9.46439L39.8439 11.039L38.5118 10.0638L37.1762 11.039L37.6828 9.46439L36.3298 8.48919L37.9996 8.49299L38.51 6.89612L39.0202 8.4892H40.692L39.337 9.46439ZM43.5512 11.9375L43.0394 13.5343L41.371 13.5323L42.7257 14.504L42.2171 16.0785L43.5512 15.1051L44.885 16.0785L44.3768 14.504L45.7316 13.5323H44.0632L43.5512 11.9375ZM46.7172 22.9744L45.3832 21.9992L44.0511 22.9744L44.558 21.4003L43.2032 20.4269L44.8732 20.4287L45.3832 18.8316L45.8954 20.4269H47.5654L46.2106 21.4003L46.7172 22.9744ZM44.885 29.9089L43.5514 28.9337L42.2175 29.9089L42.726 28.3343L41.371 27.3611L43.0394 27.3629L43.5514 25.7661L44.0634 27.3611H45.7316L44.3768 28.3343L44.885 29.9089ZM38.4908 33.996L39.8247 34.9695L39.3162 33.395L40.671 32.4214H39.0011L38.4908 30.8284L37.9788 32.4234L36.3106 32.4214L37.6637 33.395L37.157 34.9695L38.4908 33.996ZM32.9292 36.8032L31.5965 35.8296L30.2627 36.8032L30.7693 35.2288L29.4154 34.2555L31.0854 34.2572L31.5954 32.6604L32.1067 34.2555H33.7765L32.4217 35.2288L32.9292 36.8032ZM26.0351 34.9695L24.702 33.996L23.3683 34.9695L23.8748 33.395L22.5209 32.4214L24.1908 32.4234L24.7011 30.8284L25.2122 32.4214H26.8824L25.5283 33.395L26.0351 34.9695ZM24.6908 6.89433L24.1797 8.4912L22.5104 8.48919L23.8643 9.46283L23.3579 11.0372L24.6915 10.0638L26.0249 11.0372L25.5178 9.46283L26.8721 8.48919H25.2017L24.6908 6.89433ZM20.4668 14.5251L20.9746 16.0995L19.6405 15.1259L18.3069 16.0995L18.8143 14.5251L17.4606 13.5515L19.1295 13.5535L19.6405 11.9566L20.1517 13.5515H21.8207L20.4668 14.5251ZM19.6405 28.9337L20.9746 29.9089L20.4668 28.3343L21.8207 27.3611H20.1517L19.6405 25.7661L19.1295 27.3629L17.4606 27.3611L18.8143 28.3343L18.3069 29.9089L19.6405 28.9337ZM15.6068 20.4461L17.2768 20.4496L17.788 18.851L18.2991 20.4461H19.9682L18.6143 21.4197L19.1212 22.9935L17.788 22.0202L16.4542 22.9935L16.9617 21.4197L15.6068 20.4461Z" fill="#003399"/>
</svg>
