<svg width="24" height="24" viewBox="0 0 24 24" fill="none" xmlns="http://www.w3.org/2000/svg">
<circle cx="12" cy="12" r="8.25" stroke="white" stroke-width="1.5"/>
<path d="M12.0101 9.36C11.7141 9.36 11.4661 9.268 11.2661 9.084C11.0741 8.892 10.9781 8.656 10.9781 8.376C10.9781 8.096 11.0741 7.864 11.2661 7.68C11.4661 7.488 11.7141 7.392 12.0101 7.392C12.3061 7.392 12.5501 7.488 12.7421 7.68C12.9421 7.864 13.0421 8.096 13.0421 8.376C13.0421 8.656 12.9421 8.892 12.7421 9.084C12.5501 9.268 12.3061 9.36 12.0101 9.36ZM12.8381 10.152V16.8H11.1581V10.152H12.8381Z" fill="white"/>
</svg>
