<?xml version="1.0" encoding="UTF-8"?>
<svg width="56px" height="56px" viewBox="0 0 56 56" version="1.1" xmlns="http://www.w3.org/2000/svg" xmlns:xlink="http://www.w3.org/1999/xlink">
    <title>Frame 5718</title>
    <g id="Símbolos" stroke="none" stroke-width="1" fill="none" fill-rule="evenodd">
        <g id="Property-1=Home-Copia" transform="translate(-192, -22)" fill-rule="nonzero">
            <g id="Frame-5718" transform="translate(192, 22)">
                <rect id="Rectangle" fill="#5A38FD" x="0" y="0" width="56" height="56" rx="28"></rect>
                <g id="Icons_7" transform="translate(16.333, 17.2753)" fill="#FEFEFE">
                    <path d="M2.334,22.39175 C1.045,22.39175 0,21.34675 0,20.05775 L0,9.33375 C0,7.77275 0.78,6.31575 2.078,5.45075 L9.078,0.78375 C10.646,-0.26125 12.688,-0.26125 14.256,0.78375 L21.256,5.45075 C22.554,6.31575 23.334,7.77275 23.334,9.33375 L23.334,20.05775 C23.334,21.34675 22.289,22.39175 21,22.39175 L16.917,22.39175 C15.628,22.39175 14.584,21.34675 14.584,20.05775 L14.584,15.65075 C14.584,14.36175 13.539,13.31775 12.25,13.31775 L11.084,13.31775 C9.795,13.31775 8.75,14.36175 8.75,15.65075 L8.75,20.05775 C8.75,21.34675 7.706,22.39175 6.417,22.39175 L2.334,22.39175 Z" id="home"></path>
                </g>
            </g>
        </g>
    </g>
</svg>