<svg width="56" height="56" viewBox="0 0 56 56" fill="none" xmlns="http://www.w3.org/2000/svg">
<g id="Frame 5718">
<rect id="Rectangle" width="56" height="56" rx="28" fill="#28E98C"/>
<g id="Icons_7">
<path id="home" d="M18.667 39.6671C17.378 39.6671 16.333 38.6221 16.333 37.3331V26.6091C16.333 25.0481 17.113 23.5911 18.411 22.7261L25.411 18.0591C26.979 17.0141 29.021 17.0141 30.589 18.0591L37.589 22.7261C38.887 23.5911 39.667 25.0481 39.667 26.6091V37.3331C39.667 38.6221 38.622 39.6671 37.333 39.6671H33.25C31.961 39.6671 30.917 38.6221 30.917 37.3331V32.9261C30.917 31.6371 29.872 30.5931 28.583 30.5931H27.417C26.128 30.5931 25.083 31.6371 25.083 32.9261V37.3331C25.083 38.6221 24.039 39.6671 22.75 39.6671H18.667Z" fill="#FEFEFE"/>
</g>
</g>
</svg>
