<?xml version="1.0" encoding="UTF-8"?>
<svg width="22px" height="22px" viewBox="0 0 22 22" version="1.1" xmlns="http://www.w3.org/2000/svg" xmlns:xlink="http://www.w3.org/1999/xlink">
    <title>Icons</title>
    <g id="Main-Design" stroke="none" stroke-width="1" fill="none" fill-rule="evenodd">
        <g id="Inicio" transform="translate(-378, -87)" fill="#FEFEFE" fill-rule="nonzero">
            <g id="Frame-5969" transform="translate(35.293, 81.42)">
                <g id="Icons_2" transform="translate(343.207, 6.08)">
                    <path d="M19.367,21 L12.017,13.65 C11.433,14.117 10.762,14.486 10.004,14.758 C9.246,15.031 8.439,15.167 7.583,15.167 C5.464,15.167 3.67,14.433 2.202,12.965 C0.734,11.4965 0,9.7028 0,7.5833 C0,5.4639 0.734,3.6701 2.202,2.2021 C3.67,0.734 5.464,0 7.583,0 C9.703,0 11.497,0.734 12.965,2.2021 C14.433,3.6701 15.167,5.4639 15.167,7.5833 C15.167,8.4389 15.031,9.2458 14.758,10.0042 C14.486,10.7625 14.117,11.4333 13.65,12.0167 L21,19.367 L19.367,21 Z M7.583,12.833 C9.042,12.833 10.281,12.3229 11.302,11.3021 C12.323,10.2812 12.833,9.0417 12.833,7.5833 C12.833,6.125 12.323,4.8854 11.302,3.8646 C10.281,2.8438 9.042,2.3333 7.583,2.3333 C6.125,2.3333 4.885,2.8438 3.865,3.8646 C2.844,4.8854 2.333,6.125 2.333,7.5833 C2.333,9.0417 2.844,10.2812 3.865,11.3021 C4.885,12.3229 6.125,12.833 7.583,12.833 Z" id="search_off"></path>
                </g>
            </g>
        </g>
    </g>
</svg>