<svg width="16" height="17" viewBox="0 0 16 17" fill="none" xmlns="http://www.w3.org/2000/svg">
<g id="Icons_7">
<g id="Clipped">
<mask id="mask0_1_117" style="mask-type:luminance" maskUnits="userSpaceOnUse" x="0" y="0" width="16" height="17">
<rect id="Bounding box" y="0.799805" width="16" height="16" fill="white"/>
</mask>
<g mask="url(#mask0_1_117)">
<path id="star" d="M5.23205 13.9857C4.72805 14.2907 4.10605 13.8387 4.23805 13.2647L4.87605 10.5077C4.93205 10.2667 4.85005 10.0157 4.66305 9.8537L2.52305 7.9987C2.07805 7.6127 2.31605 6.8817 2.90205 6.8307L5.73305 6.5847C5.97905 6.5637 6.19305 6.4077 6.29005 6.1797L7.38605 3.5857C7.61505 3.0437 8.38505 3.0437 8.61405 3.5857L9.71005 6.1797C9.80605 6.4077 10.0211 6.5637 10.2671 6.5847L13.0981 6.8307C13.6841 6.8817 13.9221 7.6127 13.4771 7.9987L11.3371 9.8537C11.1501 10.0157 11.0681 10.2667 11.1241 10.5077L11.7621 13.2647C11.8941 13.8387 11.2721 14.2907 10.7681 13.9857L8.00005 12.3167L5.23205 13.9857Z" fill="#F4B108"/>
</g>
</g>
</g>
</svg>
