<?xml version="1.0" encoding="UTF-8"?>
<svg width="69px" height="22px" viewBox="0 0 69 22" version="1.1" xmlns="http://www.w3.org/2000/svg" xmlns:xlink="http://www.w3.org/1999/xlink">
    <title>Odoo_logo</title>
    <defs>
        <filter id="filter-1">
            <feColorMatrix in="SourceGraphic" type="matrix" values="0 0 0 0 1.000000 0 0 0 0 1.000000 0 0 0 0 1.000000 0 0 0 1.000000 0"></feColorMatrix>
        </filter>
    </defs>
    <g id="Page-1" stroke="none" stroke-width="1" fill="none" fill-rule="evenodd">
        <g id="Odoo_logo" transform="translate(-49.000000, -19.000000)" filter="url(#filter-1)">
            <g transform="translate(49.000000, 19.000000)">
                <path d="M60.6486486,5.35135135 C56.0495744,5.35135135 52.3243243,9.07660146 52.3243243,13.6756757 C52.3243243,18.2747499 56.0495744,22 60.6486486,22 C65.2477229,22 68.972973,18.2747499 68.972973,13.6756757 C68.972973,9.07660146 65.2477229,5.35135135 60.6486486,5.35135135 Z M60.6486486,18.5851874 C57.9351949,18.5851874 55.7391369,16.3891295 55.7391369,13.6756757 C55.7391369,10.9622219 57.9351949,8.76616395 60.6486486,8.76616395 C63.3621024,8.76616395 65.5581604,10.9622219 65.5581604,13.6756757 C65.5581604,16.3891295 63.3621024,18.5851874 60.6486486,18.5851874 Z" id="Shape" fill="#888888" fill-rule="nonzero"></path>
                <path d="M42.8108108,5.35135135 C38.2117366,5.35135135 34.4864865,9.07660146 34.4864865,13.6756757 C34.4864865,18.2747499 38.2117366,22 42.8108108,22 C47.409885,22 51.1351351,18.2747499 51.1351351,13.6756757 C51.1351351,9.07660146 47.409885,5.35135135 42.8108108,5.35135135 Z M42.8108108,18.5851874 C40.097357,18.5851874 37.9012991,16.3891295 37.9012991,13.6756757 C37.9012991,10.9622219 40.097357,8.76616395 42.8108108,8.76616395 C45.5242646,8.76616395 47.7203225,10.9622219 47.7203225,13.6756757 C47.7203225,16.3891295 45.5242646,18.5851874 42.8108108,18.5851874 Z" id="Shape" fill="#888888" fill-rule="nonzero"></path>
                <path d="M32.2477229,0 C32.2477229,0 32.2477229,0 32.2362252,0 C31.327908,0 30.5920561,0.749475891 30.5920561,1.66037736 L30.5920561,6.98742138 C29.1893385,5.93815514 27.453188,5.30398323 25.5675676,5.30398323 C20.9684934,5.30398323 17.2432432,9.03983229 17.2432432,13.6519916 C17.2432432,18.2641509 20.9684934,22 25.5675676,22 C30.1666418,22 33.8918919,18.2641509 33.8918919,13.6519916 L33.8918919,13.5828092 C33.8918919,13.5597484 33.8918919,13.5251572 33.8918919,13.5020964 L33.8918919,1.66037736 C33.8918919,0.749475891 33.1445423,0 32.2362252,0 L32.2477229,0 Z M25.5675676,18.5754717 C22.8541138,18.5754717 20.6580558,16.3731656 20.6580558,13.6519916 C20.6580558,10.9308176 22.8541138,8.72851153 25.5675676,8.72851153 C28.2810214,8.72851153 30.4770793,10.9308176 30.4770793,13.6519916 C30.4770793,16.3731656 28.2810214,18.5754717 25.5675676,18.5754717 Z" id="Shape" fill="#888888" fill-rule="nonzero"></path>
                <path d="M8.32432432,5.35135135 C3.72525011,5.35135135 0,9.07660146 0,13.6756757 C0,18.2747499 3.72525011,22 8.32432432,22 C12.9233985,22 16.6486486,18.2747499 16.6486486,13.6756757 C16.6486486,9.07660146 12.9233985,5.35135135 8.32432432,5.35135135 Z M8.24384053,18.6196805 C5.53038674,18.6196805 3.3343288,16.4236225 3.3343288,13.7101687 C3.3343288,10.9967149 5.53038674,8.80065701 8.24384053,8.80065701 C10.9572943,8.80065701 13.1533522,10.9967149 13.1533522,13.7101687 C13.1533522,16.4236225 10.9572943,18.6196805 8.24384053,18.6196805 Z" id="Shape" fill="#9C5789" fill-rule="nonzero"></path>
            </g>
        </g>
    </g>
</svg>