<?xml version="1.0" encoding="UTF-8"?>
<svg width="36px" height="36px" viewBox="0 0 36 36" version="1.1" xmlns="http://www.w3.org/2000/svg" xmlns:xlink="http://www.w3.org/1999/xlink">
    <title>facebook</title>
    <g id="Page-1" stroke="none" stroke-width="1" fill="none" fill-rule="evenodd">
        <g id="Desktop_Zerg" transform="translate(-910, -2517)" fill="#40AEFF" fill-rule="nonzero">
            <g id="Footer" transform="translate(0, 2155)">
                <g id="Creditos" transform="translate(718, 107)">
                    <g id="social" transform="translate(124, 200.6817)">
                        <g id="facebook" transform="translate(68, 54.3183)">
                            <path d="M36,18.11 C36,8.108 27.941,0 18,0 C8.059,0 0,8.108 0,18.11 C0,27.15 6.582,34.641 15.188,36 L15.188,23.345 L10.618,23.345 L10.618,18.11 L15.188,18.11 L15.188,14.12 C15.188,9.581 17.875,7.074 21.986,7.074 C23.956,7.074 26.016,7.428 26.016,7.428 L26.016,11.885 L23.746,11.885 C21.51,11.885 20.813,13.281 20.813,14.713 L20.813,18.11 L25.805,18.11 L25.007,23.345 L20.812,23.345 L20.812,36 C29.419,34.641 36,27.15 36,18.11" id="Trazado"></path>
                        </g>
                    </g>
                </g>
            </g>
        </g>
    </g>
</svg>