<?xml version="1.0" encoding="UTF-8"?>
<svg width="35px" height="40px" viewBox="0 0 35 40" version="1.1" xmlns="http://www.w3.org/2000/svg" xmlns:xlink="http://www.w3.org/1999/xlink">
    <title>twitch</title>
    <g id="Page-1" stroke="none" stroke-width="1" fill="none" fill-rule="evenodd">
        <g id="Desktop_Zerg" transform="translate(-1034, -2515)" fill="#40AEFF" fill-rule="nonzero">
            <g id="Footer" transform="translate(0, 2155)">
                <g id="Creditos" transform="translate(718, 107)">
                    <g id="social" transform="translate(124, 200.6817)">
                        <g id="twitch" transform="translate(192, 52.3183)">
                            <path d="M7.143,0 L0,7.143 L0,32.857 L8.571,32.857 L8.571,40 L15.714,32.857 L21.429,32.857 L34.286,20 L34.286,0 L7.143,0 Z M31.429,18.571 L25.714,24.286 L20,24.286 L15,29.286 L15,24.286 L8.571,24.286 L8.571,2.857 L31.43,2.857 L31.429,18.571 Z" id="Forma"></path>
                            <path d="M27.143,7.857 L24.286,7.857 L24.286,16.429 L27.143,16.429 L27.143,7.857 Z M19.286,7.857 L16.429,7.857 L16.429,16.429 L19.286,16.429 L19.286,7.857 Z" id="Forma"></path>
                        </g>
                    </g>
                </g>
            </g>
        </g>
    </g>
</svg>