<svg width="180" height="170" viewBox="0 0 180 170" fill="none" xmlns="http://www.w3.org/2000/svg">
<path fill-rule="evenodd" clip-rule="evenodd" d="M9.16177 0H151C167.016 0 180 12.9837 180 29V130.077C168.686 133.287 156.784 135 144.5 135C71.905 135 12.6439 75.1728 9.16177 0Z" fill="#F59B1A"/>
<g clip-path="url(#clip0_3_2)">
<path d="M55.2658 52.6271C56.7241 52.899 58.2069 53.0379 59.6935 53.0379C66.0804 53.0379 72.0838 50.546 76.5914 46.0236C82.1679 40.4279 84.6088 32.3741 83.1765 24.633C81.7203 24.36 80.2386 24.2222 78.752 24.2222C72.3624 24.2222 66.3596 26.7141 61.8493 31.2376C56.2733 36.8327 53.8319 44.886 55.2658 52.6271Z" fill="#96C222"/>
<path d="M23.2782 38.8485C22.8573 42.6393 24.1636 46.4796 26.8815 49.2074C29.255 51.5882 32.415 52.9006 35.7793 52.9006C36.2572 52.9006 36.7341 52.8728 37.2072 52.8205C37.6282 49.0282 36.3246 45.1878 33.6056 42.4617C30.8931 39.742 27.0878 38.4121 23.2782 38.8485Z" fill="#96C222"/>
<path d="M88.7682 21.2312C88.4808 20.1542 87.6422 19.3135 86.57 19.0253C84.0221 18.3449 81.3922 18 78.752 18C70.7064 18 63.1452 21.1381 57.4628 26.8378C49.894 34.4318 46.91 45.6166 49.6757 56.0289C49.9641 57.1043 50.8016 57.9455 51.876 58.2326C54.4228 58.9147 57.0549 59.2601 59.6935 59.2601C67.7381 59.2601 75.2981 56.1209 80.9784 50.4223C88.5471 42.8283 91.5322 31.644 88.7682 21.2312ZM76.5919 46.0236C72.0843 50.546 66.0809 53.0379 59.694 53.0379C58.2074 53.0379 56.7247 52.899 55.2663 52.6271C53.8324 44.886 56.2733 36.8322 61.8503 31.2376C66.3601 26.7136 72.3635 24.2222 78.7531 24.2222C80.2397 24.2222 81.7214 24.36 83.1776 24.633C84.6093 32.3741 82.1684 40.4279 76.5919 46.0236Z" fill="#52501B"/>
<path d="M37.9926 38.0618C34.4464 34.5037 29.727 32.5457 24.7056 32.5457C23.0598 32.5457 21.4201 32.7603 19.8314 33.1858C18.7576 33.4729 17.9195 34.3125 17.6333 35.3907C15.9061 41.888 17.7702 48.8685 22.4955 53.6072C26.0417 57.1626 30.7573 59.1228 35.7793 59.1228C37.4272 59.1228 39.0659 58.9071 40.6557 58.481C41.73 58.1939 42.5675 57.3527 42.8549 56.2762C44.5783 49.7783 42.7164 42.7983 37.9926 38.0618ZM37.2072 52.82C36.7336 52.8723 36.2567 52.9001 35.7793 52.9001C32.4145 52.9001 29.255 51.5877 26.8815 49.2069C24.1635 46.4796 22.8573 42.6393 23.2782 38.848C27.0884 38.4116 30.8937 39.7415 33.6056 42.4606C36.3246 45.1873 37.6282 49.0271 37.2072 52.82Z" fill="#52501B"/>
<path d="M53.3925 68.7974C27.3719 68.7974 6.20329 90.0316 6.20329 116.132C6.20329 142.231 27.3719 163.467 53.3925 163.467C79.4152 163.467 100.586 142.231 100.586 116.132C100.586 90.0316 79.4152 68.7974 53.3925 68.7974Z" fill="#F59B1A"/>
<path d="M53.3925 62.5752C23.9501 62.5752 0 86.5999 0 116.132C0 145.663 23.9506 169.689 53.3925 169.689C82.8343 169.689 106.789 145.663 106.789 116.132C106.789 86.5999 82.8343 62.5752 53.3925 62.5752ZM53.3925 163.467C27.3719 163.467 6.2033 142.231 6.2033 116.132C6.2033 90.0322 27.3719 68.798 53.3925 68.798C79.4152 68.798 100.586 90.0322 100.586 116.132C100.586 142.231 79.4152 163.467 53.3925 163.467Z" fill="#805012"/>
<path d="M53.3925 155.69C51.6805 155.69 50.2911 154.297 50.2911 152.578C50.2911 150.861 51.681 149.468 53.3925 149.468C71.7188 149.468 86.6265 134.513 86.6265 116.133C86.6265 114.414 88.0165 113.022 89.7285 113.022C91.4426 113.022 92.8298 114.414 92.8298 116.133C92.8298 137.942 75.139 155.69 53.3925 155.69Z" fill="white"/>
</g>
<defs>
<clipPath id="clip0_3_2">
<rect width="107" height="152" fill="white" transform="translate(0 18)"/>
</clipPath>
</defs>
</svg>
