<svg width="21" height="20" viewBox="0 0 21 20" fill="none" xmlns="http://www.w3.org/2000/svg">
<path d="M10.5244 1.80194C13.1956 1.80194 13.5091 1.81385 14.5649 1.86148C15.5413 1.90514 16.0691 2.06787 16.4224 2.20679C16.8907 2.38936 17.2241 2.60369 17.5734 2.95297C17.9227 3.30224 18.141 3.63564 18.3196 4.10399C18.4545 4.45723 18.6212 4.98512 18.6649 5.9615C18.7125 7.01727 18.7244 7.33082 18.7244 10.002C18.7244 12.6732 18.7125 12.9867 18.6649 14.0425C18.6212 15.0189 18.4585 15.5467 18.3196 15.9C18.137 16.3683 17.9227 16.7017 17.5734 17.051C17.2241 17.4003 16.8907 17.6186 16.4224 17.7972C16.0691 17.9321 15.5413 18.0988 14.5649 18.1425C13.5091 18.1901 13.1956 18.202 10.5244 18.202C7.85322 18.202 7.53967 18.1901 6.4839 18.1425C5.50752 18.0988 4.97964 17.9361 4.62639 17.7972C4.15804 17.6146 3.82464 17.4003 3.47537 17.051C3.12609 16.7017 2.90779 16.3683 2.72919 15.9C2.59424 15.5467 2.42754 15.0189 2.38388 14.0425C2.33625 12.9867 2.32434 12.6732 2.32434 10.002C2.32434 7.33082 2.33625 7.01727 2.38388 5.9615C2.42754 4.98512 2.59027 4.45723 2.72919 4.10399C2.91176 3.63564 3.12609 3.30224 3.47537 2.95297C3.82464 2.60369 4.15804 2.38539 4.62639 2.20679C4.97964 2.07184 5.50752 1.90514 6.4839 1.86148C7.53967 1.80988 7.85719 1.80194 10.5244 1.80194ZM10.5244 0C7.80956 0 7.46823 0.0119071 6.40055 0.0595356C5.33685 0.107164 4.61051 0.277833 3.97547 0.523914C3.31661 0.777932 2.76094 1.12324 2.20527 1.6789C1.64961 2.23457 1.30827 2.79421 1.05028 3.4491C0.8042 4.08414 0.633531 4.81048 0.585903 5.87815C0.538274 6.94185 0.526367 7.28319 0.526367 9.99802C0.526367 12.7128 0.538274 13.0542 0.585903 14.1219C0.633531 15.1856 0.8042 15.9119 1.05028 16.5509C1.3043 17.2098 1.64961 17.7654 2.20527 18.3211C2.76094 18.8768 3.32057 19.2181 3.97547 19.4761C4.61051 19.7222 5.33685 19.8928 6.40452 19.9405C7.4722 19.9881 7.80956 20 10.5284 20C13.2472 20 13.5845 19.9881 14.6522 19.9405C15.7159 19.8928 16.4422 19.7222 17.0813 19.4761C17.7401 19.2221 18.2958 18.8768 18.8514 18.3211C19.4071 17.7654 19.7485 17.2058 20.0064 16.5509C20.2525 15.9159 20.4232 15.1895 20.4708 14.1219C20.5184 13.0542 20.5304 12.7168 20.5304 9.99802C20.5304 7.27922 20.5184 6.94185 20.4708 5.87418C20.4232 4.81048 20.2525 4.08414 20.0064 3.44513C19.7524 2.78627 19.4071 2.2306 18.8514 1.67494C18.2958 1.11927 17.7361 0.777932 17.0813 0.519944C16.4462 0.273864 15.7199 0.103195 14.6522 0.0555666C13.5806 0.0119071 13.2392 0 10.5244 0Z" fill="#93524C"/>
<path d="M10.5244 4.86605C7.69049 4.86605 5.38844 7.16412 5.38844 10.002C5.38844 12.8398 7.68652 15.1379 10.5244 15.1379C13.3622 15.1379 15.6603 12.8398 15.6603 10.002C15.6603 7.16412 13.3622 4.86605 10.5244 4.86605ZM10.5244 13.332C8.68275 13.332 7.19039 11.8396 7.19039 9.99801C7.19039 8.15638 8.68275 6.66402 10.5244 6.66402C12.366 6.66402 13.8584 8.15638 13.8584 9.99801C13.8584 11.8396 12.366 13.332 10.5244 13.332Z" fill="#93524C"/>
<path d="M15.8627 5.85831C16.5247 5.85831 17.0614 5.32165 17.0614 4.65966C17.0614 3.99766 16.5247 3.461 15.8627 3.461C15.2007 3.461 14.6641 3.99766 14.6641 4.65966C14.6641 5.32165 15.2007 5.85831 15.8627 5.85831Z" fill="#93524C"/>
</svg>
