<svg width="23" height="20" viewBox="0 0 23 20" fill="none" xmlns="http://www.w3.org/2000/svg">
<path fill-rule="evenodd" clip-rule="evenodd" d="M22.5224 20H17.8036V12.7816C17.8036 10.9675 17.1198 9.73167 15.4143 9.73167C13.7089 9.73167 13.3352 10.5669 12.9933 11.3719C12.8701 11.6591 12.8383 12.0597 12.8383 12.4641V20H8.11943C8.11943 20 8.18303 7.77022 8.11943 6.50416H12.8383V8.41648C13.4664 7.49811 14.5835 6.1867 17.092 6.1867C19.6005 6.1867 22.5264 8.11414 22.5264 12.26V20H22.5224ZM5.52745 20H0.808622V6.50416H5.52745V20ZM3.16605 4.66364H3.13425C1.55203 4.66364 0.526367 3.62812 0.526367 2.33182C0.526367 1.03553 1.58383 0 3.19785 0C4.81187 0 5.80573 1.00907 5.83753 2.33182C5.83753 3.62812 4.81585 4.66364 3.16605 4.66364Z" fill="#93524C"/>
</svg>
