<svg width="20" height="28" viewBox="0 0 20 28" fill="none" xmlns="http://www.w3.org/2000/svg">
<g id="Group 62">
<path id="Vector" fill-rule="evenodd" clip-rule="evenodd" d="M12.7 0.3C12.5 0.0999999 12.3 0 12 0H2C0.9 0 0 0.9 0 2V26C0 27.1 0.9 28 2 28H18C19.1 28 20 27.1 20 26V8C20 7.7 19.9 7.5 19.7 7.3L12.7 0.3ZM17.6 8H12V2.4L17.6 8ZM2 26V2H10V8C10 9.1 10.9 10 12 10H18V26H2Z" fill="black"/>
<path id="Vector_2" d="M16 20V22H4V20H16Z" fill="black"/>
<path id="Vector_3" d="M16 14V16H4V14H16Z" fill="black"/>
</g>
</svg>
