<svg width="144" height="24" viewBox="0 0 144 24" fill="none" xmlns="http://www.w3.org/2000/svg">
<g id="logo">
<g id="Logo">
<g id="Rhombus">
<path id="Shape" fill-rule="evenodd" clip-rule="evenodd" d="M3.35394 19.1458H0V3.23676H6.25862C9.86042 3.23676 11.944 5.272 11.944 8.43362C11.944 10.6087 10.9448 12.1856 9.14006 12.9624L12.5095 19.1458H8.80699L5.80162 13.5062H3.35394V19.1458ZM3.35394 5.98666V10.8029H5.63121C7.55217 10.8029 8.48941 10.0105 8.48941 8.43362C8.48941 6.84892 7.55217 5.98666 5.61572 5.98666H3.35394Z" fill="#2E2C34"/>
<path id="Path" d="M17.5519 12.2478C17.5597 10.7097 18.4969 9.80857 19.8447 9.80857C21.1847 9.80857 21.9748 10.6708 21.967 12.139V19.1458H25.2667V11.5486C25.2745 8.75211 23.6324 7.05866 21.1537 7.05866C19.3489 7.05866 18.1406 7.91315 17.5984 9.31918H17.459V3.23676H14.2522V19.1458H17.5519V12.2478Z" fill="#2E2C34"/>
<path id="Shape_2" fill-rule="evenodd" clip-rule="evenodd" d="M39.1008 13.2265C39.1008 16.9008 36.8545 19.3789 33.245 19.3789C29.6354 19.3789 27.3892 16.9008 27.3892 13.2265C27.3892 9.52891 29.6354 7.05865 33.245 7.05865C36.8545 7.05865 39.1008 9.52891 39.1008 13.2265ZM30.7431 13.2032C30.7431 15.2851 31.5951 16.8154 33.2605 16.8154C34.8949 16.8154 35.7469 15.2851 35.7469 13.2032C35.7469 11.1214 34.8949 9.58329 33.2605 9.58329C31.5951 9.58329 30.7431 11.1214 30.7431 13.2032Z" fill="#2E2C34"/>
<path id="Path_2" d="M41.2542 19.1458H44.5539V11.9836C44.5539 10.6631 45.3904 9.78526 46.4903 9.78526C47.5747 9.78526 48.3028 10.531 48.3028 11.704V19.1458H51.5019V11.8593C51.5019 10.6242 52.2067 9.78526 53.4073 9.78526C54.4608 9.78526 55.2508 10.4455 55.2508 11.7739V19.1458H58.5428V11.1214C58.5428 8.53459 57.0091 7.05865 54.7938 7.05865C53.051 7.05865 51.6955 7.95199 51.2075 9.31917H51.0836C50.704 7.93645 49.488 7.05865 47.8536 7.05865C46.2502 7.05865 45.0341 7.91315 44.5384 9.31917H44.399V7.21402H41.2542V19.1458Z" fill="#2E2C34"/>
<path id="Shape_3" fill-rule="evenodd" clip-rule="evenodd" d="M64.4608 19.1458H61.2075V3.23676H64.5072V9.21819H64.6079C65.0494 8.24718 66.0022 7.05866 67.9929 7.05866C70.6032 7.05866 72.8108 9.09391 72.8108 13.1955C72.8108 17.1883 70.6961 19.34 67.9851 19.34C66.0641 19.34 65.0649 18.2292 64.6079 17.2349H64.4608V19.1458ZM66.9394 9.69205C65.336 9.69205 64.4375 11.0515 64.4375 13.1799C64.4375 15.3084 65.3515 16.7066 66.9394 16.7066C68.5583 16.7066 69.4413 15.2618 69.4413 13.1799C69.4413 11.1136 68.5738 9.69205 66.9394 9.69205Z" fill="#2E2C34"/>
<path id="Path_3" d="M82.6326 14.0655C82.6403 15.6657 81.5481 16.5047 80.363 16.5047C79.116 16.5047 78.3104 15.6269 78.3026 14.2208V7.21402H75.0029V14.8112C75.0107 17.6 76.6373 19.3012 79.0308 19.3012C80.82 19.3012 82.1058 18.3768 82.6403 16.9785H82.7642V19.1458H85.9323V7.21402H82.6326V14.0655Z" fill="#2E2C34"/>
<path id="Path_4" d="M98.4649 10.6164C98.1706 8.41807 96.4045 7.05865 93.3992 7.05865C90.3551 7.05865 88.3489 8.47245 88.3566 10.7718C88.3489 12.5585 89.472 13.7159 91.7958 14.182L93.8562 14.5937C94.8941 14.8035 95.3666 15.1841 95.3821 15.7822C95.3666 16.4891 94.5998 16.9941 93.4456 16.9941C92.2683 16.9941 91.486 16.4891 91.2846 15.5181L88.0391 15.689C88.3489 17.9728 90.2853 19.3789 93.4379 19.3789C96.5207 19.3789 98.7283 17.8019 98.736 15.4482C98.7283 13.7237 97.6051 12.6905 95.2969 12.2167L93.1436 11.7817C92.0359 11.5409 91.6254 11.1602 91.6331 10.5854C91.6254 9.87071 92.4309 9.40462 93.4534 9.40462C94.5998 9.40462 95.2814 10.0338 95.4441 10.8029L98.4649 10.6164Z" fill="#2E2C34"/>
</g>
</g>
<g id="Tag">
<rect id="Base" x="102.736" width="41" height="24" rx="4" fill="white"/>
<g id="Text">
<g id="PRO">
<path id="Vector" d="M134.686 12.6364C134.686 13.5682 134.515 14.3693 134.175 15.0398C133.834 15.7074 133.366 16.2216 132.773 16.5824C132.182 16.9403 131.51 17.1193 130.757 17.1193C130.001 17.1193 129.327 16.9403 128.733 16.5824C128.142 16.2216 127.676 15.706 127.335 15.0355C126.994 14.3651 126.824 13.5653 126.824 12.6364C126.824 11.7045 126.994 10.9048 127.335 10.2372C127.676 9.56676 128.142 9.05256 128.733 8.69461C129.327 8.33381 130.001 8.15341 130.757 8.15341C131.51 8.15341 132.182 8.33381 132.773 8.69461C133.366 9.05256 133.834 9.56676 134.175 10.2372C134.515 10.9048 134.686 11.7045 134.686 12.6364ZM133.382 12.6364C133.382 11.9261 133.267 11.3281 133.037 10.8423C132.81 10.3537 132.497 9.98438 132.099 9.73438C131.704 9.48154 131.257 9.35512 130.757 9.35512C130.254 9.35512 129.805 9.48154 129.41 9.73438C129.015 9.98438 128.703 10.3537 128.473 10.8423C128.246 11.3281 128.132 11.9261 128.132 12.6364C128.132 13.3466 128.246 13.946 128.473 14.4347C128.703 14.9205 129.015 15.2898 129.41 15.5426C129.805 15.7926 130.254 15.9176 130.757 15.9176C131.257 15.9176 131.704 15.7926 132.099 15.5426C132.497 15.2898 132.81 14.9205 133.037 14.4347C133.267 13.946 133.382 13.3466 133.382 12.6364Z" fill="#3767EA"/>
<path id="Vector_2" d="M119.371 17V8.27274H122.481C123.158 8.27274 123.719 8.38921 124.165 8.62217C124.614 8.85512 124.949 9.17757 125.17 9.5895C125.392 9.99859 125.503 10.4716 125.503 11.0085C125.503 11.5426 125.39 12.0128 125.166 12.419C124.944 12.8225 124.609 13.1364 124.16 13.3608C123.714 13.5852 123.153 13.6975 122.477 13.6975H120.121V12.5639H122.358C122.784 12.5639 123.131 12.5028 123.398 12.3807C123.667 12.2585 123.865 12.081 123.99 11.848C124.115 11.6151 124.177 11.3352 124.177 11.0085C124.177 10.679 124.114 10.3935 123.986 10.152C123.861 9.91052 123.663 9.72586 123.393 9.59802C123.126 9.46734 122.775 9.402 122.341 9.402H120.687V17H119.371ZM123.679 13.0625L125.835 17H124.335L122.221 13.0625H123.679Z" fill="#3767EA"/>
<path id="Vector_3" d="M111.695 17V8.27274H114.806C115.485 8.27274 116.047 8.39632 116.493 8.64347C116.939 8.89063 117.273 9.2287 117.495 9.65768C117.716 10.0838 117.827 10.5639 117.827 11.098C117.827 11.635 117.715 12.1179 117.49 12.5469C117.269 12.973 116.933 13.3111 116.485 13.5611C116.039 13.8082 115.477 13.9318 114.801 13.9318H112.662V12.8153H114.682C115.111 12.8153 115.459 12.7415 115.726 12.5938C115.993 12.4432 116.189 12.2386 116.314 11.9801C116.439 11.7216 116.502 11.4276 116.502 11.098C116.502 10.7685 116.439 10.4759 116.314 10.2202C116.189 9.9645 115.992 9.76421 115.722 9.61933C115.455 9.47444 115.102 9.402 114.665 9.402H113.012V17H111.695Z" fill="#3767EA"/>
</g>
</g>
</g>
</g>
</svg>
