<svg width="246" height="56" viewBox="0 0 246 56" fill="none" xmlns="http://www.w3.org/2000/svg">
<g id="Logo">
<g id="Logo_2">
<path id="Shape" fill-rule="evenodd" clip-rule="evenodd" d="M27.4952 1.42524L52.2737 26.2037C52.6301 26.5601 52.6304 27.1375 52.2745 27.4935L27.5257 52.2422C27.1698 52.5982 26.5923 52.5978 26.236 52.2414L1.45751 27.463C1.10114 27.1066 1.1008 26.5291 1.45674 26.1732L26.2055 1.42447C26.5614 1.06852 27.1389 1.06887 27.4952 1.42524ZM26.8797 50.3046L50.3394 26.8448L26.8515 3.35693L3.39178 26.8167L26.8797 50.3046Z" fill="#2E2C34"/>
<path id="Path" d="M19.5298 29.4052L13.0051 35.9225C12.6487 36.2785 12.6487 36.8556 13.0051 37.2115L26.2203 50.4108C26.5766 50.7668 27.1544 50.7668 27.5108 50.4108L40.726 37.2115C41.0824 36.8555 41.0823 36.2783 40.7259 35.9224L34.2001 29.4069L34.0737 29.3015C33.7181 29.0555 33.2264 29.0907 32.9097 29.407L26.8637 35.443L20.8204 29.4053C20.464 29.0493 19.8862 29.0493 19.5298 29.4052Z" fill="#2E2C34"/>
<path id="Shape_2" fill-rule="evenodd" clip-rule="evenodd" d="M27.5042 16.2834L37.4155 26.1948C37.7719 26.5512 37.7723 27.1286 37.4163 27.4845L27.5168 37.384C27.1609 37.74 26.5834 37.7396 26.2271 37.3833L16.3157 27.4719C15.9593 27.1155 15.9589 26.5381 16.3149 26.1821L26.2144 16.2826C26.5703 15.9267 27.1478 15.927 27.5042 16.2834ZM26.8708 35.4464L35.4813 26.8359L26.8604 18.2151L18.2499 26.8256L26.8708 35.4464Z" fill="#2E2C34"/>
</g>
<g id="Rhombus">
<path id="Shape_3" fill-rule="evenodd" clip-rule="evenodd" d="M78.4001 40.5052H72.5067V12.6643H83.504C89.8329 12.6643 93.4941 16.226 93.4941 21.7588C93.4941 25.5652 91.7384 28.3248 88.5671 29.6842L94.4877 40.5052H87.9819L82.701 30.6358H78.4001V40.5052ZM78.4001 17.4767V25.9051H82.4016C85.777 25.9051 87.4238 24.5184 87.4238 21.7588C87.4238 18.9856 85.777 17.4767 82.3743 17.4767H78.4001Z" fill="#2E2C34"/>
<path id="Path_2" d="M103.348 28.4336C103.362 25.7419 105.009 24.165 107.377 24.165C109.731 24.165 111.12 25.674 111.106 28.2433V40.5052H116.904V27.2101C116.918 22.3162 114.032 19.3527 109.677 19.3527C106.506 19.3527 104.383 20.848 103.43 23.3086H103.185V12.6643H97.55V40.5052H103.348V28.4336Z" fill="#2E2C34"/>
<path id="Shape_4" fill-rule="evenodd" clip-rule="evenodd" d="M141.213 30.1464C141.213 36.5765 137.266 40.913 130.923 40.913C124.581 40.913 120.634 36.5765 120.634 30.1464C120.634 23.6756 124.581 19.3527 130.923 19.3527C137.266 19.3527 141.213 23.6756 141.213 30.1464ZM126.527 30.1057C126.527 33.7489 128.024 36.427 130.95 36.427C133.822 36.427 135.319 33.7489 135.319 30.1057C135.319 26.4624 133.822 23.7708 130.95 23.7708C128.024 23.7708 126.527 26.4624 126.527 30.1057Z" fill="#2E2C34"/>
<path id="Path_3" d="M144.996 40.5052H150.794V27.9714C150.794 25.6604 152.264 24.1242 154.197 24.1242C156.103 24.1242 157.382 25.4293 157.382 27.482V40.5052H163.003V27.7539C163.003 25.5924 164.242 24.1242 166.351 24.1242C168.202 24.1242 169.591 25.2797 169.591 27.6043V40.5052H175.375V26.4624C175.375 21.9356 172.68 19.3527 168.788 19.3527C165.725 19.3527 163.343 20.916 162.486 23.3086H162.268C161.601 20.8888 159.464 19.3527 156.592 19.3527C153.775 19.3527 151.638 20.848 150.767 23.3086H150.522V19.6245H144.996V40.5052Z" fill="#2E2C34"/>
<path id="Shape_5" fill-rule="evenodd" clip-rule="evenodd" d="M185.774 40.5052H180.057V12.6643H185.855V23.1318H186.032C186.808 21.4326 188.482 19.3527 191.98 19.3527C196.567 19.3527 200.446 22.9143 200.446 30.0921C200.446 37.0795 196.73 40.8451 191.966 40.8451C188.591 40.8451 186.835 38.9011 186.032 37.161H185.774V40.5052ZM190.129 23.9611C187.312 23.9611 185.733 26.3401 185.733 30.0649C185.733 33.7897 187.339 36.2366 190.129 36.2366C192.973 36.2366 194.525 33.7081 194.525 30.0649C194.525 26.4488 193.001 23.9611 190.129 23.9611Z" fill="#2E2C34"/>
<path id="Path_4" d="M217.704 31.6146C217.717 34.415 215.798 35.8832 213.716 35.8832C211.525 35.8832 210.109 34.347 210.095 31.8865V19.6245H204.297V32.9197C204.311 37.8 207.169 40.7771 211.375 40.7771C214.519 40.7771 216.778 39.1594 217.717 36.7124H217.935V40.5052H223.502V19.6245H217.704V31.6146Z" fill="#2E2C34"/>
<path id="Path_5" d="M245.524 25.5788C245.006 21.7316 241.903 19.3527 236.622 19.3527C231.273 19.3527 227.748 21.8268 227.762 25.8507C227.748 28.9773 229.722 31.0029 233.805 31.8185L237.425 32.539C239.249 32.9061 240.079 33.5722 240.107 34.6189C240.079 35.856 238.732 36.7396 236.704 36.7396C234.635 36.7396 233.261 35.856 232.907 34.1567L227.204 34.4558C227.748 38.4525 231.151 40.913 236.69 40.913C242.107 40.913 245.986 38.1534 246 34.0344C245.986 31.0165 244.013 29.2084 239.957 28.3792L236.173 27.6179C234.227 27.1965 233.506 26.5304 233.519 25.5244C233.506 24.2738 234.921 23.4581 236.718 23.4581C238.732 23.4581 239.93 24.5592 240.216 25.9051L245.524 25.5788Z" fill="#2E2C34"/>
</g>
</g>
</svg>
