<?xml version="1.0" encoding="UTF-8"?>
<svg width="329px" height="172px" viewBox="0 0 329 172" version="1.1" xmlns="http://www.w3.org/2000/svg" xmlns:xlink="http://www.w3.org/1999/xlink">
    <title>blizzard</title>
    <g id="Page-1" stroke="none" stroke-width="1" fill="none" fill-rule="evenodd">
        <g id="Landing-Page" transform="translate(-72, -4707)" fill="#00AEFF" fill-rule="nonzero">
            <g id="blizzard" transform="translate(72, 4707)">
                <g id="NavbarFooter-blizzard-upper">
                    <path d="M200.781289,118.130137 C200.761289,120.190137 201.831289,120.620137 201.951289,121.920137 L201.951289,132.870137 L201.751289,132.990137 C201.131289,133.430137 200.861289,133.650137 200.791289,133.720137 C200.791289,133.770137 200.811289,133.900137 200.811289,134.080137 C200.811289,134.220137 200.791289,134.390137 200.771289,134.590137 L200.711289,134.980137 L183.161289,134.980137 L183.031289,134.750137 C182.791289,134.340137 182.581289,134.060137 182.311289,133.700137 L176.521289,133.080137 C175.401289,134.330137 173.581289,135.490137 172.081289,136.000137 L172.011289,136.020137 L171.941289,136.020137 C167.521289,136.020137 165.051289,136.230137 162.521289,136.230137 C161.341289,136.450137 158.171289,138.380137 155.731289,138.400137 L155.531289,138.400137 L155.401289,138.260137 C154.461289,137.250137 154.211289,136.160137 154.221289,135.240137 C154.221289,134.380137 154.401289,133.650137 154.401289,133.270137 L154.401289,128.620137 L154.601289,128.480137 C155.101289,128.130137 155.371289,128.010137 155.671289,127.620137 C155.911289,127.330137 156.011289,126.820137 156.011289,126.270137 C156.011289,125.160137 155.601289,123.940137 155.601289,123.940137 L155.491289,123.620137 L155.761289,123.430137 C156.831289,122.670137 157.461289,122.390137 157.951289,121.400137 C158.141289,121.020137 158.221289,120.460137 158.221289,119.900137 C158.221289,118.760137 157.921289,117.620137 157.921289,117.620137 L157.841289,117.300137 L158.101289,117.130137 C158.611289,116.780137 158.871289,116.660137 159.161289,116.290137 C159.361289,116.020137 159.461289,115.560137 159.461289,115.050137 C159.461289,114.030137 159.091289,112.920137 159.091289,112.920137 L159.071289,112.840137 L159.071289,112.770137 C159.141289,112.120137 159.931289,110.950137 160.251289,109.810137 C160.541289,108.820137 160.651289,107.550137 160.651289,106.310137 C160.651289,103.840137 160.231289,101.510137 160.231289,101.420137 C160.251289,100.290037 159.581289,100.050037 159.091289,98.740037 C158.221289,96.260037 157.941289,93.240037 157.941289,90.320037 C157.941289,84.470037 159.071289,78.970037 159.091289,78.880037 L166.071289,60.340037 C166.021289,60.080037 165.371289,59.910037 164.931289,59.010037 C164.841289,58.770037 164.801289,58.550037 164.801289,58.360037 C164.811289,57.940037 164.901289,57.700037 164.901289,57.280037 L164.901289,57.090037 L165.041289,56.950037 C165.041289,56.950037 166.681289,55.280037 166.651289,53.490037 C166.651289,52.860037 166.651289,52.500037 166.651289,52.140037 C166.651289,51.960037 166.651289,51.780037 166.651289,51.540037 C166.921289,50.180037 169.791289,46.670037 170.151289,43.350037 C170.201289,42.930037 170.211289,42.400037 170.211289,41.900037 C170.211289,40.890037 170.151289,39.960037 170.151289,39.930037 C170.241289,38.810037 174.941289,27.970037 178.311289,24.610037 L178.311289,20.470037 L178.511289,20.340037 C178.751289,20.200037 179.541289,19.550037 179.481289,19.190037 L179.481289,19.160037 C179.481289,18.820037 179.441289,19.030037 178.851289,18.320037 L172.671289,18.320037 L172.551289,18.090037 C172.241289,17.570037 172.121289,17.300037 171.741289,16.920037 C171.291289,16.470037 170.661289,16.300037 169.901289,16.300037 C168.371289,16.300037 166.711289,17.020037 165.931289,17.060037 C165.711289,16.980037 164.831289,17.730037 164.081289,19.470037 C163.311289,21.180037 162.541289,23.750037 161.991289,27.090037 C160.891289,34.080037 159.741289,35.030037 158.241289,35.060037 C158.001289,35.060037 157.791289,35.030037 157.611289,35.040037 C157.101289,35.060037 156.751289,35.060037 156.101289,36.080037 L155.811289,36.540037 L155.411289,36.180037 C154.891289,35.710037 154.231289,35.090037 154.011289,34.960037 L153.711289,34.760037 L153.831289,34.420037 C154.281289,33.270037 154.411289,32.460037 154.411289,31.830037 C154.431289,30.600037 153.831289,29.950037 153.801289,28.590037 C153.851289,27.500037 154.861289,26.530037 155.551289,25.870037 L155.551289,4.199997 L155.971289,4.169997 C156.351289,4.149997 157.261289,4.149997 159.531289,4.149997 C164.061289,4.149997 173.961289,4.169997 195.351289,4.169997 L195.611289,4.169997 L195.741289,4.389997 C196.451289,5.559997 196.481289,5.479997 196.531289,5.459997 C196.611289,5.459997 196.851289,5.419997 197.191289,5.419997 C197.261289,5.419997 197.361289,5.419997 197.461289,5.429997 L197.851289,5.479997 L197.851289,6.979997 L197.751289,7.109997 C196.711289,8.279997 196.321289,12.400037 192.921289,15.810037 C192.981289,16.210037 193.071289,17.080037 193.071289,18.000037 C193.071289,18.620037 193.031289,19.280037 192.881289,19.860037 C192.301289,22.100037 191.691289,22.480037 189.421289,24.640037 C189.491289,25.040037 189.601289,25.910037 189.601289,26.830037 C189.601289,27.460037 189.551289,28.120037 189.381289,28.700037 C188.571289,30.710037 187.141289,29.800037 187.061289,32.110037 C187.061289,32.110037 186.411289,36.550037 185.831289,39.370037 C185.231289,42.160037 183.791289,43.790037 183.821289,45.920037 C183.821289,46.240037 183.851289,46.560037 183.921289,47.010037 L183.571289,58.440037 L183.391289,58.570037 C181.681289,59.590037 182.001289,66.140037 178.921289,69.430037 L178.921289,73.420037 L178.891289,73.490037 C177.951289,75.970037 176.151289,75.830037 175.421289,79.020037 L175.421289,92.020037 L171.921289,102.080137 C171.951289,102.460137 172.061289,103.890137 172.061289,105.440137 C172.061289,106.340137 172.021289,107.270137 171.911289,108.080137 C171.441289,111.270137 169.331289,115.160137 168.261289,116.980137 C167.991289,117.410137 167.861289,117.640137 167.741289,117.820137 C167.751289,117.910137 167.761289,118.010137 167.761289,118.110137 C167.741289,119.390137 166.831289,121.570137 166.661289,121.990137 C166.581289,122.820137 165.951289,123.980137 165.611289,124.630137 C166.051289,125.070137 166.181289,125.230137 166.521289,125.220137 C166.581289,125.260137 166.891289,124.930137 167.291289,124.190137 L167.501289,123.830137 L167.881289,124.020137 C168.611289,124.360137 169.241289,124.470137 169.901289,124.470137 C171.201289,124.490137 172.571289,123.990137 174.301289,123.990137 C174.771289,123.900137 174.831289,123.580137 174.971289,122.680137 C175.081289,121.840137 175.201289,120.680137 176.111289,119.710137 C177.861289,117.860137 181.751289,117.460137 182.591289,116.800137 C187.321289,113.520137 189.281289,115.050137 192.381289,110.000137 L192.671289,109.530137 L193.071289,109.900137 C193.471289,110.270137 193.791289,110.610137 194.141289,111.050137 L200.011289,111.050137 L200.141289,111.260137 C200.741289,112.290137 201.941289,113.020137 201.971289,114.650137 C201.741289,115.860137 200.831289,115.460137 200.801289,118.110137 L200.781289,118.130137 Z M230.431289,94.550037 C230.431289,100.950137 230.311289,107.200137 229.921289,108.770137 L229.881289,108.930137 L229.741289,109.030137 C229.131289,109.390137 228.251289,112.060137 227.411289,114.860137 C226.541289,117.590137 225.591289,120.530137 224.101289,122.100137 L224.101289,128.760137 L223.921289,128.900137 C222.581289,129.730137 222.361289,134.840137 220.611289,136.910137 L220.611289,141.070137 L220.411289,141.210137 C220.021289,141.470137 219.781289,141.670137 219.441289,141.980137 L219.441289,147.370137 L219.251289,147.510137 C218.261289,148.170137 218.371289,148.790137 217.231289,148.850137 C216.931289,148.870137 216.731289,148.640137 216.641289,148.510137 C216.531289,148.550137 216.311289,148.620137 215.991289,148.800137 L215.331289,149.170137 L215.331289,141.910137 L211.831289,130.430137 L211.831289,126.970137 C212.041289,124.380137 206.091289,122.350137 206.001289,116.880137 L206.001289,116.700137 L206.121289,116.570137 C206.121289,116.570137 213.241289,108.940137 213.581289,98.590037 L213.581289,98.570037 C213.771289,97.880037 210.581289,95.590037 207.181289,93.790037 C203.951289,91.960037 200.641289,90.340037 199.551289,89.270037 L197.451289,89.270037 L198.451289,92.210037 L198.451289,98.530037 C200.011289,98.940037 201.001289,100.850137 201.981289,100.970137 C202.231289,100.970137 202.601289,101.270137 202.591289,101.630137 C202.421289,102.660137 201.011289,103.550137 200.771289,104.980137 L200.711289,105.370137 L200.311289,105.340137 C200.311289,105.340137 196.731289,105.110137 193.821289,105.110137 C192.371289,105.110137 191.051289,105.170137 190.571289,105.320137 C185.021289,107.170137 178.711289,109.550137 178.701289,109.550137 L178.351289,109.680137 L178.151289,109.360137 C176.641289,106.820137 177.921289,107.520137 176.511289,105.510137 L176.331289,105.240137 L176.521289,104.990137 C178.651289,102.110137 179.161289,101.610137 180.651289,100.260037 C180.681289,99.550037 180.821289,97.060037 181.721289,95.520037 C182.921289,93.720037 185.571289,93.210037 185.311289,92.580037 C185.371289,92.450037 185.031289,92.140037 184.341289,91.690037 L184.111289,91.530037 L184.151289,91.260037 C184.151289,91.260037 184.571289,87.550037 184.961289,85.520037 C185.091289,84.980037 185.121289,84.640037 185.271289,84.330037 C185.101289,83.830037 184.711289,82.470037 184.701289,81.120037 C184.711289,80.270037 184.851289,79.400037 185.421289,78.730037 C185.801289,78.280037 186.171289,78.090037 186.481289,77.860037 L186.481289,72.800037 L186.671289,72.670037 C187.511289,72.020037 187.601289,72.000037 187.641289,71.140037 C187.591289,70.740037 187.661289,70.940037 187.281289,70.720037 C186.891289,70.590037 186.351289,70.060037 186.401289,69.120037 C186.401289,68.870037 186.421289,68.580037 186.491289,68.210037 C186.641289,67.520037 186.681289,66.960037 186.681289,66.490037 C186.691289,65.360037 186.381289,64.630037 186.381289,63.570037 C186.381289,63.110037 186.441289,62.610037 186.631289,62.040037 C187.201289,60.240037 188.081289,59.500037 188.861289,58.030037 C188.861289,58.020037 190.181289,55.230037 190.181289,51.480037 L190.181289,51.220037 L190.401289,51.100037 C193.041289,49.740037 191.471289,43.830037 193.511289,39.130037 C194.541289,36.900037 195.291289,34.780037 196.711289,33.420037 C196.731289,33.280037 196.751289,33.140037 196.751289,33.010037 C196.761289,32.180037 196.341289,31.470037 196.321289,30.570037 C196.311289,30.150037 196.451289,29.680037 196.791289,29.270037 C197.191289,28.760037 197.601289,28.580037 197.921289,28.340037 C198.131289,27.580037 199.211289,23.990037 200.441289,21.760037 C201.171289,20.470037 201.171289,19.740037 202.721289,18.310037 L202.721289,13.230037 L202.911289,13.090037 C203.651289,12.530037 203.621289,12.430037 203.791289,12.090037 C203.961289,11.710037 204.291289,11.240037 205.351289,10.560037 L205.441289,10.510037 L205.541289,10.510037 C206.621289,10.369997 206.761289,9.419997 206.781289,7.849997 C206.781289,7.429997 206.771289,6.979997 206.771289,6.539997 C206.771289,4.929997 207.031289,2.929997 209.291289,2.929997 C213.201289,3.119997 212.741289,9.479997 213.191289,10.129997 C216.311289,16.950037 217.171289,15.860037 217.311289,17.570037 L217.311289,21.040037 C217.281289,23.990037 221.531289,34.980037 221.571289,35.040037 L225.241289,49.480037 C225.611289,49.790037 225.911289,50.060037 226.261289,50.310037 L226.461289,50.440037 L226.461289,55.530037 C227.411289,56.440037 227.711289,57.160037 227.711289,57.780037 C227.711289,58.280037 227.551289,58.610037 227.561289,58.830037 C227.561289,59.070037 227.631289,59.380037 228.591289,60.100037 L228.781289,60.230037 L228.781289,67.090037 L228.451289,67.160037 L228.451289,67.510037 C228.421289,70.030037 229.661289,79.020037 230.001289,80.030037 L230.081289,80.090037 L230.111289,80.300037 C230.321289,82.170037 230.451289,88.390037 230.451289,94.600037 L230.431289,94.550037 Z M201.231289,77.100037 C201.231289,77.930037 201.191289,78.620037 201.061289,79.140037 L201.021289,79.300037 C201.671289,79.230037 202.391289,79.190037 203.141289,79.190037 C204.221289,79.190037 205.391289,79.280037 206.551289,79.540037 C209.951289,80.280037 211.821289,82.630037 214.071289,83.310037 C214.331289,83.320037 214.581289,83.320037 214.811289,83.320037 L215.071289,83.320037 C215.111289,81.720037 215.241289,75.820037 215.241289,71.120037 C215.241289,68.520037 215.201289,66.260037 215.081289,65.400037 C214.341289,64.540037 214.401289,62.930037 214.171289,61.160037 C214.011289,59.300037 213.661289,57.370037 212.881289,56.700037 C211.511289,55.370037 209.701289,56.080037 208.051289,54.420037 C207.161289,53.440037 206.441289,51.850037 205.931289,50.500037 L205.751289,55.760037 L205.751289,55.980037 L205.561289,56.100037 C204.751289,56.670037 204.561289,57.570037 204.261289,58.530037 C204.011289,59.370037 203.491289,60.330037 202.231289,60.550037 C202.181289,61.950037 202.061289,66.680037 201.071289,68.150037 C201.001289,68.580037 200.971289,69.170037 200.971289,69.850037 C200.971289,71.990037 201.251289,74.960037 201.251289,77.080037 L201.231289,77.100037 Z M152.981289,98.030037 L152.491289,98.170037 C150.691289,98.580037 151.521289,100.030037 150.021289,101.630137 C149.811289,101.960137 149.651289,104.210137 149.671289,106.780137 C149.671289,111.980137 150.061289,119.030137 150.071289,119.040137 L150.091289,119.510137 L149.621289,119.510137 C149.161289,119.450137 145.911289,120.740137 145.331289,121.820137 L145.191289,122.030137 L131.871289,122.030137 L131.731289,121.820137 C130.991289,120.610137 130.961289,120.640137 130.891289,120.680137 C130.731289,120.660137 130.281289,120.780137 129.481289,120.780137 C128.051289,120.800137 127.681289,121.280137 127.231289,121.850137 C126.841289,122.420137 126.351289,123.290137 125.061289,123.290137 L125.021289,123.290137 C125.021289,123.290137 122.411289,122.800137 121.121289,121.410137 L112.041289,121.410137 L111.911289,121.200137 C111.291289,120.130137 110.721289,120.210137 110.681289,119.070137 C110.811289,118.490137 111.091289,118.410137 111.481289,117.930137 C111.801289,117.600137 112.151289,117.240137 112.431289,116.990137 L112.431289,109.400137 L112.621289,109.270137 C113.711289,108.460137 113.631289,108.540137 113.631289,108.330137 C113.631289,108.170137 113.601289,107.870137 113.591289,107.430137 C113.571289,107.430137 113.591289,107.400137 113.541289,107.290137 C113.501289,107.170137 113.441289,107.020137 113.361289,106.830137 C113.211289,106.460137 113.001289,105.970137 112.751289,105.480137 C112.301289,104.520137 111.651289,103.480137 111.441289,103.380137 L111.071289,103.120137 L111.341289,102.760137 C111.901289,102.000137 112.071289,101.300137 112.071289,100.690137 C112.071289,99.460037 111.361289,98.580037 111.361289,98.580037 L111.271289,98.480037 L111.251289,98.370037 C111.161289,97.770037 111.121289,97.140037 111.121289,96.490037 C111.121289,92.790037 112.431289,88.460037 112.421289,86.250037 L112.421289,85.770037 L112.611289,85.630037 C113.781289,84.970037 113.391289,81.150037 114.801289,78.220037 C116.091289,75.700037 118.931289,72.480037 118.881289,72.550037 C119.271289,71.860037 118.771289,68.200037 123.831289,62.760037 C124.091289,61.470037 126.201289,51.060037 128.241289,47.920037 C128.471289,47.630037 129.061289,47.260037 129.831289,46.660037 C130.351289,46.270037 130.861289,45.890037 131.111289,45.710037 C131.231289,45.040037 131.901289,43.150037 135.781289,39.560037 C135.611289,38.930037 135.211289,37.290037 135.211289,35.460037 C135.211289,34.290037 135.371289,33.050037 135.881289,31.940037 L135.931289,31.830037 L136.021289,31.770037 C138.541289,29.980037 140.041289,25.870037 144.001289,22.170037 L144.001289,14.290037 L131.171289,14.170037 C129.251289,15.980037 124.181289,16.170037 124.151289,22.870037 L124.151289,23.320037 L123.691289,23.320037 C123.291289,23.300037 122.121289,23.680037 121.171289,24.270037 C120.191289,24.870037 119.451289,25.690037 119.481289,26.330037 L119.481289,35.790037 C119.431289,36.710037 118.741289,37.700037 117.081289,40.440037 L116.791289,40.910037 L116.391289,40.540037 C115.541289,39.770037 115.271289,39.060037 115.291289,38.470037 C115.291289,38.020037 115.391289,37.700037 115.391289,37.460037 C115.381289,37.150037 115.321289,36.830037 114.401289,36.150037 L114.241289,36.040037 L114.211289,35.840037 C114.211289,35.840037 113.871289,33.410037 113.581289,31.890037 C113.461289,31.000037 113.391289,30.140037 113.241289,30.150037 L112.951289,29.950037 L113.071289,29.620037 C113.071289,29.620037 114.161289,26.730037 114.151289,24.140037 C114.151289,22.840037 113.871289,21.660037 113.171289,20.950037 C112.781289,20.550037 112.541289,20.380037 112.071289,20.060037 L111.871289,19.930037 L111.871289,8.819997 L111.961289,8.709997 C111.961289,8.709997 113.081289,7.179997 113.051289,6.119997 C113.051289,6.039997 113.051289,5.959997 113.051289,5.889997 L112.981289,5.379997 L113.491289,5.379997 C129.961289,5.379997 131.481289,5.509997 147.651289,5.509997 L148.101289,5.509997 L148.101289,11.950037 C148.001289,12.950037 149.171289,13.100037 149.271289,14.780037 L149.271289,36.110037 L149.111289,36.250037 C148.011289,37.170037 147.671289,38.760037 147.681289,40.240037 C147.681289,41.900037 148.081289,43.350037 148.081289,43.350037 L148.181289,43.650037 L147.911289,43.840037 C144.511289,46.210037 142.771289,55.660037 140.731289,58.090037 L140.731289,63.580037 L140.461289,63.700037 C140.461289,63.700037 135.741289,65.740037 134.871289,68.180037 C134.651289,68.740037 134.561289,69.510037 134.561289,70.280037 C134.561289,71.800037 134.881289,73.280037 134.881289,73.280037 L134.961289,73.650037 L134.611289,73.790037 C130.751289,75.230037 124.561289,92.560037 124.681289,93.560037 L124.681289,96.710037 L124.201289,96.760037 L124.451289,96.990037 C124.451289,96.990037 124.441289,96.990037 124.411289,97.040037 C124.361289,97.120037 124.281289,97.270037 124.191289,97.470037 C124.011289,97.870037 123.781289,98.460037 123.501289,99.180037 C122.961289,100.620137 122.261289,102.580137 121.531289,104.590137 C120.151289,108.370137 118.731289,112.270137 117.771289,113.730137 C118.411289,114.650137 118.461289,114.640137 118.501289,114.610137 C118.621289,114.610137 118.971289,114.540137 119.551289,114.540137 C120.581289,114.580137 121.011289,113.960137 125.481289,111.740137 C126.441289,111.400137 127.591289,112.070137 131.021289,110.480137 C131.551289,110.330137 132.941289,107.730137 134.621289,105.300137 C136.271289,102.960137 138.421289,100.600137 141.301289,100.370037 C141.491289,99.140037 142.221289,96.620037 143.441289,95.430037 L143.851289,95.040037 L144.131289,95.530037 C144.351289,95.910037 144.521289,96.160037 144.751289,96.470037 C148.461289,94.760037 146.811289,92.940037 148.741289,90.590037 L148.871289,90.440037 L152.161289,90.440037 L152.141289,90.900037 C152.141289,90.900037 152.121289,91.360037 152.121289,92.050037 C152.111289,93.600037 152.221289,96.400037 152.731289,97.580037 L152.931289,98.050037 L152.981289,98.030037 Z M53.4513891,105.860137 C53.4413891,107.270137 54.2613891,110.100137 54.2613891,112.780137 C54.2613891,113.410137 54.2213891,114.020137 54.1113891,114.630137 C53.6613891,117.020137 52.1513891,120.400137 52.1013891,120.490137 C52.1013891,120.490137 49.6913891,123.960137 48.7413891,126.370137 C47.5913891,129.260137 47.1213891,134.360137 47.1213891,134.360137 L47.1013891,134.620137 L46.8613891,134.730137 C46.8613891,134.730137 42.0113891,136.970137 39.3413891,138.950137 C36.9513891,140.700137 34.5313891,142.240137 33.9513891,143.860137 L33.8613891,144.120137 L33.6013891,144.160137 C33.6013891,144.160137 27.8713891,144.980137 26.1813891,145.640137 C25.9513891,145.710137 25.8613891,145.770137 25.8613891,145.790137 C25.5313891,146.200137 25.1713891,146.470137 24.7313891,146.480137 C23.3913891,146.230137 23.0813891,144.680137 22.1813891,144.790137 C21.8313891,144.790137 21.2713891,145.000137 20.4613891,145.780137 C19.8813891,146.990137 18.1313891,147.030137 16.2013891,147.090137 C13.3313891,147.090137 9.89138913,146.560137 9.12138913,146.420137 C8.71138913,146.620137 8.26138913,146.630137 7.73138913,146.640137 C6.47138913,146.640137 4.83138913,146.370137 3.92138913,146.370137 C3.71138913,146.370137 3.54138913,146.390137 3.47138913,146.410137 L3.23138913,146.840137 L2.82138913,146.460137 C2.30138913,146.000137 1.64138913,145.380137 1.42138913,145.250137 L0.681390129,144.760137 L1.51138913,144.460137 C1.51138913,144.460137 4.22138913,143.400137 5.04138913,142.610137 L5.03138913,142.610137 C5.03138913,142.610137 5.03138913,142.610137 5.04138913,142.590137 C5.06138913,142.550137 5.09138913,142.480137 5.13138913,142.390137 C5.21138913,142.190137 5.31138913,141.910137 5.43138913,141.570137 C5.65138913,140.880137 5.91138913,139.920137 6.19138913,138.840137 C6.75138913,136.690137 7.33138913,134.060137 7.71138913,132.090137 C7.71138913,125.260137 8.12138913,121.750137 8.12138913,118.180137 C8.12138913,116.390137 8.02138913,114.580137 7.72138913,112.290137 C7.61138913,111.460137 7.24138913,105.160137 6.69138913,100.590137 C6.69138913,93.210037 7.11138913,85.640037 7.11138913,81.170037 C7.11138913,80.320037 7.09138913,79.580037 7.06138913,78.980037 L7.04138913,78.550037 L7.47138913,78.510037 C8.40138913,78.440037 8.78138913,77.710037 8.88138913,77.480037 L8.61138913,71.650037 L7.71138913,69.760037 L7.83138913,61.230037 C7.99138913,59.990037 8.95138913,58.710037 8.93138913,58.730037 C9.03138913,58.590037 9.13138913,57.770037 9.12138913,56.950037 C9.12138913,55.820037 9.02138913,54.600037 8.98138913,54.250037 L7.70138913,52.140037 L7.70138913,22.460037 L7.89138913,22.330037 C9.00138913,21.520037 8.98138913,21.520037 8.96138913,21.370037 C8.96138913,21.170037 8.87138913,20.690037 8.87138913,19.860037 C8.87138913,19.030037 8.92138913,18.610037 8.92138913,18.480037 L8.89138913,18.480037 C8.78138913,18.380037 8.56138913,18.180037 8.24138913,17.800037 C8.00138913,17.820037 7.62138913,17.840037 7.24138913,17.860037 C7.19138913,17.980037 7.07138913,18.120037 6.83138913,18.140037 C6.52138913,18.070037 6.46138913,18.000037 6.32138913,17.890037 L6.28138913,17.890037 C6.14138913,17.890037 6.07138913,17.890037 5.91138913,17.860037 C5.89138913,17.820037 5.65138913,17.880037 5.56138913,17.410037 C5.61138913,17.200037 5.67138913,17.100037 5.72138913,17.050037 C5.47138913,16.780037 5.23138913,16.510037 5.14138913,16.390037 L1.27138913,12.690037 C0.761390129,11.850037 0.511389129,11.670037 0.411389129,11.610037 C0.321389129,11.600037 -0.0986098713,11.120037 0.0213902287,10.840037 C0.0213902287,10.600037 0.0313885287,10.269997 0.0313885287,9.619997 C0.0413885287,8.509997 -0.0186114713,8.209997 0.281388129,7.779997 C0.531388129,7.479997 0.691390129,7.479997 1.27138913,6.539997 L1.40138913,6.319997 L7.62138913,6.319997 C8.46138913,5.729997 10.2413891,5.559997 12.2813891,5.259997 C14.4713891,4.989997 16.7213891,4.819997 17.4813891,4.819997 L23.6513891,5.029997 C29.8713891,5.029997 32.1613891,4.419997 35.4313891,4.419997 C36.8813891,4.419997 38.5213891,4.539997 40.7613891,4.899997 L41.0513891,4.939997 L41.1213891,5.229997 C41.5813891,7.039997 43.3513891,7.809997 44.2213891,8.559997 C44.3813891,8.539997 44.6113891,8.509997 44.9013891,8.509997 C45.6713891,8.509997 46.8613891,8.649997 47.9413891,9.379997 C51.8313891,12.030037 53.9513891,18.380037 53.9713891,21.730037 C53.9713891,25.080037 54.7313891,28.210037 54.7313891,30.710037 C54.7313891,32.170037 54.4513891,33.480037 53.5913891,34.310037 L49.2513891,42.420037 C47.6313891,45.470037 43.7813891,50.110037 42.4713891,51.660037 C42.5513891,51.820037 42.9713891,52.390037 43.8013891,52.830037 C44.7413891,53.380037 46.1113891,53.890037 47.7813891,54.060037 C48.8313891,54.230037 49.3313891,55.090037 49.2913891,55.870037 C49.2713891,57.410037 48.0713891,59.120037 47.9513891,59.280037 C47.9313891,59.280037 47.8513891,59.390037 47.8513891,59.640037 C47.8413891,59.940037 47.9713891,60.390037 48.1513891,60.710037 C48.3413891,61.060037 48.5713891,61.170037 48.5813891,61.160037 C48.5813891,61.160037 48.6313891,61.180037 48.7713891,60.970037 L49.0613891,60.510037 L49.4613891,60.890037 C51.2513891,62.650037 51.4813891,63.150037 51.5313891,63.620037 C51.5713891,63.780037 51.2113891,63.470037 52.6213891,64.560037 L52.8613891,64.740037 L52.7913891,65.030037 C52.7913891,65.030037 51.8213891,68.960037 51.8213891,73.010037 C51.8213891,75.020037 52.0613891,77.050037 52.7513891,78.620037 C53.0713891,79.580037 55.0313891,80.090037 55.2213891,81.560037 C55.2213891,81.880037 55.0813891,82.180037 54.8513891,82.440037 C54.8513891,82.860037 54.8613891,83.980037 54.8613891,85.180037 C54.8613891,85.950037 54.8613891,86.740037 54.8513891,87.420037 L54.8513891,87.880037 C54.8513891,91.550037 55.5313891,95.070037 55.5313891,98.280037 C55.5313891,100.790137 55.1013891,103.140137 53.5313891,105.160137 C53.4713891,105.230137 53.3913891,105.470137 53.4013891,105.860137 L53.4513891,105.860137 Z M37.4713891,25.380037 C37.5113891,25.260037 37.3913891,25.000037 37.7213891,24.820037 L39.4113891,23.630037 C37.4913891,22.980037 35.8113891,24.150037 34.1913891,20.850037 L33.6613891,20.850037 L28.5013891,21.580037 L28.8113891,20.850037 C28.8713891,20.710037 28.9013891,20.590037 28.9113891,20.460037 C28.7813891,20.530037 28.6213891,20.600037 28.4813891,20.660037 C28.1913891,21.490037 28.2413891,21.890037 28.2213891,22.310037 C28.2313891,22.840037 27.9113891,23.360037 27.0613891,23.820037 L27.0613891,46.120037 C27.5213891,45.970037 27.9213891,45.910037 28.2513891,45.910037 L28.3013891,45.910037 C28.9413891,45.910037 29.3913891,46.190037 29.5613891,46.290037 C31.8813891,45.600037 30.9013891,39.900037 37.5213891,39.110037 C37.5213891,38.520037 37.4813891,37.580037 37.4813891,36.510037 C37.5613891,33.880037 37.4813891,30.670037 38.6213891,29.400037 C38.3313891,28.590037 37.5013891,26.270037 37.4713891,25.370037 L37.4713891,25.380037 Z M38.4213891,104.830137 C38.4513891,104.050137 38.8613891,103.350137 38.8313891,102.850137 C38.8213891,102.540137 38.7713891,102.330137 38.3213891,102.030137 L37.7513891,101.670137 L38.2913891,101.280137 C38.6213891,101.040137 38.7213891,100.800137 38.7313891,100.350037 C38.7713891,98.980037 37.1913891,96.550037 37.1613891,94.270037 C37.1513891,93.240037 37.5313891,92.190037 38.5513891,91.400037 C38.5113891,88.660037 38.1013891,88.300037 37.7213891,87.890037 C37.2213891,87.420037 36.6013891,86.730037 36.6413891,84.260037 C36.6813891,82.980037 37.8013891,80.660037 37.7813891,79.300037 C37.7713891,78.800037 37.6613891,78.590037 37.4513891,78.490037 L37.0613891,78.280037 L37.2513891,77.890037 C37.4713891,77.460037 37.5513891,77.050037 37.5513891,76.650037 C37.5613891,75.210037 36.4513891,73.960037 36.4413891,73.960037 L35.8013891,73.250037 L36.7513891,73.200037 C36.9013891,73.200037 37.0013891,73.170037 37.0413891,73.160037 C37.0013891,72.880037 36.2013891,72.020037 36.1313891,71.180037 C36.1213891,70.930037 36.2513891,70.620037 36.4413891,70.520037 C36.5713891,70.380037 36.6113891,70.270037 36.6113891,70.090037 C36.6913891,69.170037 34.7313891,67.320037 34.7813891,67.370037 C32.5413891,66.150037 29.9813891,63.680037 29.9513891,63.660037 L27.0713891,60.690037 C27.1113891,62.200037 27.1613891,64.950037 27.1613891,67.460037 C27.1613891,69.300037 27.1313891,71.000037 27.0413891,72.030037 L27.0413891,72.170037 L26.9413891,72.280037 C26.5113891,72.800037 26.2913891,73.890037 26.3113891,75.110037 C26.3113891,77.550037 27.0313891,80.390037 27.0313891,80.390037 L27.0613891,80.490037 L25.8213891,86.510037 L25.6013891,86.600037 C25.0213891,86.850037 24.7813891,87.180037 24.7213891,87.800037 C24.7213891,87.860037 24.7113891,87.910037 24.7113891,87.940037 C24.7213891,88.550037 25.0113891,88.980037 25.6113891,89.230037 L25.8813891,89.340037 L25.8813891,111.350137 L25.7713891,111.490137 C25.1613891,112.150137 24.7813891,112.290137 24.7113891,112.840137 C24.6413891,113.260137 24.5913891,113.530137 24.5413891,113.730137 C24.4513891,113.850137 24.5313891,113.990137 24.3513891,114.120137 C24.3813891,115.250137 24.4113891,117.840137 24.4113891,123.410137 C24.4113891,123.410137 24.5113891,126.280137 24.5713891,127.490137 C24.6113891,127.520137 24.6613891,127.560137 24.6813891,127.600137 C24.7813891,127.730137 24.7813891,127.840137 24.7813891,127.890137 C24.7013891,128.410137 24.1113891,129.350137 23.4713891,130.610137 C23.1713891,131.170137 22.8613891,131.720137 22.6313891,132.140137 C23.5213891,132.020137 24.8913891,131.790137 25.7413891,131.470137 L28.4613891,129.000137 L28.6113891,129.000137 C30.5713891,128.950137 33.0413891,124.810137 34.7013891,123.540137 C36.3713891,122.170137 35.6113891,117.430137 36.3413891,113.560137 L36.3713891,113.390137 L36.4813891,113.310137 C36.4813891,113.310137 36.5313891,113.190137 36.5813891,113.100137 C36.6613891,112.900137 36.7713891,112.630137 36.8813891,112.300137 C37.1113891,111.640137 37.3713891,110.750137 37.6213891,109.840137 C38.1213891,108.030137 38.5613891,106.010137 38.5513891,105.470137 C38.4513891,105.260137 38.4113891,105.030137 38.4113891,104.830137 L38.4213891,104.830137 Z M279.151289,124.810137 C279.371289,125.190137 279.601289,125.750137 279.601289,126.500137 C279.601289,127.100137 279.461289,127.800137 279.121289,128.660137 C278.491289,130.130137 278.901289,130.550137 276.101289,144.110137 L276.001289,144.590137 L275.541289,144.450137 C275.541289,144.450137 271.301289,143.190137 270.221289,142.180137 C264.021289,136.150137 262.391289,135.800137 259.771289,135.790137 C259.261289,135.790137 258.721289,135.790137 258.091289,135.790137 C258.041289,135.790137 258.001289,135.790137 257.981289,135.790137 L257.631289,135.830137 L257.511289,135.520137 C257.451289,135.370137 257.441289,135.230137 257.441289,135.080137 C257.481289,132.980137 260.931289,125.090137 261.561289,121.720137 C261.841289,120.310137 262.041289,114.380137 262.041289,110.370137 C262.041289,108.550137 261.991289,107.070137 261.911289,106.590137 L261.911289,106.540137 C261.911289,105.930137 261.201289,100.950137 260.051289,96.140037 C258.991289,91.320037 257.131289,86.540037 255.921289,86.450037 L255.531289,86.350037 L255.581289,85.950037 C255.931289,83.170037 256.691289,79.370037 256.681289,77.900037 C256.691289,77.630037 256.661289,77.490037 256.651289,77.480037 C254.941289,74.220037 251.471289,67.730037 249.481289,66.830037 C249.551289,67.430037 249.621289,67.920037 249.621289,68.420037 C249.621289,69.540037 249.291289,70.610037 248.231289,72.850037 C247.761289,73.780037 247.081289,74.740037 247.101289,75.440037 L247.101289,75.540037 L247.121289,75.660037 L247.081289,75.750037 L247.081289,75.910037 C247.071289,78.980037 250.081289,103.440137 250.081289,105.740137 L250.081289,105.790137 L250.111289,106.060137 L249.871289,106.210137 C249.871289,106.210137 249.861289,106.230137 249.791289,106.300137 C249.731289,106.380137 249.631289,106.490137 249.561289,106.620137 C249.391289,106.880137 249.251289,107.220137 249.251289,107.550137 C249.251289,107.600137 249.251289,107.610137 249.261289,107.650137 C249.191289,107.910137 250.131289,108.570137 250.281289,109.720137 C250.391289,111.160137 250.511289,112.850137 250.511289,114.570137 C250.511289,117.060137 250.291289,119.630137 249.471289,121.610137 C249.621289,124.180137 250.691289,130.600137 250.691289,133.640137 C250.691289,134.050137 250.681289,134.410137 250.621289,134.710137 L250.621289,134.810137 L250.541289,134.900137 C250.141289,135.500137 249.951289,135.520137 249.501289,135.810137 C249.561289,136.290137 249.691289,137.000137 249.691289,138.130137 C249.691289,139.680137 249.461289,142.030137 248.581289,145.770137 L248.241289,147.250137 L247.721289,145.820137 C245.161289,138.830137 241.151289,134.620137 237.781289,131.900137 C234.391289,129.070137 231.661289,128.240137 231.431289,126.500137 C231.491289,126.440137 235.511289,112.030137 237.301289,110.330137 C237.451289,110.090137 237.561289,109.400137 237.551289,108.640137 C237.551289,107.540137 237.391289,106.250137 237.271289,105.410137 C236.931289,105.100137 236.681289,104.890137 236.281289,104.620137 L236.071289,104.480137 L236.091289,104.220137 C236.101289,103.980137 236.101289,100.240037 236.101289,95.450037 C236.101289,86.330037 236.091289,73.260037 236.091289,71.890037 C235.661289,71.100037 235.881289,69.900037 235.661289,69.560037 L235.671289,69.560037 L235.501289,69.440037 L234.941289,64.450037 C234.451289,63.740037 234.151289,62.390037 233.961289,62.380037 L233.761289,62.250037 L233.761289,62.030037 C233.761289,62.030037 233.721289,60.790037 233.721289,59.560037 C233.721289,59.020037 233.721289,58.470037 233.751289,58.030037 C233.501289,57.600037 233.491289,57.100037 233.381289,56.470037 C233.291289,55.770037 233.161289,55.010037 233.051289,54.740037 L233.051289,54.710037 L232.841289,54.560037 L232.861289,54.310037 C232.861289,54.310037 232.861289,54.170037 232.861289,53.910037 C232.871289,53.160037 232.771289,51.460037 232.311289,50.500037 C231.851289,49.890037 231.981289,49.060037 231.861289,47.930037 C231.821289,46.950037 231.721289,45.840037 231.631289,45.600037 L231.491289,45.500037 L231.421289,39.490037 C230.461289,38.530037 230.211289,37.980037 230.211289,37.480037 C230.211289,37.280037 230.251289,37.160037 230.241289,37.110037 C230.241289,37.110037 230.261289,36.910037 229.281289,36.190037 L229.121289,36.070037 L229.101289,35.880037 C228.911289,34.470037 228.821289,32.470037 228.821289,30.470037 C228.821289,28.470037 228.911289,26.450037 229.101289,25.040037 L229.101289,24.890037 L229.211289,24.780037 C231.131289,22.890037 236.491289,20.210037 240.061289,15.250037 C239.151289,14.920037 236.761289,14.290037 236.261289,14.210037 C236.221289,14.250037 236.151289,14.330037 236.061289,14.440037 C235.901289,14.650037 235.661289,14.990037 235.201289,15.130037 C234.791289,15.240037 234.471289,15.440037 233.961289,15.440037 C233.601289,15.440037 233.231289,15.330037 232.821289,15.090037 L232.601289,14.970037 L232.601289,14.730037 C232.501289,12.890037 230.431289,10.560037 228.261289,8.739997 C226.261289,7.039997 224.411289,5.869997 223.791289,5.339997 L219.531289,4.419997 L219.611289,3.529997 L236.501289,3.059997 C238.021289,2.359997 238.341289,2.249997 239.451289,2.269997 C240.591289,2.209997 240.831289,2.709997 241.431289,3.529997 L247.581289,3.529997 L247.651289,3.649997 C247.721289,3.669997 247.811289,3.719997 247.941289,3.759997 C248.201289,3.869997 248.571289,3.989997 249.011289,4.139997 C249.901289,4.439997 251.081289,4.819997 252.251289,5.189997 C254.551289,5.909997 256.821289,6.599997 256.811289,6.619997 C257.101289,6.619997 257.491289,6.599997 257.921289,6.599997 C258.351289,6.599997 258.831289,6.609997 259.331289,6.689997 C261.351289,6.959997 263.171289,8.279997 264.651289,9.489997 C266.041289,10.710037 267.351289,11.810037 267.431289,11.720037 L267.711289,11.720037 L273.681289,24.320037 C273.871289,24.870037 273.891289,25.820037 273.891289,26.950037 C273.891289,29.120037 273.721289,31.760037 273.721289,31.760037 L273.691289,31.980037 L273.521289,32.100037 C273.521289,32.100037 273.231289,32.640037 273.081289,33.250037 C272.891289,33.790037 272.801289,34.300037 272.541289,34.690037 C272.561289,35.350037 272.561289,36.090037 272.561289,36.770037 C272.561289,38.270037 272.541289,39.600037 272.511289,39.700037 C270.331289,48.290037 266.281289,55.190037 258.831289,55.470037 C258.831289,56.520037 258.861289,57.160037 258.861289,57.590037 C258.881289,58.500037 258.621289,58.680037 258.131289,59.160037 L258.431289,59.160037 C259.311289,59.170037 260.041289,58.840037 261.021289,58.820037 C262.411289,58.820037 263.921289,59.600037 266.441289,62.630037 C268.121289,63.400037 267.701289,65.460037 267.941289,66.240037 C268.011289,66.530037 268.061289,66.560037 268.151289,66.590037 C269.051289,66.920037 269.541289,67.120037 269.881289,67.300037 C270.221289,67.450037 270.471289,67.870037 270.431289,68.150037 C270.421289,68.310037 270.401289,68.420037 270.411289,68.560037 C270.411289,68.810037 270.451289,69.180037 270.781289,69.900037 C271.141289,70.790037 271.251289,73.500037 271.691289,73.800037 C272.151289,74.680037 272.171289,77.350037 272.301289,80.200037 C272.371289,82.940037 272.621289,85.920037 272.781289,85.950037 C273.081289,86.220037 273.011289,86.470037 273.131289,86.790037 C273.201289,87.170037 273.271289,87.620037 273.371289,88.060037 C273.531289,88.990037 273.901289,89.550037 274.111289,89.510037 C274.181289,89.510037 274.351289,89.460037 274.591289,89.310037 L274.991289,89.050037 L275.221289,89.470037 C275.811289,90.610037 277.261289,102.220137 277.441289,103.150137 L277.461289,103.340137 L277.371289,103.500137 C277.081289,103.800137 276.651289,107.230137 276.651289,107.790137 C276.731289,107.920137 277.141289,108.080137 277.851289,108.250137 L278.031289,108.290137 L278.121289,108.450137 C278.571289,109.200137 279.631289,111.520137 279.691289,112.730137 L279.741289,112.890137 L279.611289,113.080137 C279.231289,113.640137 279.161289,113.930137 279.151289,114.270137 C279.141289,114.900137 279.591289,115.900137 279.591289,118.170137 C279.591289,119.580137 279.421289,121.490137 278.861289,124.250137 C278.871289,124.250137 278.861289,124.250137 278.921289,124.320137 C278.971289,124.430137 279.081289,124.580137 279.181289,124.770137 L279.151289,124.810137 Z M257.841289,41.200037 C257.841289,39.950037 258.101289,38.660037 258.101289,38.640037 L258.211289,38.090037 L258.481289,38.210037 C258.531289,38.110037 258.581289,37.970037 258.631289,37.830037 C258.781289,37.520037 258.811289,37.190037 259.061289,36.900037 L259.081289,34.460037 C259.081289,34.460037 259.221289,33.970037 259.221289,33.110037 C259.221289,32.010037 259.001289,30.360037 257.991289,28.530037 C257.971289,28.510037 256.211289,26.010037 254.111289,23.520037 C252.041289,21.000037 249.411289,18.540037 248.421289,18.630037 C248.151289,18.630037 247.911289,18.610037 247.691289,18.610037 L247.441289,18.610037 L247.441289,53.090037 C247.781289,53.120037 248.301289,53.150037 248.831289,53.150037 C249.281289,53.160037 249.761289,53.130037 250.121289,53.060037 C252.021289,52.720037 254.031289,51.350037 254.511289,50.700037 C255.591289,49.370037 257.111289,44.040037 257.901289,42.090037 C257.861289,41.810037 257.851289,41.520037 257.851289,41.210037 L257.841289,41.200037 Z M323.501289,55.120037 C323.491289,57.660037 323.401289,59.830037 323.041289,60.900037 L322.991289,61.030037 L322.881289,61.120037 C322.561289,61.230037 321.991289,63.240037 321.281289,64.140037 C321.261289,64.410037 321.251289,64.700037 321.251289,65.000037 C321.251289,66.390037 321.441289,68.050037 321.441289,69.650037 C321.441289,71.050037 321.301289,72.410037 320.701289,73.550037 C319.691289,75.870037 318.411289,77.140037 317.971289,77.560037 L317.211289,83.300037 C316.111289,86.130037 316.771289,86.690037 316.351289,87.520037 C316.431289,88.620037 317.021289,97.370037 317.021289,103.950137 C317.021289,106.830137 316.911289,109.270137 316.551289,110.650137 C315.761289,112.500137 315.651289,114.520137 315.651289,116.650137 L315.651289,118.400137 C315.651289,120.610137 315.561289,122.920137 314.681289,125.110137 L313.461289,131.680137 C312.431289,134.510137 312.421289,135.110137 311.031289,136.790137 C310.421289,138.050137 310.151289,138.440137 309.791289,138.700137 C309.451289,138.930137 309.411289,138.840137 308.831289,139.490137 C308.311289,140.840137 305.931289,141.210137 303.181289,142.090137 C300.271289,142.880137 296.951289,143.720137 295.321289,144.600137 C295.201289,144.640137 295.091289,144.640137 294.991289,144.640137 C293.751289,144.570137 292.161289,143.150137 291.581289,143.230137 C291.511289,143.230137 291.511289,143.240137 291.501289,143.240137 C291.011289,144.130137 289.711289,144.320137 288.191289,144.690137 C286.561289,145.010137 284.691289,145.200137 283.511289,145.200137 C282.971289,145.200137 282.641289,145.200137 282.311289,145.040137 L281.781289,144.750137 L282.211289,144.330137 C283.921289,142.620137 285.641289,139.750137 285.941289,136.330137 C285.941289,136.140137 285.961289,135.950137 285.961289,135.730137 C285.961289,133.060137 284.601289,129.350137 284.591289,129.350137 L284.441289,128.940137 L284.841289,128.780137 C286.521289,128.180137 290.031289,126.530137 289.781289,125.910137 C289.781289,125.560137 289.711289,125.410137 289.691289,125.390137 C289.671289,125.380137 289.691289,125.390137 289.641289,125.370137 C289.621289,125.360137 289.591289,125.360137 289.531289,125.360137 C289.311289,125.360137 288.851289,125.370137 288.601289,124.840137 L287.251289,121.490137 L284.871289,116.010137 L287.031289,94.650037 C284.351289,91.720037 281.861289,83.310037 281.791289,82.500037 L281.791289,79.030037 C281.891289,78.030037 280.741289,77.870037 280.631289,76.230037 C280.631289,76.230037 280.351289,72.030037 280.351289,68.830037 C280.361289,67.440037 280.381289,66.320037 280.561289,65.610037 C280.261289,65.340037 280.031289,65.150037 279.671289,64.900037 L279.451289,64.760037 L279.931289,56.620037 C279.671289,56.150037 279.661289,55.550037 279.501289,54.780037 C279.371289,53.940037 279.231289,53.010037 279.091289,52.650037 L279.091289,52.600037 L278.891289,52.460037 L278.891289,28.660037 L279.101289,28.520037 C279.471289,28.260037 279.721289,28.030037 280.061289,27.740037 L280.061289,18.560037 L280.261289,18.430037 C280.631289,18.180037 280.881289,17.940037 281.221289,17.650037 L281.221289,11.110037 C280.021289,9.959997 271.231289,1.609997 270.821289,1.109999 L270.241289,0.3799994 L276.971289,0.3799994 L277.101289,0.609999 C277.331289,1.029999 277.541289,1.29 277.811289,1.649997 L281.751289,1.649997 L281.821289,2.009997 C281.751289,3.179997 287.361289,3.839997 290.031289,6.689997 L293.881289,6.689997 L294.011289,6.909997 C294.411289,7.589997 294.771289,7.939997 295.291289,8.579997 L299.121289,8.579997 L299.261289,8.799997 C299.501289,9.209997 299.701289,9.489997 299.971289,9.839997 L304.971289,9.839997 L305.091289,10.059997 C305.331289,10.480037 305.521289,10.750037 305.791289,11.100037 L311.221289,11.100037 L311.361289,11.320037 C313.101289,14.160037 316.501289,16.010037 317.211289,17.350037 C321.171289,25.680037 320.371289,26.400037 321.731289,27.270037 L321.931289,27.400037 L321.601289,39.450037 C321.891289,39.910037 322.011289,40.570037 322.271289,41.370037 C322.521289,42.230037 322.801289,43.180037 322.941289,43.360037 L323.081289,43.460037 L323.081289,43.680037 C323.081289,43.680037 323.531289,50.040037 323.531289,55.110037 L323.501289,55.120037 Z M305.831289,74.920037 C305.831289,71.680037 307.521289,70.290037 308.111289,69.910037 C308.321289,68.710037 309.161289,63.030037 310.871289,61.510037 L310.871289,49.960037 C310.011289,49.210037 309.641289,47.640037 309.231289,46.050037 C308.831289,44.380037 308.461289,42.560037 308.331289,42.430037 C306.981289,40.430037 304.171289,39.720037 303.891289,36.600037 C301.111289,36.300037 300.741289,33.890037 299.651289,34.110037 C297.431289,34.110037 296.291289,33.940037 294.611289,33.940037 C294.081289,33.940037 293.491289,33.950037 292.821289,33.990037 L292.361289,38.360037 L292.691289,39.870037 C292.691289,39.870037 293.181289,52.560037 293.181289,57.310037 L293.181289,58.330037 C293.181289,58.340037 293.201289,58.350037 293.201289,58.360037 C293.321289,58.580037 293.461289,58.870037 293.581289,59.150037 C293.841289,59.720037 294.071289,60.280037 294.081289,60.280037 L294.101289,60.370037 L294.101289,60.460037 C294.011289,61.870037 295.531289,67.490037 296.201289,67.630037 L296.441289,67.750037 L296.271289,123.450137 C297.991289,121.340137 301.871289,115.940137 301.851289,110.540137 C301.851289,110.340137 301.851289,110.150137 301.851289,109.810137 C303.161289,105.350137 304.601289,103.850137 305.041289,101.310137 C305.041289,101.310137 305.041289,101.270137 305.041289,101.200137 C305.061289,99.800037 305.021289,78.320037 305.851289,75.480037 C305.851289,75.280037 305.831289,75.090037 305.831289,74.900037 L305.831289,74.920037 Z M107.761289,123.080137 L107.041289,122.790137 C106.231289,122.470137 105.801289,122.430137 105.331289,122.420137 C105.091289,122.420137 104.831289,122.440137 104.521289,122.440137 L104.291289,122.440137 L104.201289,122.320137 C104.201289,122.320137 104.131289,122.300137 104.061289,122.300137 C103.811289,122.300137 103.261289,122.400137 102.291289,122.890137 L102.051289,123.010137 L101.841289,122.860137 C101.511289,122.590137 99.5113891,122.350137 97.2713891,122.380137 C93.8013891,122.370137 89.4313891,122.780137 88.2513891,123.260137 C86.5913891,124.870137 86.1513891,125.270137 85.5313891,125.340137 L85.5113891,125.340137 C85.2513891,125.340137 85.0613891,125.170137 85.0313891,125.130137 L85.0413891,125.120137 C85.0313891,125.120137 85.0313891,125.120137 85.0313891,125.120137 C84.2813891,124.900137 84.2413891,124.310137 83.4213891,123.790137 L83.0313891,123.520137 L83.3313891,123.150137 C86.6913891,118.940137 84.8213891,120.210137 88.6713891,117.630137 C89.5713891,114.880137 89.6813891,105.390137 89.6613891,102.530137 L89.6613891,101.430137 L89.8613891,101.300137 C90.9213891,100.500137 90.8613891,100.500137 90.8813891,100.220037 C90.8813891,100.020037 90.8413891,99.670037 90.8313891,99.150037 C90.9313891,98.310037 89.7013891,97.610037 89.6613891,95.370037 C89.6913891,93.810037 90.1813891,91.540037 91.2013891,90.410037 L90.8313891,40.610037 L91.0013891,40.480037 C91.3713891,40.170037 91.6613891,40.000037 91.8413891,39.870037 C91.9313891,39.820037 91.9813891,39.790037 92.0113891,39.770037 C92.0113891,39.730037 92.0113891,39.680037 92.0013891,39.630037 C92.0413891,39.440037 91.6913891,39.370037 91.0313891,38.990037 L90.8413891,38.850037 L89.3413891,13.500037 C89.0613891,12.400037 88.0513891,12.030037 86.8813891,11.690037 C85.9213891,11.400037 84.7013891,11.140037 84.4013891,10.049997 C83.3113891,10.039997 82.8713891,9.969997 82.4913891,9.559997 C82.1713891,9.189997 82.1313891,8.869997 81.0213891,8.069997 L80.6413891,7.799997 L80.9313891,7.429997 C81.3613891,6.869997 81.9313891,6.149997 82.0613891,5.919997 L82.2313891,5.609997 L82.5713891,5.709997 C83.7513891,6.049997 89.1413891,6.279997 94.2213891,6.269997 C98.8913891,6.269997 103.511289,6.059997 104.411289,5.719997 L104.761289,5.579997 L104.951289,5.909997 C105.381289,6.639997 105.771289,6.989997 106.371289,7.739997 L106.471289,7.859997 L106.471289,10.259997 L106.141289,10.349997 C103.291289,11.110037 100.211289,13.740037 100.271289,15.910037 C100.311289,17.640037 100.491289,17.520037 100.621289,17.620037 C100.971289,17.730037 101.531289,18.270037 101.441289,19.690037 C101.461289,20.820037 100.851289,21.440037 100.401289,21.770037 C99.9313891,22.150037 99.7213891,22.250037 99.7013891,22.840037 C99.7013891,26.590037 100.231289,36.690037 100.231289,45.250037 C100.231289,49.400037 100.101289,53.180037 99.7413891,55.770037 C100.131289,56.180037 100.121289,56.760037 100.261289,57.370037 C100.381289,58.110037 100.491289,58.930037 100.641289,59.210037 C100.671289,59.290037 100.671289,59.280037 100.671289,59.280037 L100.851289,59.390037 L101.491289,63.090037 L101.251289,63.250037 C100.781289,63.570037 100.531289,63.730037 100.161289,64.130037 C99.5013891,64.840037 99.3013891,65.900037 99.3013891,66.970037 C99.3013891,68.040037 99.5113891,69.120037 99.5213891,69.770037 C99.5013891,70.100037 99.4013891,70.350037 99.4013891,71.120037 C99.4013891,71.750037 99.4713891,72.710037 99.7813891,74.130037 C99.9213891,74.890037 99.7813891,76.450037 99.9513891,77.280037 C99.9913891,77.550037 100.041389,77.620037 100.061389,77.620037 L100.251289,77.720037 L100.281289,77.930037 C100.401289,78.690037 100.431289,79.470037 100.431289,80.190037 C100.431289,81.620037 100.281289,82.780037 100.281289,82.800037 L100.261289,83.000037 L100.091289,83.120037 C99.6313891,83.430037 99.3913891,83.610037 99.0013891,84.000037 C98.2213891,84.810037 98.0113891,85.400037 98.0013891,86.080037 C97.9713891,87.460037 99.1213891,89.390037 99.1313891,92.790037 L99.1313891,93.250037 C99.2313891,93.910037 100.371289,97.210037 100.731289,97.640037 L100.921289,97.780037 L100.291289,106.640137 L100.101289,106.760137 C99.6013891,107.090137 99.3513891,107.230137 99.0413891,107.620137 C98.6713891,108.080137 98.5613891,108.490137 98.5513891,108.980137 C98.5513891,109.710137 98.8713891,110.590137 99.1213891,111.650137 C100.081289,115.620137 99.7513891,113.410137 107.041289,118.670137 L107.191289,118.780137 L107.791289,123.070137 L107.761289,123.080137 Z M149.081289,148.480137 L132.751289,148.480137 L132.621289,148.250137 C132.381289,147.850137 132.181289,147.580137 131.911289,147.220137 L128.091289,147.220137 L127.961289,147.010137 C127.271289,145.920137 127.001289,145.910137 126.771289,145.890137 C126.621289,145.890137 126.391289,145.940137 126.081289,145.950137 C125.501289,145.950137 124.831289,145.660137 124.051289,144.690137 L112.861289,144.690137 C111.021289,144.580137 110.561289,143.550137 110.231289,143.010137 C107.911289,142.820137 93.3613891,142.790137 85.6613891,142.790137 L80.5813891,142.790137 L80.4413891,142.580137 C80.0313891,141.720137 77.1213891,140.850137 77.0413891,140.900137 L72.8013891,140.900137 C71.9513891,141.460137 66.0113891,145.320137 65.5113891,146.910137 L65.3713891,147.260137 L65.0113891,147.200137 C65.0113891,147.200137 61.2613891,146.580137 58.1213891,146.580137 C56.5613891,146.580137 55.1213891,146.770137 54.5313891,147.140137 L54.1313891,147.390137 L53.9013891,146.980137 C53.6313891,146.510137 53.4213891,146.250137 52.8713891,145.870137 L52.4713891,145.580137 L52.7713891,145.210137 C53.6013891,144.140137 53.5213891,144.760137 53.8513891,143.210137 L53.8913891,142.990137 L57.3113891,141.170137 C58.6513891,139.850137 58.4613891,140.420137 61.4313891,137.730137 L61.4313891,132.320137 L61.6313891,132.200137 C61.9313891,132.020137 62.6213891,131.620137 62.6013891,131.000137 C62.6013891,130.520137 62.2613891,130.250137 61.6213891,129.790137 L61.4313891,129.650137 L61.4313891,120.040137 L61.6313891,119.900137 C62.0013891,119.650137 62.2613891,119.420137 62.6013891,119.130137 L62.6013891,115.000137 L62.7913891,114.870137 C63.8813891,114.070137 63.8013891,114.140137 63.8013891,113.930137 C63.8013891,113.770137 63.7713891,113.470137 63.7713891,113.040137 C63.7713891,111.530137 62.6613891,110.660137 61.6313891,109.930137 L61.4413891,109.800137 L61.4013891,93.760037 L61.6813891,93.640037 C62.4613891,93.270037 62.1913891,93.410037 62.5913891,92.760037 C62.3813891,91.250037 62.3113891,89.820037 62.3113891,88.580037 C62.3113891,86.020037 62.6113891,84.280037 62.6113891,84.260037 L62.6413891,84.070037 L62.8013891,83.960037 C63.1713891,83.710037 63.4313891,83.480037 63.7713891,83.190037 L63.7713891,70.540037 L63.9713891,70.410037 C64.2413891,70.270037 65.3113891,68.780037 65.2713891,67.660037 C65.2713891,67.600037 65.2713891,67.530037 65.2713891,67.460037 C65.2013891,66.490037 64.3113891,65.360037 63.9813891,65.160037 L63.7813891,65.030037 L63.7813891,47.330037 C63.4513891,47.030037 63.2113891,46.820037 62.8113891,46.560037 L62.6113891,46.430037 L62.6113891,36.810037 L62.8013891,36.680037 C63.7113891,36.040037 64.1013891,35.430037 64.9613891,34.630037 C65.0213891,33.960037 65.2113891,31.480037 65.2113891,29.270037 C65.2113891,28.060037 65.1513891,26.910037 65.0013891,26.250037 C64.6413891,25.930037 64.3913891,25.720037 63.9813891,25.440037 L63.5813891,25.160037 L63.8813891,24.790037 C64.3913891,24.180037 65.8713891,20.320037 65.8313891,19.210037 L65.8313891,19.120037 C65.5613891,15.880037 63.8513891,12.680037 63.8213891,12.620037 C63.7713891,12.190037 62.4113891,11.900037 61.4913891,11.940037 C61.3013891,11.940037 61.1413891,11.940037 61.0213891,11.950037 L60.9313891,12.130037 L60.5213891,11.900037 C59.1613891,10.870037 60.9713891,10.179997 54.6413891,5.569997 L54.2613891,5.279997 L54.5513891,4.909997 C55.3813891,3.849997 55.3013891,4.459997 55.6213891,2.899997 L55.6913891,2.539997 L57.7713891,2.539997 L57.9113891,2.769997 C58.1513891,3.189997 58.3413891,3.449997 58.6113891,3.799997 L67.9813891,3.799997 L68.1113891,4.009997 C69.4513891,6.169997 70.2713891,6.429997 70.8013891,6.429997 C71.1813891,6.439997 71.5313891,6.249997 72.0513891,6.229997 C72.2313891,6.229997 72.4413891,6.279997 72.7413891,6.499997 C72.7513891,6.499997 76.3913891,11.020037 77.9013891,12.090037 L78.0913891,12.220037 L78.0913891,24.030037 L77.9013891,24.170037 C77.0613891,24.810037 76.9713891,24.830037 76.9313891,25.690037 L76.9313891,25.790037 C76.9213891,25.870037 77.0213891,26.680037 79.0713891,28.160037 L79.2513891,28.290037 L79.2513891,33.810037 L79.0513891,33.950037 C78.6713891,34.210037 78.4213891,34.410037 78.0913891,34.720037 L78.0913891,59.550037 C79.1413891,60.470037 79.7413891,60.520037 80.3713891,61.760037 C80.9213891,62.920037 81.0313891,65.950037 81.0513891,69.730037 C81.0513891,77.220037 80.4213891,87.200037 80.4213891,87.200037 L80.4013891,87.420037 L80.2213891,87.550037 C79.8313891,87.810037 79.5813891,88.020037 79.2513891,88.320037 L79.2513891,96.740037 C79.6013891,97.040037 79.9013891,97.300037 80.2313891,97.520037 L80.3813891,97.620037 L80.4113891,97.810037 C80.4913891,98.280037 80.5113891,99.130037 80.5213891,100.120037 C80.5213891,102.090137 80.4213891,104.520137 80.4213891,104.530137 L80.4013891,104.890137 L80.0413891,104.950137 C78.6113891,105.170137 78.7313891,106.120137 78.1313891,107.920137 C79.0113891,109.170137 79.2613891,108.960137 79.2413891,110.130137 L79.2413891,110.510137 C79.3313891,111.920137 79.0013891,112.120137 78.0813891,112.920137 L78.0813891,118.300137 L77.8813891,118.440137 C77.4913891,118.710137 77.2413891,118.910137 76.9113891,119.210137 L76.9113891,127.130137 L76.7213891,127.270137 C75.9713891,127.820137 76.0013891,128.040137 75.7213891,128.920137 C75.6613891,129.120137 75.6313891,129.250137 75.6313891,129.310137 C75.3113891,129.380137 76.8413891,129.390137 76.9013891,132.760137 C79.0413891,132.800137 80.6313891,133.070137 82.6113891,133.070137 C83.6213891,133.070137 84.7413891,133.000137 86.1013891,132.800137 C87.0713891,131.310137 87.5513891,131.140137 89.4613891,129.930137 C89.6313891,129.890137 89.8113891,129.870137 89.9913891,129.870137 C91.9813891,129.910137 95.5513891,131.680137 99.5113891,131.670137 C101.391289,131.670137 103.331289,131.280137 105.191289,130.110137 C105.441289,129.380137 106.171289,129.350137 107.131289,129.100137 C108.211289,128.890137 109.701289,128.730137 111.501289,128.620137 C115.091289,128.390137 119.901289,128.310137 124.781289,128.310137 C135.171289,128.310137 145.911289,128.680137 145.921289,128.680137 L146.351289,128.680137 L146.351289,143.610137 L146.361289,143.610137 C146.391289,143.670137 146.451289,143.790137 146.501289,143.920137 C146.621289,144.200137 146.811289,144.570137 147.031289,145.010137 C147.461289,145.870137 148.041289,146.930137 148.611289,147.790137 L149.071289,148.500137 L149.081289,148.480137 Z M328.531289,8.079997 C328.531289,9.529997 327.821289,11.500037 322.981289,11.500037 C318.141289,11.500037 317.371289,9.529997 317.371289,8.079997 L317.371289,3.419997 C317.371289,2 318.131289,0 322.981289,0 C327.831289,0 328.531289,2 328.531289,3.419997 L328.531289,8.079997 Z M327.561289,3.339997 C327.561289,2.239997 326.801289,0.92 322.991289,0.92 C319.181289,0.92 318.371289,2.239997 318.371289,3.339997 L318.371289,8.159997 C318.371289,9.259997 319.161289,10.610037 322.991289,10.610037 C326.821289,10.610037 327.561289,9.289997 327.561289,8.189997 L327.561289,3.339997 Z M321.521289,6.739997 L321.521289,9.109997 C321.521289,9.239997 321.471289,9.349997 321.321289,9.349997 L320.741289,9.349997 C320.581289,9.349997 320.531289,9.239997 320.531289,9.109997 L320.531289,2.599997 C320.531289,2.449997 320.581289,2.369997 320.741289,2.369997 L323.231289,2.369997 C325.241289,2.369997 325.741289,3.339997 325.741289,4.239997 L325.741289,4.869997 C325.741289,5.549997 325.421289,6.289997 324.391289,6.609997 L325.481289,9.109997 C325.521289,9.239997 325.421289,9.349997 325.261289,9.349997 L324.651289,9.349997 C324.531289,9.349997 324.471289,9.239997 324.421289,9.109997 L323.411289,6.739997 L321.511289,6.739997 L321.521289,6.739997 Z M321.521289,3.159997 L321.521289,5.949997 L323.131289,5.949997 C324.271289,5.949997 324.751289,5.399997 324.751289,4.809997 L324.751289,4.289997 C324.751289,3.709997 324.291289,3.159997 323.131289,3.159997 L321.521289,3.159997 Z" id="Forma"></path>
                </g>
                <g id="NavbarFooter-blizzard-lower" transform="translate(11.7713, 158.3001)">
                    <path d="M9.2199,12.51 L8.8817842e-15,12.51 L8.8817842e-15,2.84217094e-14 L9.09,2.84217094e-14 L9.09,2.31 L3.12,2.31 L3.12,4.92 L8.8099,4.92 L8.8099,7.22 L3.12,7.22 L3.12,10.22 L9.2199,10.22 L9.2199,12.51 Z M35.48,12.54 L32.8599,12.54 L25.95,4.52 L25.95,12.52 L22.84,12.52 L22.84,0.02 L25.6899,0.02 L32.37,7.68 L32.37,0.04 L35.48,0.04 L35.48,12.54 Z M60.7899,2.36 L56.2599,2.36 L56.2599,12.55 L53.1499,12.55 L53.1499,2.34 L48.62,2.34 L48.62,0.05 L60.78,0.05 L60.78,2.36 L60.7899,2.36 Z M83.16,12.58 L73.94,12.58 L73.94,0.07 L83.02,0.09 L83.02,2.38 L77.05,2.38 L77.05,4.99 L82.75,4.99 L82.75,7.29 L77.05,7.29 L77.05,10.29 L83.16,10.29 L83.16,12.59 L83.16,12.58 Z M102.35,0.09 C104.92,0.09 106.44,1.82 106.44,3.69 C106.44,5.07 105.72,6.09 104.29,6.74 C105.58,7.38 105.96,8.93 107.71,12.6 L104.29,12.6 C102.95,9.92 102.46,7.51 100.77,7.51 L99.88,7.51 L99.88,12.58 L96.77,12.58 L96.77,0.07 L102.35,0.07 L102.35,0.09 Z M99.88,5.21 L101.53,5.21 C102.39,5.22 103.24,4.85 103.24,3.8 C103.24,2.86 102.63,2.38 101.46,2.38 L99.88,2.38 L99.88,5.21 Z M130.78,2.4 L126.26,2.4 L126.26,12.59 L123.15,12.59 L123.15,2.38 L118.62,2.38 L118.62,0.09 L130.78,0.11 L130.78,2.4 Z M154.9,12.62 L151.54,12.62 L150.52,10.14 L144.93,10.14 L143.99,12.61 L140.69,12.61 L145.73,0.11 L149.34,0.11 L154.9,12.62 Z M147.59,3.1 L145.75,7.95 L149.6,7.95 L147.59,3.1 Z M170.8,12.63 L167.68,12.63 L167.68,0.13 L170.8,0.13 L170.8,12.63 Z M197.55,12.66 L194.93,12.66 L188.02,4.63 L188.02,12.65 L184.91,12.65 L184.91,0.14 L187.76,0.14 L194.43,7.8 L194.43,0.16 L197.54,0.16 L197.54,12.67 L197.55,12.66 Z M222.31,0.18 L225.03,0.18 L225.03,12.68 L221.92,12.68 L221.92,4.87 L218.54,8.79 L218.07,8.79 L214.7,4.86 L214.7,12.66 L211.59,12.66 L211.59,0.16 L214.31,0.16 L218.32,4.81 L222.33,0.18 L222.31,0.18 Z M248.28,12.69 L239.06,12.69 L239.06,0.18 L248.15,0.2 L248.15,2.49 L242.18,2.49 L242.18,5.1 L247.88,5.1 L247.88,7.41 L242.18,7.41 L242.18,10.4 L248.28,10.4 L248.28,12.7 L248.28,12.69 Z M274.54,12.73 L271.92,12.73 L265.01,4.7 L265.01,12.72 L261.9,12.72 L261.9,0.21 L264.75,0.21 L271.43,7.87 L271.43,0.23 L274.54,0.23 L274.54,12.74 L274.54,12.73 Z M299.85,2.53 L295.32,2.53 L295.32,12.73 L292.2,12.73 L292.2,2.52 L287.67,2.52 L287.67,0.22 L299.84,0.24 L299.84,2.53 L299.85,2.53 Z" id="Forma"></path>
                </g>
            </g>
        </g>
    </g>
</svg>