<svg width="43" height="28" viewBox="0 0 43 28" fill="none" xmlns="http://www.w3.org/2000/svg">
<g id="menu_icon" clip-path="url(#clip0_16_114)">
<path id="Vector" fill-rule="evenodd" clip-rule="evenodd" d="M1.42785 12.6626H1.35991C0.648779 12.6626 -0.0306643 13.2778 0.00106969 14C0.0327607 14.7267 0.598942 15.3374 1.35991 15.3374H40.005C40.5259 15.3374 41.0513 15.3419 41.5721 15.3374H41.6401C42.3512 15.3374 43.0307 14.7222 42.9989 14C42.9627 13.2734 42.4011 12.6626 41.6401 12.6626H2.99503C2.47412 12.6626 1.94871 12.6582 1.42785 12.6626Z" fill="white"/>
<path id="Vector_2" fill-rule="evenodd" clip-rule="evenodd" d="M1.42785 0.00198227H1.35991C0.648779 0.00198227 -0.0306643 0.617182 0.00106969 1.33937C0.0327607 2.06602 0.598942 2.67676 1.35991 2.67676H40.005C40.5259 2.67676 41.0513 2.68122 41.5721 2.67676H41.6401C42.3512 2.67676 43.0307 2.06156 42.9989 1.33937C42.9627 0.612722 42.4011 0.00198227 41.6401 0.00198227H2.99503C2.47412 0.00198227 1.94871 -0.00247784 1.42785 0.00198227Z" fill="white"/>
<path id="Vector_3" fill-rule="evenodd" clip-rule="evenodd" d="M1.42785 25.3232H1.35991C0.648779 25.3232 -0.0306643 25.9384 0.00106969 26.6606C0.0327607 27.3873 0.598942 27.998 1.35991 27.998H40.005C40.5259 27.998 41.0513 28.0025 41.5721 27.998H41.6401C42.3512 27.998 43.0307 27.3828 42.9989 26.6606C42.9627 25.934 42.4011 25.3232 41.6401 25.3232H2.99503C2.47412 25.3232 1.94871 25.3188 1.42785 25.3232Z" fill="white"/>
</g>
<defs>
<clipPath id="clip0_16_114">
<rect width="43" height="28" fill="white"/>
</clipPath>
</defs>
</svg>
