<svg xmlns="http://www.w3.org/2000/svg" width="48" height="48" fill="none" aria-labelledby="blz-icon-title-starcraft-II" viewBox="0 1 48 48" part="icon"><title id="blz-icon-title-starcraft-II">Starcraft II</title><path fill="#CCE1FF" fill-rule="evenodd" d="M23.4 13.369H7.8c-.6 0-1.4.2-1.8.4-.6.6-1 1.4-.8 2.2v.6c0 .085 0 .134.015.177.021.06.07.108.185.223h12l1.6 1.4h.4l4.2-4.6v-.2zm4.6 0h18c0 .2 0 .4-.2.2l-5.8 4.2c0 .2-.2 0-.2 0l-.8-1H24.6v-.4l3.2-3zm2.4 11.4c.4 4 3.6 7 7.6 7.2h1.6c-.2.6-1.4 2.4-6.6 2.4-3.6 0-7.8-3.4-9-7-.4-1-.6-2.2-.6-3.4 0-1.6.2-3.2.8-4.8 0-.2.2-.2.2-.2h6.2v.2c-.2 1.4-.4 2.8-.4 4 .2.6.2 1.2.2 1.6m-16.8-5.8h.2s8.4 10.8 9 11.8c.2.4.4.8.4 1.2 0 1.2-.6 2.4-1.8 2.4H2v-.4l5.2-4.6h.4l.6.6c.6.4 1.4.6 2.2.6H16c-.2-.4-9.6-11.2-9.6-11.2v-.2s0-.2.2-.2z" clip-rule="evenodd"></path><path fill="#3390FF" fill-rule="evenodd" d="M8.5 7.37c-.45-.2-.9-.4-1.3-.6 0-.246 0-.341.046-.378.03-.023.077-.023.154-.023l7.4-1.4h.2l7 2.8c.2 0 .2.2.2.2v4.8h-7.8v-.4c0-.4 0-.8-.2-1.2-.4-1-3-2.6-4.4-3.2-.4-.2-.85-.4-1.3-.6m18.9 5.6-2.2 2-.2-7 .2-.2 7.2-2.8h.2l7.4 1.4c.2 0 .2 0 .2.2l-.2.2c-1 .4-1.8.8-2.6 1.2-1.4.6-3.8 2.2-4.4 3.2-.2.4-.2.8-.2 1.2v.4h-5zm3.8 5.6c-.2-.2-.4-.2-.6-.2H25v-.8h7.8v11q-1.5-1.8-1.8-4.2v-1.4c0-1.048.152-2.096.324-3.277l.076-.524s0-.4-.2-.6m-5.214 12.827c-.2-.221-.393-.435-.586-.628v13.4c0 .133.178.089.356.045.088-.023.177-.045.244-.045 7-4.8 7-8 7-8v-1.2c-1.8 0-3.8-.8-5.6-2.2-.543-.407-.993-.906-1.414-1.372M19 19.17c.4 0 .6-.2.8-.4l2.6-2.6v12.6a1317 1317 0 0 1-3.6-4.533c-1.844-2.329-3.611-4.56-4.2-5.267v-1.2H17l1.4 1.2c.2.2.4.2.6.2m2.6 15.8h-7v1.2s0 3 7 8c.067 0 .156.022.244.045.178.044.356.088.356-.045v-9.2z" clip-rule="evenodd"></path></svg>