<?xml version="1.0" encoding="UTF-8"?>
<svg width="28px" height="26px" viewBox="0 0 28 26" version="1.1" xmlns="http://www.w3.org/2000/svg" xmlns:xlink="http://www.w3.org/1999/xlink">
    <title>carrito</title>
    <g id="Page-1" stroke="none" stroke-width="1" fill="none" fill-rule="evenodd">
        <g id="Desktop-FHD---MENU" transform="translate(-1872.000000, -17.000000)" fill="#FFFFFF" fill-rule="nonzero">
            <g id="carrito" transform="translate(1872.000000, 17.000000)">
                <path d="M8.0004,20.4985 C9.5194,20.4985 10.7504,21.7295 10.7504,23.2495 C10.7504,24.7685 9.5194,25.9995 8.0004,25.9995 C6.4814,25.9995 5.2504,24.7685 5.2504,23.2495 C5.2504,21.7295 6.4814,20.4985 8.0004,20.4985 Z M21.2504,20.4985 C22.7694,20.4985 24.0004,21.7295 24.0004,23.2495 C24.0004,24.7685 22.7694,25.9995 21.2504,25.9995 C19.7314,25.9995 18.5004,24.7685 18.5004,23.2495 C18.5004,21.7295 19.7314,20.4985 21.2504,20.4985 Z M8.0004,22.4995 C7.5864,22.4995 7.2504,22.8355 7.2504,23.2495 C7.2504,23.6635 7.5864,23.9995 8.0004,23.9995 C8.4134,23.9995 8.7504,23.6635 8.7504,23.2495 C8.7504,22.8355 8.4134,22.4995 8.0004,22.4995 Z M21.2504,22.4995 C20.8364,22.4995 20.5004,22.8355 20.5004,23.2495 C20.5004,23.6635 20.8364,23.9995 21.2504,23.9995 C21.6634,23.9995 22.0004,23.6635 22.0004,23.2495 C22.0004,22.8355 21.6634,22.4995 21.2504,22.4995 Z M5.529,0 L6.101,2.563 L28,2.563 L23.048,14.169 L8.696,14.169 L9.315,16.94 L21.865,16.94 L20.772,19.503 L7.263,19.503 L3.475,2.563 L0,2.563 L0,0 L5.529,0 Z M24.12,5.126 L6.674,5.126 L8.123,11.606 L21.355,11.606 L24.12,5.126 Z" id="Shape"></path>
            </g>
        </g>
    </g>
</svg>