<?xml version="1.0" encoding="UTF-8"?>
<svg width="139px" height="33px" viewBox="0 0 139 33" version="1.1" xmlns="http://www.w3.org/2000/svg" xmlns:xlink="http://www.w3.org/1999/xlink">
    <title>logo_corsair</title>
    <g id="Page-1" stroke="none" stroke-width="1" fill="none" fill-rule="evenodd">
        <g id="Desktop-FHD---MENU" transform="translate(-20.000000, -13.000000)" fill="#FFFFFF" fill-rule="nonzero">
            <g id="logo_corsair" transform="translate(20.000000, 13.000000)">
                <path d="M40.0016801,16.5316579 L40.0016801,16.500753 C39.9659233,14.7699149 40.607786,13.0986557 41.7791132,11.8727355 C42.9504404,10.6468153 44.5500046,9.97217991 46.2085941,10.0045487 C47.970821,9.93586882 49.678806,10.647517 50.9111606,11.9639176 L49.5548788,13.6018759 C48.6790823,12.6320183 47.4674586,12.0687926 46.1908262,12.0380893 C43.9046919,12.0380893 42.2226656,14.0098203 42.2226656,16.4698482 L42.2226656,16.506934 C42.2226656,18.9793239 43.886924,20.9510548 46.1908262,20.9510548 C47.5064955,20.9369701 48.7573087,20.3525746 49.6437182,19.3378204 L51,20.7718065 C49.775275,22.2397255 47.983922,23.056494 46.1197547,22.9969574 C44.4782148,23.0158724 42.8997176,22.3381325 41.746184,21.1191313 C40.5926504,19.9001302 39.9630288,18.2444317 40.0016801,16.5316579 Z" id="Path"></path>
                <path d="M56,16.5331954 L56,16.5017118 C56.0974374,12.8894673 58.9680134,10.0102671 62.4821827,10.0000271 C65.996352,9.98984157 68.8827084,12.8523112 69,16.4639316 L69,16.5017118 C68.9007706,20.1138012 66.02892,22.9914518 62.5148472,22.9999812 C59.0007743,23.0084727 56.115774,20.144764 56,16.5331954 L56,16.5331954 Z M66.7098446,16.5331954 L66.7098446,16.5017118 C66.747775,15.3186816 66.3213817,14.1696796 65.5266591,13.3133825 C64.7319366,12.4570854 63.6356801,11.9654636 62.4846915,11.9491968 C61.3385402,11.9515036 60.2429262,12.4346022 59.4511777,13.2867905 C58.6594292,14.1389787 58.2401029,15.2864667 58.2901554,16.4639316 L58.2901554,16.5017118 C58.2486878,17.6844397 58.6755114,18.8338853 59.4730202,19.6871938 C60.2705289,20.5405022 61.3705144,21.0246925 62.5214319,21.0290535 C63.665393,21.0319748 64.7605932,20.5529315 65.5519577,19.7034803 C66.3433222,18.8540292 66.7617704,17.7083215 66.7098446,16.5331954 L66.7098446,16.5331954 Z" id="Shape"></path>
                <path d="M74,10.0086252 L79.7676709,10.0086252 C81.1311054,9.93017982 82.4711635,10.3892185 83.5023175,11.2879334 C84.2181486,12.0482936 84.6033435,13.0631464 84.5730012,14.108808 L84.5730012,14.1471872 C84.6326141,16.0318498 83.3387623,17.6887866 81.5011587,18.0810599 L85,23 L82.2977984,23 L79.1112399,18.471249 L76.287949,18.471249 L76.287949,23 L74.0191194,23 L74,10.0086252 Z M79.5955968,16.449942 C81.2271147,16.449942 82.2595597,15.5928055 82.2595597,14.275118 L82.2595597,14.2431353 C82.2595597,12.8486894 81.2653534,12.087501 79.5828505,12.087501 L76.287949,12.087501 L76.287949,16.449942 L79.5955968,16.449942 Z" id="Shape"></path>
                <path d="M89,20.9700684 L90.2332696,19.3773529 C91.2191498,20.4227804 92.5342026,21.0192316 93.9101338,21.0450197 C95.1778203,21.0450197 95.9751434,20.4204254 95.9751434,19.4460583 L95.9751434,19.4460583 C95.9751434,18.5403966 95.5105163,18.0469671 93.3479924,17.5035701 C90.8642447,16.8789758 89.4703633,16.0545114 89.4703633,13.7185288 L89.4703633,13.6810531 C89.4703633,11.507465 91.1338432,10.0021928 93.4455067,10.0021928 C94.9702186,9.96077668 96.4593562,10.5071711 97.6500956,11.5449407 L96.5487572,13.2313452 C95.6547367,12.4314426 94.5444633,11.9728754 93.3881453,11.9259432 C92.1892925,11.9259432 91.4894837,12.600505 91.4894837,13.4312154 L91.4894837,13.4686911 C91.4894837,14.4493041 92.0229446,14.8802741 94.2715105,15.4611468 C96.7323136,16.0857411 98,17.0726001 98,19.1774828 L98,19.2149584 C98,21.5884167 96.2791587,23 93.8355641,23 C92.0481673,23.0004818 90.324525,22.2769104 89,20.9700684 L89,20.9700684 Z" id="Path"></path>
                <path d="M108.480151,10 L110.513705,10 L116,23 L113.689981,23 L112.424386,19.8850856 L106.526465,19.8850856 L105.242439,23 L103,23 L108.480151,10 Z M111.619565,17.8699267 L109.463138,12.7080685 L107.325142,17.8699267 L111.619565,17.8699267 Z" id="Shape"></path>
                <polygon id="Path" points="121 10 123 10 123 23 121 23"></polygon>
                <path d="M128.038194,10.0086252 L133.79919,10.0086252 C135.161046,9.93017982 136.499553,10.3892185 137.529514,11.2879334 C138.239785,12.0435411 138.624172,13.0505419 138.598958,14.0896183 L138.598958,14.1471872 C138.656751,16.0377474 137.354671,17.6968284 135.511574,18.0810599 L139,23 L136.300926,23 L133.118056,18.471249 L130.272569,18.471249 L130.272569,23 L128,23 L128.038194,10.0086252 Z M133.633681,16.449942 C135.256944,16.449942 136.29456,15.5928055 136.29456,14.275118 L136.29456,14.2431353 C136.29456,12.8486894 135.295139,12.087501 133.614583,12.087501 L130.310764,12.087501 L130.310764,16.449942 L133.633681,16.449942 Z" id="Shape"></path>
                <path d="M19,0 C19,0 21.5658348,5.56068841 21.0966197,7.88134058 C21.0966197,7.88134058 27.79036,10.1893116 28.5327891,14 C28.5327891,14 32.1974189,8.85144928 19,0 Z" id="Path"></path>
                <path d="M15.5956113,8.20261438 C16.2113252,9.75068433 16.6816538,11.3573248 17,13 L13.0062696,11.4248366 C13.3761755,8.87581699 11,5 11,5 L15.5956113,8.20261438 Z" id="Path"></path>
                <path d="M9.68243243,11.6163022 C10.2229001,13.0431896 10.6632206,14.5081861 11,16 L7.08108108,14.9980119 C7.48648649,12.2842942 5,9 5,9 L9.68243243,11.6163022 Z" id="Path"></path>
                <path d="M16.5640592,7 C16.5640592,7 32.7644865,18.0904818 33.830304,22.3922444 C34.6390715,25.6307873 32.2942728,28.6188014 32.2942728,28.6188014 C32.2942728,28.6188014 31.0403698,20.1741481 0,33 C3.2078379,29.6281076 4.80214686,25.0908319 4.38866064,20.5102233 C4.21211964,18.6282927 3.69638876,16.7914598 2.86516845,15.0841363 L10.1378061,18.8481786 C10.1378061,18.9581669 10.1378061,19.0681551 10.1691537,19.1842538 C10.443354,21.9547749 10.231338,24.7505764 9.54220214,27.4517039 C11.0874691,24.2954794 11.7266072,20.7902165 11.3917091,17.3083431 C11.206353,15.1814601 10.6641505,13.0986361 9.78671323,11.1428907 L17.5609121,16.1962397 C17.5922597,16.4467685 17.6110682,16.6972973 17.6361463,16.9539365 C17.944488,20.0092503 17.6594792,23.0938316 16.7960312,26.0462985 C20.1111621,20.0875046 20.0233843,12.8804186 16.5640592,7 Z" id="Path"></path>
            </g>
        </g>
    </g>
</svg>