<?xml version="1.0" encoding="UTF-8"?>
<svg width="25px" height="25px" viewBox="0 0 25 25" version="1.1" xmlns="http://www.w3.org/2000/svg" xmlns:xlink="http://www.w3.org/1999/xlink">
    <title>lupa</title>
    <g id="Page-1" stroke="none" stroke-width="1" fill="none" fill-rule="evenodd">
        <g id="Desktop-FHD---MENU" transform="translate(-1817.000000, -17.000000)" fill="#FFFFFF" fill-rule="nonzero">
            <g id="lupa" transform="translate(1817.000000, 17.000000)">
                <path d="M9.58333333,16.7708333 C5.61391667,16.7708333 2.39583333,13.55275 2.39583333,9.58333333 C2.39583333,5.61391667 5.61391667,2.39583333 9.58333333,2.39583333 C13.55275,2.39583333 16.7708333,5.61391667 16.7708333,9.58333333 C16.7708333,13.55275 13.55275,16.7708333 9.58333333,16.7708333 M24.6310833,21.9209167 L19.0478333,16.3367083 L17.6917917,16.3367083 L17.00275,15.6467083 C18.354,13.9955 19.1666667,11.8842917 19.1666667,9.58333333 C19.1666667,4.29045833 14.8762083,3.55271368e-15 9.58333333,3.55271368e-15 C4.29045833,3.55271368e-15 3.55271368e-15,4.29045833 3.55271368e-15,9.58333333 C3.55271368e-15,14.8762083 4.29045833,19.1666667 9.58333333,19.1666667 C11.8842917,19.1666667 13.9955,18.354 15.6467083,17.00275 L16.3367083,17.6917917 L16.3367083,19.0478333 L21.9209167,24.6310833 C22.2275833,24.93775 22.703875,25.0077083 23.0795417,24.7901667 C23.4245417,24.5889167 23.750375,24.3416667 24.0455417,24.0465 C24.3416667,23.750375 24.5889167,23.4245417 24.7901667,23.0795417 C25.0077083,22.703875 24.93775,22.2275833 24.6310833,21.9209167" id="Fill-1"></path>
            </g>
        </g>
    </g>
</svg>