<svg width="25" height="24" viewBox="0 0 25 24" fill="none" xmlns="http://www.w3.org/2000/svg">
<g id="Bookmark">
<g id="Iconly/Light-Outline/Bookmark">
<g id="Bookmark_2">
<path id="Combined-Shape" fill-rule="evenodd" clip-rule="evenodd" d="M15.2008 2C18.5928 2 20.5388 3.679 20.5388 6.604V21.14C20.5388 21.75 20.2248 22.299 19.6968 22.606C19.1708 22.914 18.5368 22.92 18.0048 22.62L12.0448 19.253L6.02979 22.627C5.76979 22.773 5.48479 22.847 5.19879 22.847C4.90379 22.847 4.60879 22.768 4.34079 22.61C3.81379 22.303 3.49979 21.754 3.49979 21.145V6.421C3.49979 3.611 5.44679 2 8.84179 2H15.2008ZM15.2008 3.5H8.84179C6.29279 3.5 4.99979 4.482 4.99979 6.421V21.145C4.99979 21.239 5.05379 21.29 5.09879 21.316C5.14379 21.344 5.21479 21.364 5.29679 21.318L11.6788 17.738C11.9068 17.611 12.1858 17.61 12.4148 17.739L18.7418 21.313C18.8248 21.361 18.8958 21.339 18.9408 21.312C18.9858 21.285 19.0388 21.234 19.0388 21.14L19.0384 6.49004C19.0309 5.62937 18.8643 3.5 15.2008 3.5ZM15.6396 8.7285C16.0536 8.7285 16.3896 9.0645 16.3896 9.4785C16.3896 9.8925 16.0536 10.2285 15.6396 10.2285H8.32159C7.90759 10.2285 7.57159 9.8925 7.57159 9.4785C7.57159 9.0645 7.90759 8.7285 8.32159 8.7285H15.6396Z" fill="#797979"/>
</g>
</g>
</g>
</svg>
