<svg width="25" height="24" viewBox="0 0 25 24" fill="none" xmlns="http://www.w3.org/2000/svg">
<g id="Document">
<g id="Iconly/Light-Outline/Document">
<g id="Document_2">
<path id="Combined-Shape" fill-rule="evenodd" clip-rule="evenodd" d="M16.4087 2C19.5527 2 21.6647 4.153 21.6647 7.357V16.553C21.6647 19.785 19.6177 21.887 16.4497 21.907L8.7567 21.91C5.6127 21.91 3.4997 19.757 3.4997 16.553V7.357C3.4997 4.124 5.5467 2.023 8.7147 2.004L16.4077 2H16.4087ZM16.4087 3.5L8.7197 3.504C6.3917 3.518 4.9997 4.958 4.9997 7.357V16.553C4.9997 18.968 6.4047 20.41 8.7557 20.41L16.4447 20.407C18.7727 20.393 20.1647 18.951 20.1647 16.553V7.357C20.1647 4.942 18.7607 3.5 16.4087 3.5ZM16.2158 15.4737C16.6298 15.4737 16.9658 15.8097 16.9658 16.2237C16.9658 16.6377 16.6298 16.9737 16.2158 16.9737H8.9958C8.5818 16.9737 8.2458 16.6377 8.2458 16.2237C8.2458 15.8097 8.5818 15.4737 8.9958 15.4737H16.2158ZM16.2158 11.2872C16.6298 11.2872 16.9658 11.6232 16.9658 12.0372C16.9658 12.4512 16.6298 12.7872 16.2158 12.7872H8.9958C8.5818 12.7872 8.2458 12.4512 8.2458 12.0372C8.2458 11.6232 8.5818 11.2872 8.9958 11.2872H16.2158ZM11.7505 7.1104C12.1645 7.1104 12.5005 7.4464 12.5005 7.8604C12.5005 8.2744 12.1645 8.6104 11.7505 8.6104H8.9955C8.5815 8.6104 8.2455 8.2744 8.2455 7.8604C8.2455 7.4464 8.5815 7.1104 8.9955 7.1104H11.7505Z" fill="#797979"/>
</g>
</g>
</g>
</svg>
