<?xml version="1.0" encoding="UTF-8"?>
<svg width="18px" height="17px" viewBox="0 0 18 17" version="1.1" xmlns="http://www.w3.org/2000/svg" xmlns:xlink="http://www.w3.org/1999/xlink">
    <title>lupa</title>
    <defs>
        <polygon id="path-1" points="0 0 6 0 6 6 0 6"></polygon>
        <polygon id="path-3" points="0 0 15 0 15 15 0 15"></polygon>
    </defs>
    <g id="Página-1" stroke="none" stroke-width="1" fill="none" fill-rule="evenodd">
        <g id="TheNorthFace" transform="translate(-1498, -19)">
            <g id="input_search" transform="translate(1296.9286, 19)">
                <g id="lupa" transform="translate(201.0714, 0)">
                    <g id="Grupo" transform="translate(12, 11)">
                        <mask id="mask-2" fill="white">
                            <use xlink:href="#path-1"></use>
                        </mask>
                        <g id="Clip-2"></g>
                        <path d="M0.209854277,0.21011169 C0.454829394,-0.0340081622 0.838739847,-0.069600914 1.12435065,0.125385465 L1.22574635,0.21011169 L5.79745419,4.7802984 C6.07377683,5.06542729 6.06642371,5.52078238 5.78119991,5.79739997 C5.53854684,6.03223475 5.16469855,6.06705375 4.88295782,5.8801918 L4.78968925,5.79585246 L0.209854277,1.22566575 C-0.0699514257,0.944792512 -0.0699514257,0.490984927 0.209854277,0.21011169" id="Fill-1" fill="#000000" mask="url(#mask-2)"></path>
                    </g>
                    <g id="Grupo">
                        <mask id="mask-4" fill="white">
                            <use xlink:href="#path-3"></use>
                        </mask>
                        <g id="Clip-4"></g>
                        <path d="M7.5057279,1.949319 C10.5131469,1.949319 12.9712332,4.42640053 12.9712332,7.49955439 C12.9712332,10.5732325 10.5131469,13.0387805 7.5057279,13.0387805 C4.49885442,13.0387805 2.04022257,10.5732325 2.04022257,7.49955439 C2.04022257,4.42640053 4.49885442,1.9608525 7.5057279,1.9608525 L7.5057279,1.949319 Z M7.5057279,-0.000366975042 C3.3532749,-0.000366975042 0,3.37108516 0,7.49955439 C0,11.6280236 3.3532749,15 7.5057279,15 C11.6587264,15 15,11.6280236 15,7.49955439 C15,3.37108516 11.6587264,-0.000366975042 7.5057279,-0.000366975042 L7.5057279,-0.000366975042 Z" id="Fill-3" fill="#000000" mask="url(#mask-4)"></path>
                    </g>
                </g>
            </g>
        </g>
    </g>
</svg>