<svg width="126" height="34" viewBox="0 0 126 34" fill="none" xmlns="http://www.w3.org/2000/svg">
<g id="MovieApp_logo" clip-path="url(#clip0_0_684)">
<path id="App" d="M86.472 23.4439H80.184L79.176 26.4199H74.88L80.976 9.57192H85.728L91.824 26.4199H87.48L86.472 23.4439ZM85.416 20.2759L83.328 14.1079L81.264 20.2759H85.416ZM97.7833 14.9239C98.1833 14.2999 98.7353 13.7959 99.4393 13.4119C100.143 13.0279 100.967 12.8359 101.911 12.8359C103.015 12.8359 104.015 13.1159 104.911 13.6759C105.807 14.2359 106.511 15.0359 107.023 16.0759C107.551 17.1159 107.815 18.3239 107.815 19.6999C107.815 21.0759 107.551 22.2919 107.023 23.3479C106.511 24.3879 105.807 25.1959 104.911 25.7719C104.015 26.3319 103.015 26.6119 101.911 26.6119C100.983 26.6119 100.159 26.4199 99.4393 26.0359C98.7353 25.6519 98.1833 25.1559 97.7833 24.5479V32.8039H93.6793V13.0279H97.7833V14.9239ZM103.639 19.6999C103.639 18.6759 103.351 17.8759 102.775 17.2999C102.215 16.7079 101.519 16.4119 100.687 16.4119C99.8713 16.4119 99.1753 16.7079 98.5993 17.2999C98.0393 17.8919 97.7593 18.6999 97.7593 19.7239C97.7593 20.7479 98.0393 21.5559 98.5993 22.1479C99.1753 22.7399 99.8713 23.0359 100.687 23.0359C101.503 23.0359 102.199 22.7399 102.775 22.1479C103.351 21.5399 103.639 20.7239 103.639 19.6999ZM114.072 14.9239C114.472 14.2999 115.024 13.7959 115.728 13.4119C116.432 13.0279 117.256 12.8359 118.2 12.8359C119.304 12.8359 120.304 13.1159 121.2 13.6759C122.096 14.2359 122.8 15.0359 123.312 16.0759C123.84 17.1159 124.104 18.3239 124.104 19.6999C124.104 21.0759 123.84 22.2919 123.312 23.3479C122.8 24.3879 122.096 25.1959 121.2 25.7719C120.304 26.3319 119.304 26.6119 118.2 26.6119C117.272 26.6119 116.448 26.4199 115.728 26.0359C115.024 25.6519 114.472 25.1559 114.072 24.5479V32.8039H109.968V13.0279H114.072V14.9239ZM119.928 19.6999C119.928 18.6759 119.64 17.8759 119.064 17.2999C118.504 16.7079 117.808 16.4119 116.976 16.4119C116.16 16.4119 115.464 16.7079 114.888 17.2999C114.328 17.8919 114.048 18.6999 114.048 19.7239C114.048 20.7479 114.328 21.5559 114.888 22.1479C115.464 22.7399 116.16 23.0359 116.976 23.0359C117.792 23.0359 118.488 22.7399 119.064 22.1479C119.64 21.5399 119.928 20.7239 119.928 19.6999Z" fill="#28E98C"/>
<path id="Movie" d="M20.861 9.57192V26.4199H16.757V16.3159L12.989 26.4199H9.67697L5.88497 16.2919V26.4199H1.78097V9.57192H6.62897L11.357 21.2359L16.037 9.57192H20.861ZM29.9082 26.6119C28.5962 26.6119 27.4122 26.3319 26.3562 25.7719C25.3162 25.2119 24.4922 24.4119 23.8842 23.3719C23.2922 22.3319 22.9962 21.1159 22.9962 19.7239C22.9962 18.3479 23.3002 17.1399 23.9082 16.0999C24.5162 15.0439 25.3482 14.2359 26.4042 13.6759C27.4602 13.1159 28.6442 12.8359 29.9562 12.8359C31.2682 12.8359 32.4522 13.1159 33.5082 13.6759C34.5642 14.2359 35.3962 15.0439 36.0042 16.0999C36.6122 17.1399 36.9162 18.3479 36.9162 19.7239C36.9162 21.0999 36.6042 22.3159 35.9802 23.3719C35.3722 24.4119 34.5322 25.2119 33.4602 25.7719C32.4042 26.3319 31.2202 26.6119 29.9082 26.6119ZM29.9082 23.0599C30.6922 23.0599 31.3562 22.7719 31.9002 22.1959C32.4602 21.6199 32.7402 20.7959 32.7402 19.7239C32.7402 18.6519 32.4682 17.8279 31.9242 17.2519C31.3962 16.6759 30.7402 16.3879 29.9562 16.3879C29.1562 16.3879 28.4922 16.6759 27.9642 17.2519C27.4362 17.8119 27.1722 18.6359 27.1722 19.7239C27.1722 20.7959 27.4282 21.6199 27.9402 22.1959C28.4682 22.7719 29.1242 23.0599 29.9082 23.0599ZM45.1175 22.5799L48.0215 13.0279H52.3895L47.6375 26.4199H42.5735L37.8215 13.0279H42.2135L45.1175 22.5799ZM56.1809 11.6359C55.4609 11.6359 54.8689 11.4279 54.4049 11.0119C53.9569 10.5799 53.7329 10.0519 53.7329 9.42792C53.7329 8.78792 53.9569 8.25992 54.4049 7.84392C54.8689 7.41192 55.4609 7.19592 56.1809 7.19592C56.8849 7.19592 57.4609 7.41192 57.9089 7.84392C58.3729 8.25992 58.6049 8.78792 58.6049 9.42792C58.6049 10.0519 58.3729 10.5799 57.9089 11.0119C57.4609 11.4279 56.8849 11.6359 56.1809 11.6359ZM58.2209 13.0279V26.4199H54.1169V13.0279H58.2209ZM73.819 19.5079C73.819 19.8919 73.795 20.2919 73.747 20.7079H64.459C64.523 21.5399 64.787 22.1799 65.251 22.6279C65.731 23.0599 66.315 23.2759 67.003 23.2759C68.027 23.2759 68.739 22.8439 69.139 21.9799H73.507C73.283 22.8599 72.875 23.6519 72.283 24.3559C71.707 25.0599 70.979 25.6119 70.099 26.0119C69.219 26.4119 68.235 26.6119 67.147 26.6119C65.835 26.6119 64.667 26.3319 63.643 25.7719C62.619 25.2119 61.819 24.4119 61.243 23.3719C60.667 22.3319 60.379 21.1159 60.379 19.7239C60.379 18.3319 60.659 17.1159 61.219 16.0759C61.795 15.0359 62.595 14.2359 63.619 13.6759C64.643 13.1159 65.819 12.8359 67.147 12.8359C68.443 12.8359 69.595 13.1079 70.603 13.6519C71.611 14.1959 72.395 14.9719 72.955 15.9799C73.531 16.9879 73.819 18.1639 73.819 19.5079ZM69.619 18.4279C69.619 17.7239 69.379 17.1639 68.899 16.7479C68.419 16.3319 67.819 16.1239 67.099 16.1239C66.411 16.1239 65.827 16.3239 65.347 16.7239C64.883 17.1239 64.595 17.6919 64.483 18.4279H69.619Z" fill="#FEFEFE"/>
</g>
<defs>
<clipPath id="clip0_0_684">
<rect width="125.203" height="33" fill="white" transform="translate(0.292969 0.419922)"/>
</clipPath>
</defs>
</svg>
