<svg width="145" height="26" viewBox="0 0 145 26" fill="none" xmlns="http://www.w3.org/2000/svg">
<g id="logoTBWA" clip-path="url(#clip0_17_170)">
<path id="Vector" d="M0 0.199707V5.27457H6.31329V24.3748H11.8813V5.27457H18.1946V0.199707H0Z" fill="white"/>
<g id="Group">
<path id="Vector_2" d="M38.1453 17.6315C38.1453 21.5159 35.6268 24.3748 30.5214 24.3748H20.0535V0.199707H29.048C34.3504 0.199707 36.9032 2.38086 36.9032 6.09142C36.9032 8.16829 36.0294 10.3494 33.4424 11.4357V11.5052C36.6719 12.3915 38.1453 14.6335 38.1453 17.6315ZM25.5615 9.83674H28.2171C29.896 9.83674 31.2409 9.05465 31.2409 7.51655C31.2409 6.15225 30.2644 5.19636 28.02 5.19636H25.5701L25.5615 9.83674ZM32.3031 16.8494C32.3031 15.3548 31.1981 14.2946 28.7824 14.2946H25.5615V19.4043H28.7824C30.864 19.4043 32.3031 18.5526 32.3031 16.8494Z" fill="white"/>
<path id="Vector_3" d="M70.5426 0.199707L63.09 24.3748H57.9503L53.9584 8.47243H53.9242L49.761 24.3748H44.6298L37.1772 0.199707H43.1479L47.1826 15.042H47.2425L50.9346 0.199707H56.8452L60.4687 15.042H60.5373L64.5634 0.199707H70.5426Z" fill="white"/>
<path id="Vector_4" d="M81.5588 20.0473H73.1982L71.819 24.3748H65.9426L74.6801 0.199707H80.0512L88.8486 24.3748H82.9722L81.5588 20.0473ZM80.0169 15.2157L77.3956 7.07337H77.3271L74.7401 15.2157H80.0169Z" fill="white"/>
<path id="Vector_5" d="M94.7593 24.375L85.9618 0.217285H90.9816L99.7791 24.375H94.7593Z" fill="#FDCB02"/>
<path id="Vector_6" d="M107.377 1.28614H105.741V0.217285H110.187V1.28614H108.551V6.23065H107.377V1.28614Z" fill="white"/>
<path id="Vector_7" d="M114.607 3.74532V6.22192H113.511V4.0234C113.511 3.25869 113.237 3.01537 112.723 3.01537C112.14 3.01537 111.763 3.38904 111.763 4.12767V6.22192H110.667V0H111.763V2.59826H111.78C112.114 2.21591 112.586 2.03342 113.108 2.03342C113.982 2.03342 114.607 2.48529 114.607 3.74532Z" fill="white"/>
<path id="Vector_8" d="M119.122 4.5186H116.26C116.398 5.01392 116.774 5.30937 117.306 5.30937C117.742 5.31806 118.059 5.12688 118.282 4.84881L118.993 5.51793C118.642 5.9698 118.051 6.30001 117.237 6.30001C116.046 6.30001 115.147 5.4571 115.147 4.16231C115.147 2.91098 116.003 2.04199 117.168 2.04199C118.359 2.04199 119.164 2.91967 119.164 4.13624C119.147 4.2579 119.147 4.44908 119.122 4.5186ZM116.269 3.71913H118.059C117.948 3.28464 117.657 2.99787 117.186 2.99787C116.74 3.00656 116.389 3.24988 116.269 3.71913Z" fill="white"/>
<path id="Vector_9" d="M105.758 9.28955H107.72C109.596 9.28955 110.795 10.5235 110.795 12.2962C110.795 14.0603 109.647 15.2855 107.746 15.2855H105.758V9.28955ZM107.669 14.2341C108.816 14.2341 109.579 13.3998 109.579 12.2962C109.579 11.1752 108.816 10.3497 107.746 10.3497H106.923V14.2341H107.669Z" fill="white"/>
<path id="Vector_10" d="M111.352 9.90632C111.352 9.53266 111.66 9.22852 112.029 9.22852C112.406 9.22852 112.714 9.53266 112.714 9.90632C112.714 10.28 112.406 10.5841 112.029 10.5841C111.66 10.5841 111.352 10.28 111.352 9.90632ZM111.472 11.1663H112.56V15.294H111.472V11.1663Z" fill="white"/>
<path id="Vector_11" d="M113.057 14.7643L113.588 13.9909C113.922 14.3124 114.273 14.4688 114.71 14.4688C115.027 14.4688 115.207 14.3298 115.207 14.1299C115.207 13.9387 115.001 13.8432 114.461 13.6781C113.793 13.4521 113.211 13.1306 113.211 12.3311C113.211 11.5838 113.845 11.0972 114.676 11.0972C115.241 11.0972 115.704 11.2536 116.158 11.6099L115.635 12.418C115.318 12.1139 114.958 11.9748 114.659 11.9748C114.487 11.9748 114.256 12.0704 114.256 12.2877C114.256 12.4528 114.47 12.5744 114.873 12.7309C115.755 13.0611 116.269 13.2522 116.269 14.0691C116.269 14.8077 115.755 15.3552 114.684 15.3552C114.059 15.3639 113.511 15.1466 113.057 14.7643Z" fill="white"/>
<path id="Vector_12" d="M119.267 11.1059V12.3051C119.156 12.2964 119.044 12.2964 118.984 12.2964C118.308 12.2964 117.939 12.7656 117.939 13.3739V15.2944H116.851V11.1667H117.939V11.775H117.948C118.256 11.3318 118.702 11.0972 119.181 11.0972C119.216 11.0972 119.25 11.0972 119.267 11.1059Z" fill="white"/>
<path id="Vector_13" d="M123.585 11.1665V15.2942H122.497V14.7902H122.479C122.171 15.1725 121.726 15.3637 121.272 15.3637C120.398 15.3637 119.781 14.9118 119.781 13.6605V11.1752H120.869V13.365C120.869 14.1297 121.092 14.3817 121.606 14.3817C122.085 14.3817 122.505 13.9733 122.505 13.1825V11.1752H123.585V11.1665Z" fill="white"/>
<path id="Vector_14" d="M128.656 13.2349C128.656 14.5123 127.842 15.3552 126.703 15.3552C126.189 15.3552 125.786 15.164 125.503 14.8251H125.486V16.9628H124.398V11.1667H125.486V11.6359H125.503C125.812 11.2797 126.24 11.0972 126.737 11.0972C127.833 11.0972 128.656 11.9835 128.656 13.2349ZM127.542 13.2436C127.542 12.531 127.088 12.0878 126.497 12.0878C125.872 12.0878 125.435 12.5831 125.435 13.2436C125.435 13.9214 125.897 14.3645 126.497 14.3645C127.122 14.3732 127.542 13.9127 127.542 13.2436Z" fill="white"/>
<path id="Vector_15" d="M129.298 13.9904V12.0787H128.818V11.1662H129.298V9.81062L130.386 9.68896V11.1575H131.491V12.0787H130.386V13.834C130.386 14.1903 130.497 14.3554 130.746 14.3554C130.883 14.3554 131.08 14.3033 131.26 14.2164L131.543 15.1027C131.277 15.2418 131.011 15.3547 130.455 15.3547C129.761 15.3634 129.298 14.9202 129.298 13.9904Z" fill="white"/>
<path id="Vector_16" d="M131.868 9.90632C131.868 9.53266 132.176 9.22852 132.545 9.22852C132.922 9.22852 133.23 9.53266 133.23 9.90632C133.23 10.28 132.922 10.5841 132.545 10.5841C132.176 10.5841 131.868 10.28 131.868 9.90632ZM131.988 11.1663H133.076V15.294H131.988V11.1663Z" fill="white"/>
<path id="Vector_17" d="M133.633 13.2262C133.633 11.9922 134.498 11.0972 135.791 11.0972C137.059 11.0972 137.959 11.9575 137.959 13.2262C137.959 14.4949 137.059 15.3552 135.791 15.3552C134.506 15.3639 133.633 14.4601 133.633 13.2262ZM136.854 13.2262C136.854 12.5484 136.408 12.0878 135.791 12.0878C135.157 12.0878 134.729 12.5744 134.729 13.2262C134.729 13.8692 135.175 14.3645 135.791 14.3645C136.391 14.3732 136.854 13.8953 136.854 13.2262Z" fill="white"/>
<path id="Vector_18" d="M142.447 12.8438V15.2944H141.351V13.1219C141.351 12.3311 141.077 12.0878 140.571 12.0878C140.023 12.0878 139.646 12.4789 139.646 13.2088V15.2944H138.558V11.1667H139.646V11.6968H139.663C139.997 11.297 140.46 11.0972 140.965 11.0972C141.839 11.0972 142.447 11.5751 142.447 12.8438Z" fill="white"/>
<path id="Vector_19" d="M145 10.5931C145 11.297 144.443 11.8879 143.724 11.8879C143.021 11.8879 142.456 11.297 142.456 10.5931C142.456 9.88925 143.013 9.29834 143.732 9.29834C144.452 9.29834 145 9.88925 145 10.5931ZM144.666 10.5931C144.666 10.063 144.263 9.63724 143.741 9.63724C143.21 9.63724 142.807 10.0717 142.807 10.6018C142.807 11.1319 143.21 11.549 143.732 11.549C144.263 11.549 144.666 11.1145 144.666 10.5931ZM143.989 10.7669L144.289 11.2362H143.946L143.681 10.8104H143.561V11.2362H143.27V9.92401H143.775C144.092 9.92401 144.229 10.1152 144.229 10.3672C144.238 10.5757 144.143 10.7061 143.989 10.7669ZM143.569 10.541H143.715C143.852 10.541 143.929 10.4715 143.929 10.3672C143.929 10.2716 143.861 10.1934 143.715 10.1934H143.569V10.541Z" fill="white"/>
<path id="Vector_20" d="M105.707 21.3681C105.707 19.6562 106.786 18.2832 108.714 18.2832C109.527 18.2832 110.418 18.6308 111.061 19.4303L110.204 20.1689C109.853 19.7518 109.322 19.4129 108.714 19.4129C107.694 19.4129 106.932 20.1689 106.932 21.3681C106.932 22.4804 107.66 23.2799 108.714 23.2799C109.33 23.2799 109.862 22.9583 110.204 22.5238L111.061 23.2712C110.555 23.9142 109.759 24.4009 108.714 24.4009C107.103 24.3922 105.707 23.332 105.707 21.3681Z" fill="white"/>
<path id="Vector_21" d="M111.438 22.281C111.438 21.0557 112.303 20.1606 113.588 20.1606C114.847 20.1606 115.746 21.0209 115.746 22.281C115.746 23.541 114.847 24.4013 113.588 24.4013C112.294 24.4013 111.438 23.5149 111.438 22.281ZM114.641 22.281C114.641 21.6032 114.196 21.1426 113.588 21.1426C112.954 21.1426 112.534 21.6292 112.534 22.281C112.534 22.924 112.971 23.4193 113.588 23.4193C114.17 23.4193 114.641 22.9501 114.641 22.281Z" fill="white"/>
<path id="Vector_22" d="M122.745 21.9508V24.3405H121.657V22.2201C121.657 21.5597 121.46 21.1513 120.955 21.1513C120.501 21.1513 120.124 21.551 120.124 22.2897V24.3405H119.036V22.2201C119.036 21.5597 118.83 21.1513 118.325 21.1513C117.837 21.1513 117.468 21.551 117.468 22.2897V24.3405H116.38V20.2302H117.468V20.7776H117.477C117.794 20.3779 118.231 20.1606 118.685 20.1606C119.216 20.1606 119.636 20.3605 119.893 20.8211H119.91C120.244 20.3953 120.741 20.1606 121.323 20.1606C122.197 20.1606 122.745 20.6907 122.745 21.9508Z" fill="white"/>
<path id="Vector_23" d="M127.765 22.2897C127.765 23.5584 126.951 24.4013 125.82 24.4013C125.306 24.4013 124.904 24.2101 124.63 23.8712H124.612V26.0002H123.525V20.2302H124.612V20.6994H124.63C124.938 20.3431 125.358 20.1606 125.855 20.1606C126.942 20.1606 127.765 21.047 127.765 22.2897ZM126.66 22.2983C126.66 21.5945 126.206 21.1426 125.623 21.1426C124.998 21.1426 124.57 21.6379 124.57 22.2983C124.57 22.9762 125.032 23.4193 125.623 23.4193C126.24 23.4193 126.66 22.9675 126.66 22.2983Z" fill="white"/>
<path id="Vector_24" d="M132.305 20.1951V24.3054H131.277V23.8101H131.251C130.977 24.1751 130.566 24.3749 130.043 24.3749C128.921 24.3749 128.107 23.532 128.107 22.2633C128.107 21.0206 128.93 20.1343 130.018 20.1343C130.497 20.1343 130.917 20.3081 131.2 20.6644H131.226V20.2038L132.305 20.1951ZM131.268 22.2633C131.268 21.6029 130.84 21.1075 130.249 21.1075C129.666 21.1075 129.204 21.5507 129.204 22.2633C129.204 22.9237 129.632 23.3843 130.24 23.3843C130.797 23.3843 131.268 22.9411 131.268 22.2633Z" fill="white"/>
<path id="Vector_25" d="M137.042 21.8985V24.3404H135.954V22.1766C135.954 21.3945 135.68 21.1512 135.175 21.1512C134.626 21.1512 134.249 21.5422 134.249 22.2722V24.3317H133.161V20.2214H134.249V20.7515H134.267C134.601 20.3517 135.063 20.1519 135.56 20.1519C136.442 20.1605 137.042 20.6298 137.042 21.8985Z" fill="white"/>
<path id="Vector_26" d="M141.419 20.23L139.235 26H138.121L138.841 24.0796L137.23 20.23H138.353L139.355 22.7674H139.363L140.289 20.23H141.419Z" fill="white"/>
</g>
</g>
<defs>
<clipPath id="clip0_17_170">
<rect width="145" height="26" fill="white"/>
</clipPath>
</defs>
</svg>
