<svg width="502" height="39" viewBox="0 0 502 39" fill="none" xmlns="http://www.w3.org/2000/svg">
<path d="M170.292 30.225V19.5163V18.4483V17.3783C170.085 17.6622 169.878 17.9441 169.672 18.228C169.465 18.5118 169.266 18.7975 169.057 19.0813L164.1 25.8557H162.871L157.919 19.0812C157.814 18.9393 157.712 18.7974 157.609 18.6555C157.502 18.508 157.402 18.3698 157.3 18.2279C157.193 18.086 157.093 17.9478 156.993 17.804C156.886 17.6621 156.782 17.5202 156.683 17.3783V18.4482V19.5163V30.225H154.523V14.4019H156.941L162.44 21.9643C162.621 22.2201 162.802 22.4703 162.985 22.7168C163.17 22.9651 163.355 23.2154 163.543 23.4731C163.723 23.2154 163.911 22.9652 164.089 22.7056L164.642 21.9401L170.14 14.402H172.453V30.225H170.292Z" fill="#666666"/>
<path d="M188.226 29.4608C187.913 29.6064 187.577 29.7408 187.227 29.866C186.865 29.9967 186.486 30.1012 186.068 30.1909C185.656 30.2842 185.212 30.3552 184.733 30.4075C184.258 30.4598 183.737 30.4822 183.184 30.4822C182.455 30.4822 181.786 30.4187 181.185 30.2805C180.577 30.1498 180.039 29.9519 179.556 29.6998C179.072 29.4459 178.652 29.1415 178.29 28.7793C177.933 28.4245 177.634 28.0193 177.395 27.573C177.151 27.1305 176.974 26.6413 176.852 26.1203C176.733 25.5956 176.676 25.0373 176.676 24.4547C176.676 23.9226 176.733 23.4128 176.859 22.9198C176.981 22.4287 177.166 21.975 177.406 21.553C177.645 21.1328 177.937 20.7463 178.29 20.4028C178.645 20.0573 179.046 19.7623 179.508 19.5196C179.965 19.2787 180.473 19.0882 181.034 18.9575C181.596 18.8231 182.204 18.7521 182.86 18.7521C183.506 18.7521 184.103 18.8194 184.659 18.9388C185.208 19.0621 185.715 19.2413 186.168 19.4635C186.621 19.6951 187.024 19.9752 187.373 20.2982C187.728 20.6231 188.022 20.991 188.255 21.3943C188.496 21.7958 188.671 22.2383 188.801 22.7126C188.919 23.1888 188.982 23.6911 188.982 24.2176C188.982 24.2886 188.982 24.3614 188.978 24.4361C188.978 24.522 188.974 24.5929 188.967 24.6751C188.963 24.7461 188.96 24.8208 188.956 24.8861C188.952 24.9589 188.945 25.0168 188.941 25.0616H178.813C178.85 25.6236 178.972 26.1278 179.179 26.5815C179.386 27.0334 179.677 27.4162 180.054 27.7373C180.437 28.0567 180.906 28.3031 181.463 28.473C182.023 28.6486 182.672 28.7344 183.424 28.7344C183.955 28.7344 184.447 28.7083 184.892 28.6541C185.334 28.5963 185.752 28.5234 186.138 28.4338C186.521 28.3367 186.887 28.2322 187.231 28.1089C187.573 27.9856 187.9 27.8624 188.226 27.7317L188.226 29.4608ZM186.887 23.4053C186.835 22.9646 186.702 22.5594 186.482 22.1953C186.26 21.8218 185.976 21.5044 185.619 21.2486C185.269 20.9834 184.852 20.7799 184.386 20.6343C183.914 20.4886 183.409 20.4102 182.86 20.4102C182.313 20.4102 181.805 20.4887 181.333 20.6343C180.862 20.7799 180.448 20.9834 180.094 21.2486C179.74 21.5044 179.449 21.8218 179.231 22.1953C179.009 22.5594 178.876 22.9646 178.837 23.4053H186.887Z" fill="#666666"/>
<path d="M212.717 30.225V23.4263C212.717 22.8661 212.639 22.3994 212.491 22.0222C212.345 21.6432 212.127 21.3351 211.831 21.1073C211.541 20.872 211.173 20.7076 210.733 20.6087C210.297 20.5079 209.784 20.4556 209.209 20.4556C208.775 20.4556 208.35 20.4929 207.934 20.5601C207.516 20.6311 207.118 20.7207 206.743 20.8346C206.358 20.9541 206.013 21.0885 205.687 21.2398C205.366 21.3948 205.086 21.5572 204.842 21.7253C204.883 21.9232 204.916 22.1324 204.95 22.3583C204.976 22.5786 204.987 22.812 204.987 23.0585V30.225H202.848V23.4263C202.848 22.8661 202.775 22.3994 202.629 22.0222C202.483 21.6432 202.258 21.3351 201.964 21.1073C201.672 20.872 201.304 20.7076 200.871 20.6087C200.431 20.5079 199.925 20.4556 199.344 20.4556C198.928 20.4556 198.518 20.4891 198.12 20.5489C197.723 20.6161 197.338 20.7002 196.974 20.8103C196.611 20.9168 196.269 21.0363 195.951 21.1819C195.635 21.3219 195.354 21.4732 195.107 21.6356V30.225H192.964V19.014H194.761L194.933 20.1306C195.21 19.9253 195.521 19.7441 195.881 19.5724C196.234 19.4043 196.626 19.2587 197.042 19.1373C197.46 19.0178 197.898 18.9244 198.36 18.8572C198.825 18.79 199.303 18.7526 199.799 18.7526C200.259 18.7526 200.705 18.7862 201.141 18.8423C201.576 18.9057 201.984 19.0029 202.369 19.1392C202.755 19.2829 203.106 19.4566 203.424 19.6769C203.744 19.8973 204.023 20.1605 204.256 20.478C204.519 20.2427 204.846 20.0242 205.238 19.8151C205.621 19.6022 206.053 19.4229 206.521 19.2624C206.993 19.1074 207.499 18.9804 208.03 18.8908C208.56 18.8012 209.106 18.7527 209.664 18.7527C210.128 18.7527 210.578 18.7863 211.018 18.8386C211.456 18.902 211.87 18.9954 212.253 19.1336C212.639 19.2699 212.987 19.4417 213.306 19.6583C213.628 19.8768 213.905 20.1457 214.133 20.4668C214.362 20.7861 214.538 21.1596 214.663 21.5871C214.789 22.0166 214.852 22.504 214.852 23.0585V30.225H212.717Z" fill="#666666"/>
<path d="M219.747 30.2241V14.4028H221.889V19.8926C222.152 19.7208 222.446 19.5639 222.771 19.4276C223.095 19.2857 223.439 19.1662 223.809 19.0691C224.169 18.9683 224.548 18.8918 224.944 18.8339C225.345 18.7835 225.741 18.7536 226.145 18.7536C227.127 18.7536 228.013 18.8843 228.804 19.1401C229.597 19.4053 230.268 19.7806 230.829 20.2792C231.387 20.7796 231.818 21.3902 232.121 22.1165C232.419 22.8466 232.574 23.6738 232.574 24.6037C232.574 25.5168 232.426 26.3402 232.132 27.0629C231.836 27.793 231.407 28.4073 230.847 28.9096C230.283 29.4194 229.597 29.8115 228.786 30.0804C227.972 30.3474 227.053 30.4818 226.02 30.4818C225.596 30.4818 225.182 30.4557 224.774 30.4072C224.363 30.3549 223.973 30.2802 223.605 30.1812C223.228 30.0804 222.886 29.9572 222.561 29.8115C222.235 29.6658 221.949 29.4978 221.695 29.3055L221.54 30.2242L219.747 30.2241ZM221.89 27.7331C222.152 27.9049 222.431 28.0562 222.731 28.1906C223.021 28.3251 223.332 28.4408 223.65 28.5342C223.966 28.6275 224.302 28.7022 224.648 28.7489C224.992 28.7975 225.345 28.8236 225.718 28.8236C226.471 28.8236 227.133 28.7359 227.713 28.5566C228.288 28.3774 228.778 28.1104 229.172 27.7556C229.564 27.4008 229.862 26.962 230.061 26.4336C230.265 25.9107 230.368 25.3002 230.368 24.6037C230.368 23.9165 230.265 23.3078 230.061 22.7869C229.862 22.2696 229.564 21.8364 229.172 21.491C228.778 21.1437 228.288 20.886 227.713 20.7123C227.133 20.5406 226.471 20.4547 225.718 20.4547C225.345 20.4547 224.992 20.4808 224.648 20.5293C224.302 20.5816 223.966 20.6526 223.65 20.7459C223.332 20.8393 223.021 20.9588 222.731 21.0914C222.431 21.2258 222.152 21.379 221.89 21.5508V27.7331Z" fill="#666666"/>
<path d="M247.218 29.4608C246.905 29.6064 246.569 29.7408 246.219 29.866C245.857 29.9967 245.478 30.1012 245.06 30.1909C244.646 30.2842 244.204 30.3552 243.725 30.4075C243.25 30.4598 242.729 30.4822 242.176 30.4822C241.446 30.4822 240.778 30.4187 240.177 30.2805C239.569 30.1498 239.031 29.9519 238.549 29.6998C238.064 29.4459 237.645 29.1415 237.282 28.7793C236.925 28.4245 236.622 28.0193 236.387 27.573C236.143 27.1305 235.966 26.6413 235.844 26.1203C235.725 25.5956 235.668 25.0373 235.668 24.4547C235.668 23.9226 235.725 23.4128 235.851 22.9198C235.973 22.4287 236.158 21.975 236.398 21.553C236.637 21.1328 236.929 20.7463 237.282 20.4028C237.637 20.0573 238.038 19.7623 238.499 19.5196C238.957 19.2787 239.466 19.0882 240.026 18.9575C240.588 18.8231 241.196 18.7521 241.852 18.7521C242.498 18.7521 243.095 18.8194 243.651 18.9388C244.2 19.0621 244.707 19.2413 245.16 19.4635C245.613 19.6951 246.016 19.9752 246.365 20.2982C246.717 20.6231 247.014 20.991 247.247 21.3943C247.488 21.7958 247.663 22.2383 247.793 22.7126C247.911 23.1888 247.974 23.6911 247.974 24.2176C247.974 24.2886 247.974 24.3614 247.97 24.4361C247.97 24.522 247.967 24.5929 247.959 24.6751C247.956 24.7461 247.952 24.8208 247.948 24.8861C247.944 24.9589 247.937 25.0168 247.933 25.0616H237.805C237.842 25.6236 237.964 26.1278 238.172 26.5815C238.379 27.0334 238.669 27.4162 239.046 27.7373C239.429 28.0567 239.898 28.3031 240.455 28.473C241.015 28.6486 241.664 28.7344 242.416 28.7344C242.947 28.7344 243.437 28.7083 243.884 28.6541C244.326 28.5963 244.744 28.5234 245.131 28.4338C245.513 28.3367 245.879 28.2322 246.223 28.1089C246.565 27.9856 246.892 27.8624 247.218 27.7317L247.218 29.4608ZM245.879 23.4053C245.827 22.9646 245.694 22.5594 245.473 22.1953C245.252 21.8218 244.968 21.5044 244.609 21.2486C244.26 20.9834 243.844 20.7799 243.378 20.6343C242.903 20.4886 242.402 20.4102 241.852 20.4102C241.305 20.4102 240.797 20.4887 240.325 20.6343C239.854 20.7799 239.44 20.9834 239.087 21.2486C238.732 21.5044 238.441 21.8218 238.223 22.1953C238.001 22.5594 237.868 22.9646 237.829 23.4053H245.879Z" fill="#666666"/>
<path d="M251.955 30.225V19.014H253.881L254.049 21.0475C254.242 20.7618 254.465 20.4817 254.721 20.2091C254.979 19.9346 255.277 19.6956 255.621 19.4864C255.963 19.2829 256.348 19.1149 256.782 18.9842C257.215 18.8572 257.697 18.7975 258.232 18.7975C258.633 18.7975 259.002 18.8199 259.335 18.8721C259.674 18.9244 259.962 18.9879 260.201 19.0813V20.999C260.04 20.9579 259.877 20.9205 259.703 20.8869C259.526 20.8533 259.346 20.8309 259.158 20.8066C258.965 20.7824 258.773 20.7656 258.575 20.7525C258.376 20.745 258.176 20.7376 257.969 20.7376C257.583 20.7376 257.231 20.7749 256.911 20.8421C256.593 20.9168 256.303 21.0102 256.044 21.126C255.784 21.2398 255.551 21.3761 255.344 21.5274C255.138 21.6805 254.954 21.8374 254.798 22.0017C254.643 22.166 254.502 22.3247 254.388 22.4853C254.275 22.6403 254.179 22.7915 254.101 22.9241V30.225H251.955Z" fill="#666666"/>
<path d="M276.38 30.4812C275.601 30.4812 274.897 30.4195 274.263 30.2814C273.629 30.1469 273.068 29.9565 272.569 29.7063C272.076 29.4617 271.649 29.1629 271.288 28.81C270.926 28.4571 270.622 28.065 270.391 27.6299C270.158 27.193 269.983 26.7206 269.868 26.2146C269.753 25.7029 269.698 25.167 269.698 24.605C269.698 24.0579 269.753 23.5239 269.874 23.0215C269.988 22.5193 270.166 22.0487 270.406 21.6099C270.645 21.1785 270.948 20.7864 271.308 20.4373C271.678 20.0787 272.105 19.7819 272.604 19.5354C273.094 19.2814 273.658 19.0928 274.289 18.9547C274.915 18.8202 275.609 18.753 276.38 18.753C277.158 18.753 277.862 18.8202 278.497 18.9547C279.131 19.0928 279.695 19.2814 280.19 19.5316C280.687 19.7781 281.113 20.075 281.477 20.4297C281.837 20.7826 282.141 21.1748 282.374 21.6098C282.605 22.0486 282.778 22.5229 282.897 23.0252C283.006 23.5349 283.067 24.069 283.067 24.6273C283.067 25.1818 283.006 25.7103 282.897 26.2182C282.775 26.7204 282.601 27.1891 282.357 27.6261C282.118 28.0612 281.819 28.4496 281.451 28.8062C281.089 29.1554 280.658 29.4579 280.164 29.7024C279.669 29.9564 279.105 30.1468 278.474 30.2813C277.848 30.4196 277.147 30.4812 276.38 30.4812ZM276.38 28.8063C277.147 28.8063 277.814 28.7055 278.375 28.5075C278.938 28.3115 279.404 28.0314 279.772 27.6673C280.146 27.3088 280.416 26.8644 280.591 26.3527C280.769 25.8411 280.861 25.2641 280.861 24.6274C280.861 23.9944 280.769 23.4211 280.591 22.9021C280.416 22.3886 280.146 21.946 279.772 21.5838C279.404 21.2159 278.938 20.9321 278.375 20.7341C277.814 20.5344 277.147 20.4373 276.38 20.4373C275.609 20.4373 274.949 20.5344 274.388 20.7304C273.828 20.9283 273.361 21.2084 272.991 21.5725C272.623 21.9348 272.349 22.3699 272.168 22.8833C271.994 23.4006 271.904 23.9719 271.904 24.6049C271.904 25.2417 271.994 25.8149 272.168 26.3322C272.349 26.8512 272.623 27.29 272.991 27.6561C273.361 28.0239 273.828 28.3021 274.388 28.5075C274.949 28.7055 275.609 28.8063 276.38 28.8063Z" fill="#666666"/>
<path d="M288.495 30.225V20.7151H285.315V19.014H288.495V18.269C288.495 17.6285 288.588 17.0553 288.782 16.5474C288.974 16.0376 289.27 15.6007 289.671 15.2477C290.082 14.8911 290.594 14.6185 291.213 14.4262C291.836 14.2357 292.581 14.1423 293.452 14.1423C293.791 14.1423 294.109 14.1535 294.403 14.1722C294.695 14.1983 294.965 14.232 295.21 14.273C295.466 14.3141 295.695 14.3608 295.904 14.4168C296.111 14.4728 296.303 14.5326 296.475 14.5998V16.3065C296.281 16.2393 296.07 16.1833 295.839 16.1347C295.606 16.0787 295.358 16.0376 295.105 16.004C294.85 15.9667 294.584 15.9405 294.312 15.9181C294.038 15.8994 293.767 15.8882 293.489 15.8882C292.964 15.8882 292.518 15.9405 292.151 16.045C291.788 16.1496 291.491 16.3064 291.269 16.51C291.039 16.7191 290.882 16.9805 290.782 17.2998C290.683 17.6172 290.635 17.9926 290.635 18.4258V19.014H295.31V20.7151H290.635V30.225H288.495Z" fill="#666666"/>
<path d="M313.396 29.9416C313.189 30.0163 312.974 30.0872 312.74 30.1526C312.503 30.2198 312.244 30.2796 311.972 30.3281C311.702 30.3766 311.412 30.414 311.105 30.4438C310.797 30.47 310.471 30.4849 310.127 30.4849C309.462 30.4849 308.866 30.4177 308.373 30.2907C307.868 30.1619 307.45 29.9565 307.112 29.6727C306.775 29.3907 306.526 29.0247 306.359 28.5822C306.189 28.134 306.1 27.5982 306.1 26.9689V20.7155H303.701V19.0126H306.189L306.448 16.2154H308.225V19.0126H313.57V20.7155H308.225V26.6814C308.225 27.0698 308.273 27.3928 308.376 27.6579C308.476 27.9212 308.626 28.1341 308.837 28.2946C309.044 28.4515 309.31 28.5673 309.63 28.6345C309.952 28.6999 310.334 28.7353 310.78 28.7353C311.024 28.7353 311.268 28.7278 311.508 28.6998C311.743 28.6755 311.972 28.6419 312.194 28.6046C312.411 28.5598 312.621 28.5074 312.823 28.4514C313.022 28.3917 313.215 28.3244 313.396 28.2573L313.396 29.9416Z" fill="#666666"/>
<path d="M327.046 30.225V23.4263C327.046 22.8661 326.972 22.3994 326.82 22.0222C326.676 21.6431 326.456 21.335 326.164 21.1072C325.87 20.872 325.5 20.7076 325.066 20.6087C324.633 20.5079 324.117 20.4555 323.542 20.4555C323.124 20.4555 322.716 20.4891 322.318 20.5489C321.915 20.6161 321.536 20.7002 321.17 20.8103C320.806 20.9168 320.466 21.0363 320.15 21.1819C319.832 21.3219 319.552 21.4732 319.301 21.6356V30.225H317.158V14.4019H319.301V20.0784C319.577 19.8935 319.891 19.7143 320.233 19.5537C320.58 19.3893 320.958 19.253 321.355 19.1335C321.753 19.0141 322.178 18.9244 322.62 18.8572C323.067 18.79 323.524 18.7526 323.995 18.7526C324.457 18.7526 324.91 18.7862 325.345 18.8385C325.785 18.902 326.197 18.9953 326.582 19.1335C326.968 19.2698 327.318 19.4416 327.639 19.6582C327.961 19.8767 328.233 20.1456 328.466 20.4668C328.691 20.7861 328.867 21.1595 328.993 21.5871C329.122 22.0166 329.185 22.5039 329.185 23.0585V30.225H327.046Z" fill="#666666"/>
<path d="M344.609 29.4608C344.296 29.6064 343.963 29.7408 343.61 29.866C343.252 29.9967 342.869 30.1012 342.451 30.1909C342.039 30.2842 341.595 30.3552 341.116 30.4075C340.641 30.4598 340.12 30.4822 339.569 30.4822C338.838 30.4822 338.169 30.4187 337.568 30.2805C336.964 30.1498 336.426 29.9519 335.943 29.6998C335.459 29.4459 335.035 29.1415 334.679 28.7793C334.316 28.4245 334.017 28.0193 333.778 27.573C333.538 27.1305 333.357 26.6413 333.238 26.1203C333.122 25.5956 333.063 25.0373 333.063 24.4547C333.063 23.9226 333.122 23.4128 333.248 22.9198C333.368 22.4287 333.549 21.975 333.789 21.553C334.028 21.1328 334.324 20.7463 334.679 20.4028C335.032 20.0573 335.433 19.7623 335.891 19.5196C336.348 19.2787 336.86 19.0882 337.42 18.9575C337.982 18.8231 338.587 18.7521 339.247 18.7521C339.889 18.7521 340.489 18.8194 341.042 18.9388C341.591 19.0621 342.102 19.2413 342.555 19.4635C343.004 19.6951 343.407 19.9752 343.76 20.2982C344.111 20.6231 344.405 20.991 344.638 21.3943C344.879 21.7958 345.054 22.2383 345.184 22.7126C345.306 23.1888 345.365 23.6911 345.365 24.2176V24.4361C345.361 24.522 345.357 24.5929 345.354 24.6751C345.346 24.7461 345.343 24.8208 345.339 24.8861C345.335 24.9589 345.328 25.0168 345.328 25.0616H335.202C335.239 25.6236 335.355 26.1278 335.562 26.5815C335.769 27.0334 336.062 27.4162 336.441 27.7373C336.82 28.0567 337.289 28.3031 337.849 28.473C338.406 28.6486 339.055 28.7344 339.807 28.7344C340.338 28.7344 340.833 28.7083 341.275 28.6541C341.721 28.5963 342.135 28.5234 342.521 28.4338C342.91 28.3367 343.274 28.2322 343.614 28.1089C343.956 27.9856 344.283 27.8624 344.609 27.7317L344.609 29.4608ZM343.27 23.4053C343.218 22.9646 343.085 22.5594 342.865 22.1953C342.647 21.8218 342.359 21.5044 342.005 21.2486C341.654 20.9834 341.238 20.7799 340.769 20.6343C340.297 20.4886 339.792 20.4102 339.247 20.4102C338.702 20.4102 338.191 20.4887 337.72 20.6343C337.248 20.7799 336.834 20.9834 336.477 21.2486C336.122 21.5044 335.836 21.8218 335.614 22.1953C335.392 22.5594 335.263 22.9646 335.22 23.4053H343.27Z" fill="#666666"/>
<path d="M370.03 30.225L368.091 26.3262L368.083 26.3112H358.652L358.649 26.3262L356.724 30.225H354.28L362.111 14.4038H364.689L372.519 30.225H370.03ZM364.299 18.3773C364.147 18.0711 363.992 17.7518 363.835 17.4232C363.676 17.0964 363.52 16.7771 363.371 16.4597C363.215 16.7771 363.056 17.0964 362.901 17.4157C362.742 17.7369 362.589 18.0618 362.441 18.3773L359.457 24.4665L359.453 24.4795H367.283L367.279 24.4665L364.299 18.3773Z" fill="#666666"/>
<path d="M385.044 30.225L384.874 29.2634C384.6 29.4464 384.295 29.6106 383.955 29.7582C383.617 29.9094 383.254 30.0382 382.872 30.1466C382.483 30.2511 382.078 30.3333 381.655 30.3968C381.226 30.4566 380.788 30.4827 380.335 30.4827C379.869 30.4827 379.412 30.4584 378.972 30.4118C378.527 30.3632 378.111 30.2811 377.719 30.1578C377.325 30.0383 376.963 29.8758 376.635 29.6742C376.303 29.4725 376.02 29.2148 375.783 28.9067C375.546 28.593 375.36 28.2252 375.227 27.7957C375.097 27.3644 375.027 26.8658 375.027 26.2926V19.014H377.17V25.9191C377.17 26.4494 377.251 26.892 377.41 27.2598C377.569 27.6239 377.8 27.9189 378.111 28.143C378.416 28.3708 378.797 28.5332 379.242 28.6341C379.692 28.7349 380.205 28.7798 380.788 28.7798C381.208 28.7798 381.592 28.7573 381.942 28.7163C382.293 28.6677 382.62 28.5968 382.934 28.509C383.239 28.4194 383.539 28.3036 383.826 28.1729C384.114 28.0385 384.402 27.8853 384.7 27.7098V19.014H386.839V30.225H385.044Z" fill="#666666"/>
<path d="M401.983 30.2256L401.813 29.2416C401.551 29.4208 401.249 29.587 400.913 29.7401C400.572 29.8895 400.216 30.0202 399.835 30.136C399.456 30.2424 399.058 30.3283 398.64 30.3937C398.221 30.4516 397.799 30.4814 397.376 30.4814C396.394 30.4814 395.51 30.3526 394.721 30.0949C393.931 29.8297 393.26 29.4507 392.696 28.9484C392.138 28.4442 391.711 27.8299 391.408 27.1035C391.106 26.3734 390.955 25.5388 390.955 24.6033C390.955 23.6958 391.099 22.8761 391.397 22.1535C391.693 21.4345 392.118 20.8202 392.678 20.3142C393.242 19.8082 393.924 19.4235 394.739 19.1546C395.551 18.8876 396.475 18.7532 397.509 18.7532C397.899 18.7532 398.289 18.7793 398.67 18.8241C399.055 18.8689 399.419 18.9399 399.774 19.0258C400.127 19.1117 400.463 19.2181 400.776 19.3488C401.09 19.4795 401.377 19.6289 401.639 19.7988V14.4025H403.775V30.2256H401.983ZM401.639 21.5279C401.377 21.3561 401.098 21.2049 400.794 21.0704C400.499 20.936 400.193 20.8202 399.872 20.7231C399.556 20.6335 399.219 20.5588 398.873 20.5121C398.53 20.4636 398.176 20.4375 397.807 20.4375C397.058 20.4375 396.39 20.5177 395.815 20.6932C395.237 20.8688 394.751 21.1339 394.355 21.4794C393.957 21.8304 393.66 22.2618 393.456 22.7865C393.26 23.3093 393.153 23.9162 393.153 24.6033C393.153 25.3016 393.26 25.9085 393.456 26.4295C393.66 26.9579 393.957 27.3949 394.355 27.7478C394.75 28.1026 395.237 28.3621 395.815 28.5414C396.39 28.7206 397.058 28.8047 397.807 28.8047C398.176 28.8047 398.53 28.7804 398.873 28.7318C399.219 28.6796 399.556 28.6048 399.872 28.5152C400.193 28.4181 400.499 28.3024 400.794 28.1698C401.098 28.0353 401.377 27.8822 401.639 27.7105V21.5279Z" fill="#666666"/>
<path d="M408.907 14.4038H411.049V16.7696H408.907V14.4038ZM408.907 19.014H411.049V30.225H408.907V19.014Z" fill="#666666"/>
<path d="M436.278 22.5937H438.483V29.4839C438.193 29.5885 437.883 29.6856 437.557 29.7789C437.234 29.8685 436.886 29.9526 436.529 30.0236C436.171 30.102 435.795 30.1655 435.403 30.2252C435.013 30.2775 434.608 30.3298 434.187 30.3672C433.767 30.4083 433.327 30.4344 432.874 30.4512C432.417 30.4755 431.951 30.4829 431.469 30.4829C430.093 30.4829 428.858 30.3037 427.764 29.9489C426.668 29.5922 425.734 29.0638 424.967 28.3748C424.196 27.6783 423.604 26.825 423.194 25.8073C422.785 24.7953 422.582 23.6283 422.582 22.3137C422.582 21.466 422.674 20.6761 422.857 19.9423C423.046 19.2085 423.316 18.5381 423.672 17.9332C424.029 17.3263 424.466 16.7904 424.987 16.318C425.501 15.8437 426.096 15.4497 426.767 15.1248C427.435 14.8018 428.169 14.5591 428.98 14.391C429.779 14.2248 430.65 14.1389 431.58 14.1389C431.889 14.1389 432.21 14.1464 432.545 14.1613C432.881 14.1726 433.222 14.1987 433.56 14.2286C433.895 14.2585 434.231 14.2958 434.568 14.3443C434.906 14.3873 435.228 14.4433 435.54 14.5068C435.851 14.5741 436.145 14.645 436.422 14.7272C436.701 14.8056 436.956 14.8952 437.186 14.9923V16.9399C436.794 16.7793 436.37 16.6449 435.917 16.5328C435.468 16.4264 435.009 16.3368 434.542 16.2658C434.081 16.1949 433.619 16.1463 433.164 16.1127C432.715 16.0828 432.292 16.0642 431.9 16.0642C430.765 16.0642 429.759 16.1948 428.884 16.4507C428.01 16.7121 427.272 17.0968 426.675 17.6177C426.074 18.1387 425.619 18.7866 425.31 19.569C425.004 20.3476 424.848 21.2645 424.848 22.3139C424.848 23.0701 424.926 23.7516 425.081 24.3548C425.233 24.9598 425.455 25.4919 425.737 25.9569C426.026 26.4218 426.37 26.8214 426.782 27.1557C427.191 27.4843 427.651 27.7606 428.169 27.9679C428.681 28.1808 429.241 28.3376 429.853 28.4329C430.461 28.5393 431.112 28.586 431.798 28.586C432.343 28.586 432.848 28.5636 433.316 28.5225C433.785 28.4815 434.205 28.4329 434.584 28.375C434.969 28.3115 435.298 28.248 435.581 28.1771C435.865 28.1061 436.093 28.0464 436.278 27.9941L436.278 22.5937Z" fill="#666666"/>
<path d="M442.983 30.225V19.014H444.91L445.078 21.0475C445.271 20.7618 445.494 20.4817 445.749 20.2091C446.008 19.9346 446.302 19.6956 446.646 19.4864C446.99 19.2829 447.376 19.1149 447.807 18.9842C448.24 18.8572 448.722 18.7975 449.257 18.7975C449.66 18.7975 450.024 18.8199 450.364 18.8721C450.702 18.9244 450.987 18.9879 451.226 19.0813V20.999C451.068 20.9579 450.898 20.9205 450.728 20.8869C450.554 20.8533 450.371 20.8309 450.186 20.8066C449.994 20.7824 449.802 20.7656 449.604 20.7525C449.404 20.745 449.201 20.7376 448.998 20.7376C448.608 20.7376 448.258 20.7749 447.94 20.8421C447.618 20.9168 447.332 21.0102 447.066 21.126C446.809 21.2398 446.579 21.3761 446.37 21.5274C446.163 21.6805 445.982 21.8374 445.827 22.0017C445.672 22.166 445.531 22.3247 445.418 22.4853C445.304 22.6403 445.208 22.7915 445.126 22.9241V30.225H442.983Z" fill="#666666"/>
<path d="M460.095 30.4812C459.317 30.4812 458.612 30.4195 457.976 30.2814C457.344 30.1469 456.78 29.9565 456.285 29.7063C455.787 29.4617 455.362 29.1629 454.998 28.81C454.641 28.4571 454.338 28.065 454.101 27.6299C453.87 27.193 453.692 26.7206 453.578 26.2146C453.467 25.7029 453.411 25.167 453.411 24.605C453.411 24.0579 453.467 23.5239 453.585 23.0215C453.704 22.5193 453.877 22.0487 454.116 21.6099C454.356 21.1785 454.659 20.7864 455.024 20.4373C455.393 20.0787 455.82 19.7819 456.318 19.5354C456.804 19.2814 457.37 19.0928 458 18.9547C458.627 18.8202 459.324 18.753 460.095 18.753C460.871 18.753 461.578 18.8202 462.212 18.9547C462.846 19.0928 463.406 19.2814 463.904 19.5316C464.399 19.7781 464.826 20.075 465.187 20.4297C465.549 20.7826 465.85 21.1748 466.087 21.6098C466.316 22.0486 466.492 22.5229 466.607 23.0252C466.721 23.5349 466.777 24.069 466.777 24.6273C466.777 25.1818 466.721 25.7103 466.607 26.2182C466.488 26.7204 466.313 27.1891 466.072 27.6261C465.834 28.0612 465.534 28.4496 465.166 28.8062C464.8 29.1554 464.371 29.4579 463.874 29.7024C463.384 29.9564 462.82 30.1468 462.19 30.2813C461.559 30.4196 460.862 30.4812 460.095 30.4812ZM460.095 28.8063C460.862 28.8063 461.524 28.7055 462.09 28.5075C462.65 28.3115 463.118 28.0314 463.488 27.6673C463.856 27.3088 464.129 26.8644 464.307 26.3527C464.48 25.8411 464.571 25.2641 464.571 24.6274C464.571 23.9944 464.48 23.4211 464.307 22.9021C464.129 22.3886 463.856 21.946 463.488 21.5838C463.118 21.2159 462.65 20.9321 462.09 20.7341C461.524 20.5344 460.862 20.4373 460.095 20.4373C459.324 20.4373 458.66 20.5344 458.098 20.7304C457.538 20.9283 457.074 21.2084 456.706 21.5725C456.336 21.9348 456.059 22.3699 455.88 22.8833C455.706 23.4006 455.613 23.9719 455.613 24.6049C455.613 25.2417 455.706 25.8149 455.88 26.3322C456.059 26.8512 456.336 27.29 456.706 27.6561C457.074 28.0239 457.538 28.3021 458.098 28.5075C458.66 28.7055 459.324 28.8063 460.095 28.8063Z" fill="#666666"/>
<path d="M480.662 30.225L480.492 29.2634C480.219 29.4464 479.914 29.6106 479.575 29.7582C479.235 29.9094 478.878 30.0382 478.49 30.1466C478.104 30.2511 477.701 30.3333 477.274 30.3968C476.846 30.4566 476.41 30.4827 475.953 30.4827C475.488 30.4827 475.035 30.4584 474.591 30.4118C474.145 30.3632 473.729 30.2811 473.339 30.1578C472.944 30.0383 472.581 29.8758 472.254 29.6742C471.925 29.4725 471.642 29.2148 471.402 28.9067C471.167 28.593 470.978 28.2252 470.849 27.7957C470.716 27.3644 470.649 26.8658 470.649 26.2926V19.014H472.788V25.9191C472.788 26.4494 472.87 26.892 473.029 27.2598C473.189 27.6239 473.422 27.9189 473.729 28.143C474.036 28.3708 474.415 28.5332 474.861 28.6341C475.31 28.7349 475.824 28.7798 476.41 28.7798C476.83 28.7798 477.211 28.7573 477.564 28.7163C477.911 28.6677 478.242 28.5968 478.553 28.509C478.862 28.4194 479.161 28.3036 479.446 28.1729C479.733 28.0385 480.025 27.8853 480.319 27.7098V19.014H482.458V30.225H480.662Z" fill="#666666"/>
<path d="M487.588 34.8336V19.0142H489.381L489.536 19.9983C489.805 19.8153 490.104 19.651 490.439 19.4997C490.773 19.3466 491.139 19.2159 491.52 19.1076C491.899 18.9955 492.3 18.9096 492.715 18.848C493.131 18.7846 493.55 18.7547 493.987 18.7547C494.965 18.7547 495.854 18.8854 496.645 19.1412C497.435 19.4026 498.11 19.7817 498.67 20.2821C499.226 20.7807 499.655 21.3913 499.962 22.1176C500.263 22.844 500.415 23.6749 500.415 24.6067C500.415 25.5179 500.267 26.3413 499.968 27.064C499.677 27.7903 499.245 28.4046 498.688 28.9107C498.124 29.4223 497.438 29.8088 496.623 30.0815C495.813 30.3485 494.891 30.4829 493.861 30.4829C493.46 30.4829 493.064 30.4605 492.685 30.412C492.3 30.3709 491.933 30.3036 491.579 30.2178C491.221 30.1263 490.888 30.0217 490.575 29.891C490.27 29.7603 489.982 29.611 489.731 29.4392V34.8336L487.588 34.8336ZM489.731 27.6895C489.993 27.8613 490.27 28.0144 490.572 28.1488C490.862 28.2814 491.173 28.3972 491.494 28.4905C491.807 28.5876 492.14 28.6623 492.489 28.7053C492.833 28.7594 493.19 28.78 493.56 28.78C494.308 28.78 494.974 28.6997 495.554 28.5242C496.133 28.3486 496.619 28.0835 497.013 27.738C497.405 27.387 497.701 26.9519 497.902 26.4309C498.106 25.9044 498.206 25.2975 498.206 24.6067C498.206 23.9139 498.106 23.3052 497.902 22.7842C497.701 22.2595 497.405 21.8226 497.013 21.4697C496.619 21.1149 496.133 20.8516 495.554 20.6761C494.974 20.5005 494.308 20.4128 493.56 20.4128C493.19 20.4128 492.833 20.437 492.489 20.4856C492.14 20.5378 491.807 20.6088 491.494 20.7059C491.173 20.7956 490.862 20.9151 490.572 21.0476C490.27 21.1821 489.993 21.3352 489.731 21.5069V27.6895Z" fill="#666666"/>
<path d="M136.602 0.975006H134.671V38.025H136.602V0.975006Z" fill="#666666"/>
<path d="M15.7083 9.81781H6.22191L1.93077 30.225H11.8867C18.1025 30.225 22.8744 26.4009 24.1759 20.2483C25.448 14.2002 23.7951 9.81781 15.7083 9.81781ZM15.9339 20.0242C15.5253 22.0035 15.0538 23.445 14.3439 24.2928C13.6654 25.1087 12.8075 25.5868 11.5225 25.5868H10.7387L13.083 14.4449H13.8613C15.1555 14.4449 15.8063 14.936 16.1409 15.7538C16.4959 16.5959 16.3535 18.0393 15.9339 20.0242Z" fill="#666666"/>
<path d="M33.4682 30.7628C27.3707 30.7628 24.3886 28.2999 25.4258 23.3815L28.2785 9.81781H36.2895L33.5033 23.0473C33.1595 24.655 33.7881 25.2749 34.6237 25.2749C35.4704 25.2749 36.3487 24.655 36.6925 23.0473L39.4806 9.81781H47.4786L44.6222 23.3815C43.5887 28.2999 39.5656 30.7628 33.4682 30.7628Z" fill="#666666"/>
<path d="M55.4096 30.7628C48.3285 30.7628 45.9768 26.4009 47.3283 19.9383C48.4783 13.571 53.13 9.27631 59.9559 9.27631C65.0531 9.27631 68.9264 11.3714 67.6877 17.3634H60.3534C60.7306 15.0517 59.9947 14.5924 59.0111 14.5924C56.933 14.5924 56.2915 16.7416 55.5926 20.0242C54.9529 23.1276 54.6275 25.4448 56.6372 25.4448C57.6781 25.4448 58.5082 24.8286 59.0685 22.6794H66.5729C65.3933 28.2999 60.4181 30.7628 55.4096 30.7628Z" fill="#666666"/>
<path d="M98.3679 30.225H90.3624L93.5036 15.3038H88.5247L89.671 9.81781H107.64L106.492 15.3038H101.509L98.3679 30.225Z" fill="#666666"/>
<path d="M112.862 30.225H104.86L109.155 9.81781H117.153L112.862 30.225Z" fill="#666666"/>
<path d="M85.7273 9.81781H75.3461L64.5896 30.225H72.2568L73.7543 26.9461H79.5504L79.6447 30.225H87.9312L85.7273 9.81781ZM79.4229 21.9736H76.0007L79.3933 14.2806H79.4432L79.4229 21.9736Z" fill="#666666"/>
</svg>
